<?xml version="1.0" encoding="UTF-8"?>
<svg width="23px" height="24px" viewBox="0 0 23 24" version="1.1" xmlns="http://www.w3.org/2000/svg" xmlns:xlink="http://www.w3.org/1999/xlink">
    <!-- Generator: sketchtool 52.2 (67145) - http://www.bohemiancoding.com/sketch -->
    <title>54CE56D1-996D-4604-AA96-698FADB9C375</title>
    <desc>Created with sketchtool.</desc>
    <g id="Page-1" stroke="none" stroke-width="1" fill="none" fill-rule="evenodd">
        <g id="Search-bar" transform="translate(-510.000000, -155.000000)" fill="#00B84B" fill-rule="nonzero">
            <path d="M532.6503,176.860197 L526.980407,170.919391 C528.438236,169.173507 529.236989,166.976828 529.236989,164.689991 C529.236989,159.347014 524.922049,155 519.618495,155 C514.31494,155 510,159.347014 510,164.689991 C510,170.032967 514.31494,174.379981 519.618495,174.379981 C521.609523,174.379981 523.506876,173.774989 525.129056,172.626514 L530.842023,178.6124 C531.080813,178.862234 531.401987,179 531.746162,179 C532.071936,179 532.380982,178.874873 532.61559,178.647369 C533.114079,178.164133 533.12997,177.362813 532.6503,176.860197 Z M519.618495,157.527824 C523.538658,157.527824 526.727817,160.740687 526.727817,164.689991 C526.727817,168.639294 523.538658,171.852157 519.618495,171.852157 C515.698331,171.852157 512.509172,168.639294 512.509172,164.689991 C512.509172,160.740687 515.698331,157.527824 519.618495,157.527824 Z" id="search"></path>
        </g>
    </g>
</svg>