<svg xmlns="http://www.w3.org/2000/svg">
<defs>
<font id="DBAdmanRoundedX-Bold" horiz-adv-x="0" >
  <font-face 
    font-family="DB AdmanRounded X Bold"
    font-weight="700"
    font-stretch="normal"
    units-per-em="4096"
    panose-1="2 0 5 6 9 0 0 2 0 4"
    ascent="3276"
    descent="-820"
    x-height="1499"
    cap-height="2183"
    bbox="-2000 -1655 4002 3654"
    underline-thickness="82"
    underline-position="-463"
    unicode-range="U+0020-U+F882"
  />
<missing-glyph horiz-adv-x="1696" 
d="M1729 1638v-57h24c19.333 0 29 12.333 29 37c0 2 -2.16699 5.83301 -6.5 11.5s-11.833 8.5 -22.5 8.5h-24zM1741 1577h-12v-57h-21v139h45c32.667 0 49 -13.667 49 -41c0 -18.667 -4.16699 -30.167 -12.5 -34.5s-17.833 -6.5 -28.5 -6.5l41 -57h-20zM1753 1499
c17.333 0 31.832 2.66797 43.499 8.00098s21 12.166 28 20.499s11.833 17.333 14.5 27s4 18.5 4 26.5c0 30.667 -7.16699 54.667 -21.5 72s-37.166 26 -68.499 26c-30.667 0 -54 -8.66699 -70 -26s-24 -41.333 -24 -72c0 -22.667 7.5 -42 22.5 -58s38.833 -24 71.5 -24z
M1753 1692c35.333 0 61.167 -10.833 77.5 -32.5s24.5 -47.834 24.5 -78.501c0 -11.333 -2 -22.5 -6 -33.5s-10.167 -21 -18.5 -30s-19 -16.333 -32 -22s-28.167 -8.5 -45.5 -8.5c-16 0 -30.667 2.83301 -44 8.5s-24.5 13 -33.5 22s-16 19 -21 30s-7.5 22.167 -7.5 33.5
c0 30.667 9.5 56.834 28.5 78.501s44.833 32.5 77.5 32.5zM823 1294c28.667 -2 61.3311 -4.99902 97.998 -8.99902s74.667 -9 114 -15s78.833 -12.833 118.5 -20.5s77 -16.167 112 -25.5s66.333 -19.333 94 -30s49.5 -22.334 65.5 -35.001
c-27.333 54 -63 102.167 -107 144.5s-92.833 78 -146.5 107s-110.667 51 -171 66s-120.833 22.5 -181.5 22.5c-46 0 -91.333 -4.33301 -136 -13s-87.5 -22 -128.5 -40s-79.333 -40.667 -115 -68s-67.5 -59.333 -95.5 -96c49.333 6 98.5 10.167 147.5 12.5
s98.167 3.5 147.5 3.5c30.667 0 61.334 -0.166992 92.001 -0.5s61.334 -1.5 92.001 -3.5zM1536 1618l-0.000976562 -582c-65.333 20.667 -135.833 40 -211.5 58s-155.167 33.667 -238.5 47s-169.666 23.833 -258.999 31.5s-180.666 11.5 -273.999 11.5

<glyph glyph-name="plusminus" unicode="&#x2b;&#x2d;" horiz-adv-x="1618" 
d="M647 1307v430c0 22.667 4.16699 43.834 12.5 63.501s19.666 37 33.999 52s31.166 26.833 50.499 35.5s40.333 13 63 13s43.834 -4.33301 63.501 -13s37 -20.5 52 -35.5s26.833 -32.333 35.5 -52s13 -40.834 13 -63.501v-430h430c22.667 0 43.834 -4.33301 63.501 -13
s37 -20.5 52 -35.5s26.833 -32.333 35.5 -52s13 -40.834 13 -63.501s-4.33301 -43.667 -13 -63s-20.5 -36.166 -35.5 -50.499s-32.333 -25.666 -52 -33.999s-40.834 -12.5 -63.501 -12.5h-430v-430c0 -22.667 -4.33301 -43.834 -13 -63.501s-20.5 -37 -35.5 -52
s-32.333 -26.833 -52 -35.5s-40.834 -13 -63.501 -13s-43.667 4.33301 -63 13s-36.166 20.5 -50.499 35.5s-25.666 32.333 -33.999 52s-12.5 40.834 -12.5 63.501v430h-430c-22.667 0 -43.834 4.16699 -63.501 12.5s-37 19.666 -52 33.999s-26.833 31.166 -35.5 50.499
s-13 40.333 -13 63s4.33301 43.834 13 63.501s20.5 37 35.5 52s32.333 26.833 52 35.5s40.834 13 63.501 13h430zM1401 324c22.667 0 43.834 -4.33301 63.501 -13s37 -20.5 52 -35.5s26.833 -32.333 35.5 -52s13 -40.834 13 -63.501s-4.33301 -43.667 -13 -63
s-20.5 -36.166 -35.5 -50.499s-32.333 -25.666 -52 -33.999s-40.834 -12.5 -63.501 -12.5h-1184c-22.667 0 -43.834 4.16699 -63.501 12.5s-37 19.666 -52 33.999s-26.833 31.166 -35.5 50.499s-13 40.333 -13 63s4.33301 43.834 13 63.501s20.5 37 35.5 52
s32.333 26.833 52 35.5s40.834 13 63.501 13h1184z" />
    <glyph glyph-name="ellipsis" unicode="&#x2e;&#x2e;&#x2e;" horiz-adv-x="2077" 
d="M1962 184c0 -34 -6.33301 -65.6699 -19 -95.0029s-29.834 -54.833 -51.501 -76.5s-47.167 -38.667 -76.5 -51s-61 -18.5 -95 -18.5s-65.667 6.16699 -95 18.5s-54.833 29.333 -76.5 51s-38.667 46.834 -51 75.501s-18.5 59.334 -18.5 92.001c0 34 6.16699 65.667 18.5 95
s29.333 54.833 51 76.5s47.167 38.834 76.5 51.501s61 19 95 19s65.667 -6.33301 95 -19s54.833 -29.667 76.5 -51s38.834 -46.5 51.501 -75.5s19 -59.833 19 -92.5zM602 183.997c0 -34 -6.16699 -65.6699 -18.5 -95.0029s-29.5 -54.833 -51.5 -76.5
s-47.667 -38.667 -77 -51s-61 -18.5 -95 -18.5s-65.667 6.16699 -95 18.5s-54.833 29.333 -76.5 51s-38.667 46.834 -51 75.501s-18.5 59.334 -18.5 92.001c0 34 6.16699 65.667 18.5 95s29.333 54.833 51 76.5s47.167 38.834 76.5 51.501s61 19 95 19
s65.667 -6.33301 95 -19s55 -29.667 77 -51s39.167 -46.5 51.5 -75.5s18.5 -59.833 18.5 -92.5zM1282 183.994c0 -34 -6.33301 -65.6699 -19 -95.0029s-29.834 -54.833 -51.501 -76.5s-47.167 -38.667 -76.5 -51s-61 -18.5 -95 -18.5s-65.667 6.16699 -95 18.5
s-54.833 29.333 -76.5 51s-38.667 46.834 -51 75.501s-18.5 59.334 -18.5 92.001c0 34 6.16699 65.667 18.5 95s29.333 54.833 51 76.5s47.167 38.834 76.5 51.501s61 19 95 19s65.667 -6.33301 95 -19s54.833 -29.667 76.5 -51s38.834 -46.5 51.501 -75.5
s19 -59.833 19 -92.5z" />
    <glyph glyph-name="lessequal" unicode="&#x3c;&#x3d;" horiz-adv-x="1638" 
d="M98 1266v286l1303 652c20.667 10 41.834 15.667 63.501 17s42.667 -1.33398 63 -8c20.333 -6.66699 39 -17 56 -31s31.167 -31.333 42.5 -52c10 -20.667 15.667 -41.834 17 -63.501s-1.33398 -42.667 -8.00098 -63s-17 -39 -31 -56s-31.333 -31.167 -52 -42.5l-974 -496
l974 -528c20.667 -11.333 38 -25.666 52 -42.999s24.333 -36 31 -56s9.33398 -40.667 8.00098 -62s-7 -41.666 -17 -60.999c-11.333 -20 -25.333 -37 -42 -51s-34.834 -24.333 -54.501 -31s-40.167 -9.33398 -61.5 -8.00098s-42.333 7 -63 17zM98 1094l1454 -787
c20.667 -11.333 38 -25.5 52 -42.5s24.333 -35.5 31 -55.5s9.33398 -40.667 8.00098 -62s-7 -41.666 -17 -60.999c-11.333 -20.667 -25.333 -38 -42 -52s-34.834 -24.333 -54.501 -31s-40.167 -9.33398 -61.5 -8.00098s-42.333 7 -63 17l-1307 680v402z" />
    <glyph glyph-name="greaterequal" unicode="&#x3e;&#x3d;" horiz-adv-x="1638" 
d="M238 586c-20.667 -10 -41.666 -15.666 -62.999 -16.999s-42 1.33398 -62 8.00098s-38.333 17 -55 31s-30.667 31 -42 51c-10 19.333 -15.667 39.666 -17 60.999s1.33398 42 8.00098 62s17 38.667 31 56s31.333 31.666 52 42.999l975 528l-975 496
c-20.667 11.333 -38 25.5 -52 42.5s-24.333 35.667 -31 56s-9.33398 41.333 -8.00098 63s7 42.834 17 63.5c11.333 20.667 25.666 38 42.999 52s36.166 24.333 56.499 31s41.333 9.33398 63 8c21.667 -1.33301 42.834 -7 63.501 -17l1302 -652v-286zM1544 692.001
l-1306 -680c-20.667 -10 -41.667 -15.667 -63 -17s-42 1.33398 -62 8.00098s-38.333 17 -55 31s-30.667 31.333 -42 52c-10 19.333 -15.667 39.666 -17 60.999s1.33398 42 8.00098 62s17 38.5 31 55.5s31.333 31.167 52 42.5l1454 787v-402z" />
    <glyph glyph-name="fongmanfunnuthai" unicode="&#xe4f;&#x22;" horiz-adv-x="2302" 
d="M2146 971c0 -90.667 -12 -178.334 -36 -263.001s-57.833 -164.167 -101.5 -238.5s-96.167 -142 -157.5 -203s-129 -113.5 -203 -157.5s-153.333 -78 -238 -102s-172.334 -36 -263.001 -36s-178.334 12 -263.001 36s-164.167 58 -238.5 102s-142 96.5 -203 157.5
s-113.5 128.667 -157.5 203s-78 153.833 -102 238.5s-36 172.334 -36 263.001s12 178.334 36 263.001s58 164 102 238s96.5 141.667 157.5 203s128.667 113.833 203 157.5s153.833 77.5 238.5 101.5s172.334 36 263.001 36s178.334 -12 263.001 -36s164 -57.833 238 -101.5
s141.667 -96.167 203 -157.5s113.833 -129 157.5 -203s77.5 -153.333 101.5 -238s36 -172.334 36 -263.001zM1651 971c0 -70 -13.167 -135.5 -39.5 -196.5s-62.333 -114.333 -108 -160s-99.167 -81.667 -160.5 -108s-126.666 -39.5 -195.999 -39.5
c-70 0 -135.5 13.167 -196.5 39.5s-114.333 62.333 -160 108s-81.667 99 -108 160s-39.5 126.5 -39.5 196.5c0 69.333 13.167 134.666 39.5 195.999s62.333 114.833 108 160.5s99 81.667 160 108s126.5 39.5 196.5 39.5c69.333 0 134.666 -13.167 195.999 -39.5
s114.833 -62.333 160.5 -108s81.667 -99.167 108 -160.5s39.5 -126.666 39.5 -195.999zM1868 954c0 66.667 -8.66699 131.335 -26 194.002s-41.833 121.334 -73.5 176.001s-69.5 104.5 -113.5 149.5s-92.833 83.667 -146.5 116s-111 57.5 -172 75.5s-124.167 27 -189.5 27
s-128.5 -8.66699 -189.5 -26s-118.333 -41.833 -172 -73.5s-102.5 -69.5 -146.5 -113.5s-81.833 -92.833 -113.5 -146.5s-56.167 -111 -73.5 -172s-26 -124.167 -26 -189.5s8.66699 -128.5 26 -189.5s41.833 -118.333 73.5 -172s69.5 -102.5 113.5 -146.5
s92.833 -81.833 146.5 -113.5s111 -56.167 172 -73.5s124.167 -26 189.5 -26s128.5 8.66699 189.5 26s118.333 41.666 172 72.999s102.5 68.666 146.5 111.999s81.833 91.166 113.5 143.499s56.167 108 73.5 167s26 119.833 26 182.5zM1380 971.001
c0 32 -6.16699 62 -18.5 90s-29.166 52.667 -50.499 74s-46 38.166 -74 50.499s-58 18.5 -90 18.5s-62.167 -6.16699 -90.5 -18.5s-53.166 -29.166 -74.499 -50.499s-38.166 -46 -50.499 -74s-18.5 -58 -18.5 -90s6.16699 -62.167 18.5 -90.5s29.166 -53.166 50.499 -74.499
s46.166 -38.166 74.499 -50.499s58.5 -18.5 90.5 -18.5s62 6.16699 90 18.5s52.667 29.166 74 50.499s38.166 46.166 50.499 74.499s18.5 58.5 18.5 90.5zM803 2593c-1.33301 18 1.83203 35.668 9.49902 53.001s18 32.666 31 45.999s28 24 45 32s34.833 12 53.5 12
s36.5 -4.16699 53.5 -12.5s32 -19.5 45 -33.5s23.167 -29.833 30.5 -47.5s10.666 -35.5 9.99902 -53.5l-32 -410c-2.66699 -32.667 -13.167 -60 -31.5 -82s-46.166 -33 -83.499 -33c-33.333 0 -59.666 11 -78.999 33s-30 49.333 -32 82zM1212 2593
c-1.33301 18 1.83398 35.667 9.50098 53s18 32.666 31 46c13 13.333 28.167 24 45.5 32s35.333 12 54 12c18 0 35.667 -4.16699 53 -12.5s32.5 -19.5 45.5 -33.5s23.167 -29.833 30.5 -47.5s10.666 -35.5 9.99902 -53.5l-33 -410c-2 -32.667 -12.333 -60 -31 -82
s-46.667 -33 -84 -33c-32.667 0 -58.667 11 -78 33s-30 49.333 -32 82z" />
    <glyph glyph-name="dochadaphinthuthai" unicode="&#xe0e;&#xe3a;" horiz-adv-x="2019" 
d="M1864 -311l-488.004 -451.002c-56 40 -107.833 73.333 -155.5 100s-92.667 48.167 -135 64.5s-83.166 27.833 -122.499 34.5s-79 10 -119 10s-79 -3.33301 -117 -10s-75.667 -16.5 -113 -29.5s-75.333 -29.167 -114 -48.5s-78.334 -42 -119.001 -68
c-20.667 -13.333 -42.667 -22 -66 -26s-46.166 -3.66699 -68.499 1s-43.666 13.667 -63.999 27s-37.5 30.666 -51.5 51.999c-13.333 20.667 -21.666 42.334 -24.999 65.001s-2.33301 44.834 3 66.501s14.666 42 27.999 61s30.333 35.167 51 48.5c52 34 104 64 156 90
s104.667 47.833 158 65.5s108.333 31 165 40s115.667 13.5 177 13.5c84.667 0 167.334 -8.33301 248.001 -25s159 -42.334 235 -77.001l139 131v1229c0 65.333 -12 125.333 -36 180s-58.333 101.667 -103 141s-98.5 70 -161.5 92s-133.5 33 -211.5 33
c-34 0 -67.833 -3.66699 -101.5 -11s-66.5 -17.833 -98.5 -31.5s-62.5 -30 -91.5 -49s-55.833 -40.5 -80.5 -64.5l98 -102v-1043c0 -27.333 -5.16699 -53 -15.5 -77s-24.5 -45 -42.5 -63s-39 -32.167 -63 -42.5s-49.667 -15.5 -77 -15.5h-236
c-26 0 -50.167 4.83301 -72.5 14.5s-41.833 22.834 -58.5 39.501s-29.834 36.167 -39.501 58.5s-14.5 46.166 -14.5 71.499c0 26 4.83301 50.333 14.5 73s22.834 42.667 39.501 60s36.167 31 58.5 41s46.5 15 72.5 15h37v758l-102 111c-18.667 20 -30.5 41.167 -35.5 63.5
s-6 44 -3 65s8.5 40.167 16.5 57.5s16 31.333 24 42c44.667 58 95.167 111.5 151.5 160.5s117 91 182 126s134 62.333 207 82s148.833 29.5 227.5 29.5c88.667 0 172.834 -9.16699 252.501 -27.5s153.334 -44.333 221.001 -78s128.5 -74.667 182.5 -123
s100.167 -102.666 138.5 -162.999s67.666 -125.666 87.999 -195.999s30.5 -144.833 30.5 -223.5v-1368zM1905 -1032c0 -32.667 -6.16602 -63.501 -18.499 -92.501s-29.166 -54.167 -50.499 -75.5s-46.166 -38.333 -74.499 -51s-58.5 -19 -90.5 -19
c-32.667 0 -63.334 6.16699 -92.001 18.5s-53.834 29.166 -75.501 50.499s-38.667 46.166 -51 74.499s-18.5 58.5 -18.5 90.5c0 32.667 6.16699 63.334 18.5 92.001s29.166 53.834 50.499 75.501s46 38.667 74 51s58 18.5 90 18.5c32.667 0 63.5 -6.16699 92.5 -18.5
s54.167 -29.166 75.5 -50.499s38.333 -46 51 -74s19 -58 19 -90z" />
    <glyph glyph-name="topatakphintuthai" unicode="&#xe0f;&#xe3a;" horiz-adv-x="2019" 
d="M1905 -1032c0 -32.667 -6.16602 -63.501 -18.499 -92.501s-29.166 -54.167 -50.499 -75.5s-46.166 -38.333 -74.499 -51s-58.5 -19 -90.5 -19c-32.667 0 -63.334 6.16699 -92.001 18.5s-53.834 29.166 -75.501 50.499s-38.667 46.166 -51 74.499s-18.5 58.5 -18.5 90.5
c0 32.667 6.16699 63.334 18.5 92.001s29.166 53.834 50.499 75.501s46 38.667 74 51s58 18.5 90 18.5c32.667 0 63.5 -6.16699 92.5 -18.5s54.167 -29.166 75.5 -50.499s38.333 -46 51 -74s19 -58 19 -90zM1864 -303.001l-533.003 -470.997l-319 287l-320 -287l-459 409
c-17.333 15.333 -30.5 33.166 -39.5 53.499s-14.167 41.166 -15.5 62.499s1.33398 42.666 8.00098 63.999s17 40.666 31 57.999c15.333 17.333 33.333 30.833 54 40.5s42 15.5 64 17.5s43.833 -0.166992 65.5 -6.5s41.167 -16.5 58.5 -30.5l246 -213l307 274l307 -274
l151 126v1246c0 65.333 -12.333 125.166 -37 179.499s-59.5 101 -104.5 140s-99.167 69.167 -162.5 90.5s-134 32 -212 32c-68 0 -134.667 -13.333 -200 -40s-122.666 -64 -171.999 -112l98 -102v-1043c0 -27.333 -5.16699 -53 -15.5 -77s-24.5 -45 -42.5 -63
s-39 -32.167 -63 -42.5s-49.667 -15.5 -77 -15.5h-236c-26 0 -50.167 4.83301 -72.5 14.5s-41.833 22.834 -58.5 39.501s-29.834 36.167 -39.501 58.5s-14.5 46.166 -14.5 71.499c0 26 4.83301 50.333 14.5 73s22.834 42.667 39.501 60s36.167 31 58.5 41s46.5 15 72.5 15
h37v758l-102 111c-18.667 20 -30.5 41.167 -35.5 63.5s-6 44 -3 65s8.5 40.167 16.5 57.5s16 31.333 24 42c44.667 58 95.167 111.5 151.5 160.5s117 91 182 126s134 62.333 207 82s148.833 29.5 227.5 29.5c88.667 0 172.834 -9.16699 252.501 -27.5
s153.334 -44.333 221.001 -78s128.5 -74.667 182.5 -123s100.167 -102.666 138.5 -162.999s67.666 -125.666 87.999 -195.999s30.5 -144.833 30.5 -223.5v-1360z" />
    <glyph glyph-name="dochadasarauthai" unicode="&#xe0e;&#xe38;" horiz-adv-x="2019" 
d="M1864 -1417c0 -26 -4.83203 -50.332 -14.499 -72.999s-22.834 -42.667 -39.501 -60s-36.167 -31 -58.5 -41s-46.5 -15 -72.5 -15c-25.333 0 -49.5 5 -72.5 15s-43 23.667 -60 41s-30.5 37.333 -40.5 60s-15 47 -15 73v221h-86c-25.333 0 -49.5 5 -72.5 15
s-43 23.5 -60 40.5s-30.5 37 -40.5 60s-15 47.167 -15 72.5c0 26 5 50.333 15 73s23.5 42.667 40.5 60s37 31 60 41s47.167 15 72.5 15h270c26 0 50.333 -4.83301 73 -14.5s42.667 -22.834 60 -39.501s31 -36.167 41 -58.5s15 -46.5 15 -72.5v-413zM1864 -310.999
l-488.004 -451.002c-56 40 -107.833 73.333 -155.5 100s-92.667 48.167 -135 64.5s-83.166 27.833 -122.499 34.5s-79 10 -119 10s-79 -3.33301 -117 -10s-75.667 -16.5 -113 -29.5s-75.333 -29.167 -114 -48.5s-78.334 -42 -119.001 -68
c-20.667 -13.333 -42.667 -22 -66 -26s-46.166 -3.66699 -68.499 1s-43.666 13.667 -63.999 27s-37.5 30.666 -51.5 51.999c-13.333 20.667 -21.666 42.334 -24.999 65.001s-2.33301 44.834 3 66.501s14.666 42 27.999 61s30.333 35.167 51 48.5c52 34 104 64 156 90
s104.667 47.833 158 65.5s108.333 31 165 40s115.667 13.5 177 13.5c84.667 0 167.334 -8.33301 248.001 -25s159 -42.334 235 -77.001l139 131v1229c0 65.333 -12 125.333 -36 180s-58.333 101.667 -103 141s-98.5 70 -161.5 92s-133.5 33 -211.5 33
c-34 0 -67.833 -3.66699 -101.5 -11s-66.5 -17.833 -98.5 -31.5s-62.5 -30 -91.5 -49s-55.833 -40.5 -80.5 -64.5l98 -102v-1043c0 -27.333 -5.16699 -53 -15.5 -77s-24.5 -45 -42.5 -63s-39 -32.167 -63 -42.5s-49.667 -15.5 -77 -15.5h-236
c-26 0 -50.167 4.83301 -72.5 14.5s-41.833 22.834 -58.5 39.501s-29.834 36.167 -39.501 58.5s-14.5 46.166 -14.5 71.499c0 26 4.83301 50.333 14.5 73s22.834 42.667 39.501 60s36.167 31 58.5 41s46.5 15 72.5 15h37v758l-102 111c-18.667 20 -30.5 41.167 -35.5 63.5
s-6 44 -3 65s8.5 40.167 16.5 57.5s16 31.333 24 42c44.667 58 95.167 111.5 151.5 160.5s117 91 182 126s134 62.333 207 82s148.833 29.5 227.5 29.5c88.667 0 172.834 -9.16699 252.501 -27.5s153.334 -44.333 221.001 -78s128.5 -74.667 182.5 -123
s100.167 -102.666 138.5 -162.999s67.666 -125.666 87.999 -195.999s30.5 -144.833 30.5 -223.5v-1368z" />
    <glyph glyph-name="topataksarauthai" unicode="&#xe0f;&#xe38;" horiz-adv-x="2019" 
d="M1864 -1417c0 -26 -4.83203 -50.332 -14.499 -72.999s-22.834 -42.667 -39.501 -60s-36.167 -31 -58.5 -41s-46.5 -15 -72.5 -15c-25.333 0 -49.5 5 -72.5 15s-43 23.667 -60 41s-30.5 37.333 -40.5 60s-15 47 -15 73v221h-86c-25.333 0 -49.5 5 -72.5 15
s-43 23.5 -60 40.5s-30.5 37 -40.5 60s-15 47.167 -15 72.5c0 26 5 50.333 15 73s23.5 42.667 40.5 60s37 31 60 41s47.167 15 72.5 15h270c26 0 50.333 -4.83301 73 -14.5s42.667 -22.834 60 -39.501s31 -36.167 41 -58.5s15 -46.5 15 -72.5v-413zM1864 -302.999
l-533.003 -470.997l-319 287l-320 -287l-459 409c-17.333 15.333 -30.5 33.166 -39.5 53.499s-14.167 41.166 -15.5 62.499s1.33398 42.666 8.00098 63.999s17 40.666 31 57.999c15.333 17.333 33.333 30.833 54 40.5s42 15.5 64 17.5s43.833 -0.166992 65.5 -6.5
s41.167 -16.5 58.5 -30.5l246 -213l307 274l307 -274l151 126v1246c0 65.333 -12.333 125.166 -37 179.499s-59.5 101 -104.5 140s-99.167 69.167 -162.5 90.5s-134 32 -212 32c-68 0 -134.667 -13.333 -200 -40s-122.666 -64 -171.999 -112l98 -102v-1043
c0 -27.333 -5.16699 -53 -15.5 -77s-24.5 -45 -42.5 -63s-39 -32.167 -63 -42.5s-49.667 -15.5 -77 -15.5h-236c-26 0 -50.167 4.83301 -72.5 14.5s-41.833 22.834 -58.5 39.501s-29.834 36.167 -39.501 58.5s-14.5 46.166 -14.5 71.499c0 26 4.83301 50.333 14.5 73
s22.834 42.667 39.501 60s36.167 31 58.5 41s46.5 15 72.5 15h37v758l-102 111c-18.667 20 -30.5 41.167 -35.5 63.5s-6 44 -3 65s8.5 40.167 16.5 57.5s16 31.333 24 42c44.667 58 95.167 111.5 151.5 160.5s117 91 182 126s134 62.333 207 82s148.833 29.5 227.5 29.5
c88.667 0 172.834 -9.16699 252.501 -27.5s153.334 -44.333 221.001 -78s128.5 -74.667 182.5 -123s100.167 -102.666 138.5 -162.999s67.666 -125.666 87.999 -195.999s30.5 -144.833 30.5 -223.5v-1360z" />
    <glyph glyph-name="dochadasarauuthai" unicode="&#xe0e;&#xe39;" horiz-adv-x="2019" 
d="M1319 -1249c0 -24.667 8.66504 -43.835 25.998 -57.502s37.333 -20.5 60 -20.5s42.667 6.83301 60 20.5s26 32.834 26 57.501v266c0 25.333 4.83301 49.166 14.5 71.499s22.834 41.833 39.501 58.5s36.167 29.834 58.5 39.501s46.166 14.5 71.499 14.5
c26 0 50.167 -4.83301 72.5 -14.5s41.833 -22.834 58.5 -39.501s29.834 -36.167 39.501 -58.5s14.5 -46.166 14.5 -71.499v-258c0 -61.333 -12.167 -117.5 -36.5 -168.5s-57.333 -94.667 -99 -131s-90.167 -64.5 -145.5 -84.5s-113.666 -30 -174.999 -30
c-60 0 -117.333 8 -172 24s-102.5 38.833 -143.5 68.5s-73.667 65.334 -98 107.001s-36.5 88.5 -36.5 140.5v123h-73c-26 0 -50.333 5 -73 15s-42.667 23.5 -60 40.5s-31 37 -41 60s-15 47.167 -15 72.5c0 26 5 50.167 15 72.5s23.667 41.833 41 58.5
s37.333 29.834 60 39.501s47 14.5 73 14.5h249c26 0 50.333 -4.83301 73 -14.5s42.667 -22.834 60 -39.501s31 -36.167 41 -58.5s15 -46.5 15 -72.5v-245zM1864 -311.001l-488.004 -451.002c-56 40 -107.833 73.333 -155.5 100s-92.667 48.167 -135 64.5
s-83.166 27.833 -122.499 34.5s-79 10 -119 10s-79 -3.33301 -117 -10s-75.667 -16.5 -113 -29.5s-75.333 -29.167 -114 -48.5s-78.334 -42 -119.001 -68c-20.667 -13.333 -42.667 -22 -66 -26s-46.166 -3.66699 -68.499 1s-43.666 13.667 -63.999 27
s-37.5 30.666 -51.5 51.999c-13.333 20.667 -21.666 42.334 -24.999 65.001s-2.33301 44.834 3 66.501s14.666 42 27.999 61s30.333 35.167 51 48.5c52 34 104 64 156 90s104.667 47.833 158 65.5s108.333 31 165 40s115.667 13.5 177 13.5
c84.667 0 167.334 -8.33301 248.001 -25s159 -42.334 235 -77.001l139 131v1229c0 65.333 -12 125.333 -36 180s-58.333 101.667 -103 141s-98.5 70 -161.5 92s-133.5 33 -211.5 33c-34 0 -67.833 -3.66699 -101.5 -11s-66.5 -17.833 -98.5 -31.5s-62.5 -30 -91.5 -49
s-55.833 -40.5 -80.5 -64.5l98 -102v-1043c0 -27.333 -5.16699 -53 -15.5 -77s-24.5 -45 -42.5 -63s-39 -32.167 -63 -42.5s-49.667 -15.5 -77 -15.5h-236c-26 0 -50.167 4.83301 -72.5 14.5s-41.833 22.834 -58.5 39.501s-29.834 36.167 -39.501 58.5
s-14.5 46.166 -14.5 71.499c0 26 4.83301 50.333 14.5 73s22.834 42.667 39.501 60s36.167 31 58.5 41s46.5 15 72.5 15h37v758l-102 111c-18.667 20 -30.5 41.167 -35.5 63.5s-6 44 -3 65s8.5 40.167 16.5 57.5s16 31.333 24 42c44.667 58 95.167 111.5 151.5 160.5
s117 91 182 126s134 62.333 207 82s148.833 29.5 227.5 29.5c88.667 0 172.834 -9.16699 252.501 -27.5s153.334 -44.333 221.001 -78s128.5 -74.667 182.5 -123s100.167 -102.666 138.5 -162.999s67.666 -125.666 87.999 -195.999s30.5 -144.833 30.5 -223.5v-1368z" />
    <glyph glyph-name="topataksarauuthai" unicode="&#xe0f;&#xe39;" horiz-adv-x="2019" 
d="M1319 -1249c0 -24.667 8.66602 -43.835 25.999 -57.502s37.333 -20.5 60 -20.5s42.667 6.83301 60 20.5s26 32.834 26 57.501v266c0 25.333 4.83301 49.166 14.5 71.499s22.834 41.833 39.501 58.5s36.167 29.834 58.5 39.501s46.166 14.5 71.499 14.5
c26 0 50.167 -4.83301 72.5 -14.5s41.833 -22.834 58.5 -39.501s29.834 -36.167 39.501 -58.5s14.5 -46.166 14.5 -71.499v-258c0 -61.333 -12.333 -117.5 -37 -168.5s-58 -94.667 -100 -131s-90.833 -64.5 -146.5 -84.5s-114.167 -30 -175.5 -30
c-60 0 -117.167 8 -171.5 24s-101.833 38.833 -142.5 68.5s-73 65.334 -97 107.001s-36 88.5 -36 140.5v123h-73c-26 0 -50.333 5 -73 15s-42.667 23.5 -60 40.5s-31 37 -41 60s-15 47.167 -15 72.5c0 26 5 50.167 15 72.5s23.667 41.833 41 58.5s37.333 29.834 60 39.501
s47 14.5 73 14.5h249c26 0 50.333 -4.83301 73 -14.5s42.667 -22.834 60 -39.501s31 -36.167 41 -58.5s15 -46.5 15 -72.5v-245zM1864 -303.001l-533.003 -470.997l-319 287l-320 -287l-459 409c-17.333 15.333 -30.5 33.166 -39.5 53.499s-14.167 41.166 -15.5 62.499
s1.33398 42.666 8.00098 63.999s17 40.666 31 57.999c15.333 17.333 33.333 30.833 54 40.5s42 15.5 64 17.5s43.833 -0.166992 65.5 -6.5s41.167 -16.5 58.5 -30.5l246 -213l307 274l307 -274l151 126v1246c0 65.333 -12.333 125.166 -37 179.499s-59.5 101 -104.5 140
s-99.167 69.167 -162.5 90.5s-134 32 -212 32c-68 0 -134.667 -13.333 -200 -40s-122.666 -64 -171.999 -112l98 -102v-1043c0 -27.333 -5.16699 -53 -15.5 -77s-24.5 -45 -42.5 -63s-39 -32.167 -63 -42.5s-49.667 -15.5 -77 -15.5h-236c-26 0 -50.167 4.83301 -72.5 14.5
s-41.833 22.834 -58.5 39.501s-29.834 36.167 -39.501 58.5s-14.5 46.166 -14.5 71.499c0 26 4.83301 50.333 14.5 73s22.834 42.667 39.501 60s36.167 31 58.5 41s46.5 15 72.5 15h37v758l-102 111c-18.667 20 -30.5 41.167 -35.5 63.5s-6 44 -3 65s8.5 40.167 16.5 57.5
s16 31.333 24 42c44.667 58 95.167 111.5 151.5 160.5s117 91 182 126s134 62.333 207 82s148.833 29.5 227.5 29.5c88.667 0 172.834 -9.16699 252.501 -27.5s153.334 -44.333 221.001 -78s128.5 -74.667 182.5 -123s100.167 -102.666 138.5 -162.999
s67.666 -125.666 87.999 -195.999s30.5 -144.833 30.5 -223.5v-1360z" />
    <glyph glyph-name=".notdef" horiz-adv-x="1696" 
d="M1729 1638v-57h24c19.333 0 29 12.333 29 37c0 2 -2.16699 5.83301 -6.5 11.5s-11.833 8.5 -22.5 8.5h-24zM1741 1577h-12v-57h-21v139h45c32.667 0 49 -13.667 49 -41c0 -18.667 -4.16699 -30.167 -12.5 -34.5s-17.833 -6.5 -28.5 -6.5l41 -57h-20zM1753 1499
c17.333 0 31.832 2.66797 43.499 8.00098s21 12.166 28 20.499s11.833 17.333 14.5 27s4 18.5 4 26.5c0 30.667 -7.16699 54.667 -21.5 72s-37.166 26 -68.499 26c-30.667 0 -54 -8.66699 -70 -26s-24 -41.333 -24 -72c0 -22.667 7.5 -42 22.5 -58s38.833 -24 71.5 -24z
M1753 1692c35.333 0 61.167 -10.833 77.5 -32.5s24.5 -47.834 24.5 -78.501c0 -11.333 -2 -22.5 -6 -33.5s-10.167 -21 -18.5 -30s-19 -16.333 -32 -22s-28.167 -8.5 -45.5 -8.5c-16 0 -30.667 2.83301 -44 8.5s-24.5 13 -33.5 22s-16 19 -21 30s-7.5 22.167 -7.5 33.5
c0 30.667 9.5 56.834 28.5 78.501s44.833 32.5 77.5 32.5zM823 1294c28.667 -2 61.3311 -4.99902 97.998 -8.99902s74.667 -9 114 -15s78.833 -12.833 118.5 -20.5s77 -16.167 112 -25.5s66.333 -19.333 94 -30s49.5 -22.334 65.5 -35.001
c-27.333 54 -63 102.167 -107 144.5s-92.833 78 -146.5 107s-110.667 51 -171 66s-120.833 22.5 -181.5 22.5c-46 0 -91.333 -4.33301 -136 -13s-87.5 -22 -128.5 -40s-79.333 -40.667 -115 -68s-67.5 -59.333 -95.5 -96c49.333 6 98.5 10.167 147.5 12.5
s98.167 3.5 147.5 3.5c30.667 0 61.334 -0.166992 92.001 -0.5s61.334 -1.5 92.001 -3.5zM1536 1618l-0.000976562 -582c-65.333 20.667 -135.833 40 -211.5 58s-155.167 33.667 -238.5 47s-169.666 23.833 -258.999 31.5s-180.666 11.5 -273.999 11.5
c-66 0 -130.667 -2 -194 -6s-127 -10.333 -191 -19c16 61.333 42 119.833 78 175.5s81.167 104.5 135.5 146.5s117.5 75.333 189.5 100s152 37 240 37c84.667 0 161.167 -9.5 229.5 -28.5s128 -42.5 179 -70.5s93.667 -57.833 128 -89.5s60.166 -60.5 77.499 -86.5
c0 -2 -0.166992 1.66699 -0.5 11s-0.5 22 -0.5 38s-0.333008 34.333 -1 55s-1 41.5 -1 62.5s-0.166992 41 -0.5 60s-0.5 35.167 -0.5 48.5h115zM626.996 520.002c0 22.667 -7.5 39.334 -22.5 50.001s-30.833 16 -47.5 16c-18.667 0 -35 -5.33301 -49 -16
s-21 -27.334 -21 -50.001s7 -38.5 21 -47.5s30.333 -13.5 49 -13.5c8 0 16.167 1 24.5 3s15.833 5.5 22.5 10.5s12.167 11.333 16.5 19s6.5 17.167 6.5 28.5zM130.996 569.002c0 63.333 12.501 119.334 37.501 168.001s57.833 89.334 98.5 122.001s87 57.334 139 74.001
s105 25 159 25s106.5 -7.33301 157.5 -22s96 -37.167 135 -67.5s70.333 -68.833 94 -115.5s35.5 -102.334 35.5 -167.001v-475h434v827h115v-934h-774v107h119v487c0 40.667 -8 76.5 -24 107.5s-38 56.667 -66 77s-61 35.666 -99 45.999s-79 15.5 -123 15.5
c-40.667 0 -80.167 -5.83301 -118.5 -17.5s-72.333 -28.5 -102 -50.5s-53.5 -49 -71.5 -81s-27 -68.333 -27 -109v-439l237 238c-7.33301 2.66699 -15.833 7.5 -25.5 14.5s-19 16 -28 27s-16.667 24.167 -23 39.5s-9.5 33.333 -9.5 54c0 49.333 15 88.333 45 117
s69.667 43 119 43c23.333 0 44.666 -4.33301 63.999 -13s35.833 -20.334 49.5 -35.001s24.167 -31.667 31.5 -51s11 -39.666 11 -60.999c0 -19.333 -2.16699 -36.333 -6.5 -51s-9.83301 -27.334 -16.5 -38.001s-13.5 -19.667 -20.5 -27l-18.5 -19l-204 -197l-92 -85.5
l-101 -98.5h-131v565z" />
    <glyph glyph-name="space" unicode=" " horiz-adv-x="1024" 
 />
    <glyph glyph-name="exclam" unicode="!" horiz-adv-x="881" 
d="M696 205c0 -36 -6.66699 -69 -20 -99s-31.666 -56 -54.999 -78s-50.666 -39 -81.999 -51s-65 -18 -101 -18s-69.667 6 -101 18s-58.666 29 -81.999 51s-41.666 48 -54.999 78s-20 63 -20 99s6.66699 69.167 20 99.5s31.666 56.666 54.999 78.999
s50.666 39.833 81.999 52.5s65 19 101 19s69.667 -6.33301 101 -19s58.666 -30.167 81.999 -52.5s41.666 -48.666 54.999 -78.999s20 -63.5 20 -99.5zM225 1270v696c0 30 5.5 58.167 16.5 84.5s26.167 49.333 45.5 69s41.833 35.167 67.5 46.5s53.5 17 83.5 17
s58.167 -5.66699 84.5 -17s49.333 -26.833 69 -46.5s35.167 -42.667 46.5 -69s17 -54.5 17 -84.5v-696l-41 -565c-2 -24.667 -7.5 -47.5 -16.5 -68.5s-21 -39.333 -36 -55s-32.833 -27.834 -53.5 -36.501s-44 -13 -70 -13c-24.667 0 -47 4.33301 -67 13
s-37.5 20.834 -52.5 36.501s-27 34 -36 55s-14.5 43.833 -16.5 68.5z" />
    <glyph glyph-name="quotedbl" unicode="&#x22;" horiz-adv-x="987" 
d="M98 2056c-1.33301 21.333 2.50293 42 11.5029 62s21.167 37.5 36.5 52.5s33.166 27 53.499 36s41.166 13.5 62.499 13.5s42.166 -4.5 62.499 -13.5s38.166 -21 53.499 -36s27.333 -32.5 36 -52.5s12.667 -40.667 12 -62l-29 -545c-1.33301 -18 -5.66602 -35 -12.999 -51
s-17.166 -30 -29.499 -42s-27 -21.333 -44 -28s-35.833 -10 -56.5 -10c-18.667 0 -35.834 3.33301 -51.501 10s-29.167 16 -40.5 28s-20.5 26 -27.5 42s-10.833 33 -11.5 51zM565.003 2056c-1.33301 21.333 2.50293 42 11.5029 62s21.167 37.5 36.5 52.5
s33.166 27 53.499 36s41.166 13.5 62.499 13.5s42.166 -4.5 62.499 -13.5s38.166 -21 53.499 -36s27.333 -32.5 36 -52.5s12.667 -40.667 12 -62l-29 -545c-1.33301 -18 -5.66602 -35 -12.999 -51s-17.166 -30 -29.499 -42s-27 -21.333 -44 -28s-35.833 -10 -56.5 -10
c-18.667 0 -35.834 3.33301 -51.501 10s-29.167 16 -40.5 28s-20.5 26 -27.5 42s-10.833 33 -11.5 51z" />
    <glyph glyph-name="numbersign" unicode="#" horiz-adv-x="1839" 
d="M840 1192l-40 -266h224l41 266h-225zM1237 119c-4 -22.667 -11.6689 -43.1602 -23.002 -61.4932s-25.166 -33.833 -41.499 -46.5s-34.666 -21.834 -54.999 -27.501s-41.833 -6.83398 -64.5 -3.50098c-22.667 4 -43.167 11.667 -61.5 23s-33.833 25.166 -46.5 41.499
s-22 34.666 -28 54.999s-7.33301 41.833 -4 64.5l66 426h-225l-66 -463c-4 -23.333 -11.833 -44.833 -23.5 -64.5s-26 -36.167 -43 -49.5s-35.833 -23 -56.5 -29s-42.334 -7.33301 -65.001 -4c-23.333 4 -44.833 12 -64.5 24s-36.167 26.5 -49.5 43.5s-23.166 36 -29.499 57
s-7.83301 42.167 -4.5 63.5l62 422h-156c-23.333 0 -45.333 4.33301 -66 13s-38.5 20.5 -53.5 35.5s-26.833 32.833 -35.5 53.5s-13 42.667 -13 66s4.33301 45.333 13 66s20.5 38.5 35.5 53.5s32.833 26.833 53.5 35.5s42.667 13 66 13h205l37 266h-164
c-23.333 0 -45.333 4.33301 -66 13s-38.5 20.5 -53.5 35.5s-26.833 32.833 -35.5 53.5s-13 42.667 -13 66s4.33301 45.333 13 66s20.5 38.5 35.5 53.5s32.833 26.833 53.5 35.5s42.667 13 66 13h209l61 422c4 23.333 12 44.666 24 63.999s26.667 35.666 44 48.999
s37 23 59 29s45.333 7.66699 70 5c23.333 -4 44.833 -12 64.5 -24s36.167 -26.833 49.5 -44.5s23 -37.5 29 -59.5s7.33301 -44.667 4 -68l-61 -373h229l62 422c4 23.333 11.833 44.666 23.5 63.999s26 35.666 43 48.999s36.333 23 58 29s44.167 7.66699 67.5 5
c23.333 -4 44.833 -12 64.5 -24s36.167 -26.667 49.5 -44s23 -36.666 29 -57.999s7.66699 -43.333 5 -66l-58 -377h123c23.333 0 45.333 -4.33301 66 -13s38.5 -20.5 53.5 -35.5s26.833 -32.833 35.5 -53.5s13 -42.667 13 -66s-4.33301 -45.333 -13 -66
s-20.5 -38.5 -35.5 -53.5s-32.833 -26.833 -53.5 -35.5s-42.667 -13 -66 -13h-176l-41 -266h148c23.333 0 45.166 -4.33301 65.499 -13s38 -20.5 53 -35.5s26.833 -32.833 35.5 -53.5s13 -42.667 13 -66s-4.33301 -45.333 -13 -66s-20.5 -38.5 -35.5 -53.5
s-32.667 -26.833 -53 -35.5s-42.166 -13 -65.499 -13h-201z" />
    <glyph glyph-name="dollar" unicode="$" horiz-adv-x="1753" 
d="M782 1823c-24.667 -8 -47.5 -18.668 -68.5 -32.001s-39.167 -29.333 -54.5 -48s-27.333 -40.334 -36 -65.001s-13 -53 -13 -85c0 -23.333 5.33301 -44.166 16 -62.499s24.334 -34.666 41.001 -48.999s35.167 -27 55.5 -38s40.166 -21.167 59.499 -30.5v410zM1286 646.999
c0 26 -7 49.667 -21 71s-31.5 41 -52.5 59s-43.667 34.167 -68 48.5l-67.5 38.5v-508c63.333 26.667 114 64 152 112s57 107.667 57 179zM1262 1614l-90.9951 97.0059c-29.333 30 -60.666 56.333 -93.999 79v-516l303 -135c52 -28.667 98.333 -59.834 139 -93.501
s75 -70.667 103 -111s49.333 -84.333 64 -132s22 -99.5 22 -155.5c0 -54 -7.5 -105.833 -22.5 -155.5s-36.167 -96.834 -63.5 -141.501s-60.333 -86.167 -99 -124.5s-81.334 -73 -128.001 -104s-96.834 -57.833 -150.501 -80.5s-109.5 -40.334 -167.5 -53.001v-205
c0 -20.667 -3.83301 -40 -11.5 -58s-18.167 -33.667 -31.5 -47s-28.833 -23.833 -46.5 -31.5s-36.834 -11.5 -57.501 -11.5s-40 3.83301 -58 11.5s-33.667 18.167 -47 31.5s-23.833 29 -31.5 47s-11.5 37.333 -11.5 58v184c-142 10.667 -268.833 53.5 -380.5 128.5
s-208.5 183.833 -290.5 326.5c-14.667 24.667 -23.5 50.167 -26.5 76.5s-0.666992 51.666 7 75.999s20 47.166 37 68.499s38.5 39 64.5 53c25.333 13.333 51.166 21.333 77.499 24s51.5 0.166992 75.5 -7.5s46.167 -19.834 66.5 -36.501s37.166 -37.334 50.499 -62.001
c40.667 -73.333 87.167 -135.333 139.5 -186s112.166 -84 179.499 -100v671l-186.5 81.5c-60.333 27 -118.166 60.167 -173.499 99.5c-34 23.333 -65 48.666 -93 75.999s-52 57.333 -72 90s-35.667 68.667 -47 108s-17 83 -17 131c0 78.667 14 152.334 42 221.001
s67.667 129.5 119 182.5s113.166 97 185.499 132s153.166 58.5 242.499 70.5v172c0 20.667 3.83301 40 11.5 58s18.167 33.667 31.5 47s29 23.833 47 31.5s37.333 11.5 58 11.5s39.834 -3.83301 57.501 -11.5s33.167 -18.167 46.5 -31.5s23.833 -29 31.5 -47
s11.5 -37.333 11.5 -58v-180c52 -11.333 101 -27 147 -47s89 -43.333 129 -70s77.167 -56 111.5 -88s66.5 -66 96.5 -102c16 -19.333 27.833 -41.333 35.5 -66s10.667 -49.667 9 -75s-7.83398 -50 -18.501 -74s-26.334 -45.333 -47.001 -64
c-20.667 -17.333 -43.5 -29.833 -68.5 -37.5s-50.167 -10.667 -75.5 -9s-49.666 7.83398 -72.999 18.501s-43.666 25.667 -60.999 45z" />
    <glyph glyph-name="percent" unicode="%" horiz-adv-x="2322" 
d="M1061 1683c0 -68.667 -13 -132.167 -39 -190.5s-61.5 -108.833 -106.5 -151.5s-97.833 -76.167 -158.5 -100.5s-126 -36.5 -196 -36.5c-69.333 0 -134.666 12.167 -195.999 36.5s-114.833 57.833 -160.5 100.5s-81.667 93.167 -108 151.5s-39.5 121.833 -39.5 190.5
c0 70 13 134.667 39 194s61.667 110.833 107 154.5s98.666 77.834 159.999 102.5c61.333 24.667 127.333 37 198 37c70 0 135.333 -12.333 196 -37s113.5 -58.834 158.5 -102.5c45 -43.667 80.5 -95.167 106.5 -154.5s39 -124 39 -194zM2257 475
c0 -69.333 -13.333 -133.333 -40 -192s-63 -109.334 -109 -152.001s-99.5 -75.834 -160.5 -99.501s-125.833 -35.5 -194.5 -35.5c-67.333 0 -131.5 11.833 -192.5 35.5s-114.5 56.834 -160.5 99.501s-82.667 93.334 -110 152.001s-41 122.667 -41 192
c0 70.667 13.333 135.667 40 195s63 110.333 109 153s99.5 75.834 160.5 99.501s125.833 35.5 194.5 35.5s133.5 -11.833 194.5 -35.5s114.5 -56.834 160.5 -99.501s82.333 -93.667 109 -153s40 -124.333 40 -195zM737 1683c0 24 -4.83301 46.167 -14.5 66.5
s-22.5 38 -38.5 53s-34.667 26.833 -56 35.5s-43.666 13 -66.999 13c-24.667 0 -47.667 -4.33301 -69 -13s-40 -20.5 -56 -35.5s-28.5 -32.667 -37.5 -53s-13.5 -42.5 -13.5 -66.5c0 -23.333 4.5 -45 13.5 -65s21.5 -37.333 37.5 -52s34.667 -26 56 -34s44.333 -12 69 -12
c23.333 0 45.666 4.5 66.999 13.5s40 21 56 36s28.833 32.333 38.5 52s14.5 40.167 14.5 61.5zM1933 475c0 23.333 -4.83301 45.5 -14.5 66.5s-22.667 39.333 -39 55s-35.333 28 -57 37s-44.834 13.5 -69.501 13.5s-47.667 -4.5 -69 -13.5s-40 -21.333 -56 -37
s-28.5 -34 -37.5 -55s-13.5 -43.167 -13.5 -66.5s4.5 -45 13.5 -65s21.5 -37.333 37.5 -52s34.667 -26.167 56 -34.5s44.333 -12.5 69 -12.5s47.834 4.16699 69.501 12.5s40.667 19.833 57 34.5s29.333 32 39 52s14.5 41.667 14.5 65zM1622 2220
c12 20.667 27.335 38 46.002 52s39 24 61 30s44.667 7.83301 68 5.5s45.666 -9.5 66.999 -21.5c21.333 -12.667 39 -28.5 53 -47.5s24 -39.667 30 -62s7.5 -45.333 4.5 -69s-10.5 -46.167 -22.5 -67.5l-1208 -2048c-11.333 -19.333 -26.166 -35.833 -44.499 -49.5
s-38.5 -23.5 -60.5 -29.5s-44.5 -7.66699 -67.5 -5s-44.833 10 -65.5 22c-19.333 10 -35.5 24.167 -48.5 42.5s-22.333 38.5 -28 60.5s-7.33398 44.5 -5.00098 67.5s9.16602 44.167 20.499 63.5z" />
    <glyph glyph-name="ampersand" unicode="&#x26;" horiz-adv-x="2269" 
d="M1561 295c-48 -42 -98.002 -82.9971 -150.002 -122.997s-106 -76.167 -162 -108.5s-114.333 -59.333 -175 -81s-123.667 -34.834 -189 -39.501c-90 -8 -175.5 1.5 -256.5 28.5s-152.667 67.167 -215 120.5s-113.5 117.166 -153.5 191.499s-64 154.5 -72 240.5
c-5.33301 59.333 -2.83301 115.5 7.5 168.5s26.333 103 48 150s48 91.667 79 134s64.667 82.333 101 120s74.333 73.667 114 108l117.5 98.5c-23.333 25.333 -45.5 52.166 -66.5 80.499s-39.667 58 -56 89s-30 63.667 -41 98s-17.833 70.5 -20.5 108.5
c-5.33301 68.667 3 134.5 25 197.5s54.167 119.167 96.5 168.5s93 89.5 152 120.5s123.5 49.167 193.5 54.5c70.667 5.33301 137.167 -2.83398 199.5 -24.501s117.333 -53 165 -94s86.167 -89.667 115.5 -146s46.666 -116.833 51.999 -181.5
c5.33301 -59.333 1.5 -114.5 -11.5 -165.5s-32 -98.5 -57 -142.5s-54.667 -84.5 -89 -121.5s-70.5 -71.5 -108.5 -103.5l352 -389l156 172c18.667 20.667 39.334 36.5 62.001 47.5s46 17.5 70 19.5s47.5 -1 70.5 -9s44.167 -20.667 63.5 -38
c20.667 -18 36.5 -38.333 47.5 -61s17.5 -46 19.5 -70s-0.833008 -47.667 -8.5 -71s-20.167 -44.666 -37.5 -63.999l-180 -213l282 -327c16.667 -18.667 28.667 -39.334 36 -62.001s10 -45.5 8 -68.5s-8.33301 -45.333 -19 -67s-25.667 -40.5 -45 -56.5
c-18.667 -16.667 -39.5 -28.667 -62.5 -36s-46.167 -10.166 -69.5 -8.49902s-45.666 7.5 -66.999 17.5s-39.666 24.333 -54.999 43zM1090 1741c-6.66699 39.333 -21.8311 68.8311 -45.498 88.498s-50.834 28.167 -81.501 25.5
c-12.667 -1.33301 -25.834 -6.16602 -39.501 -14.499s-26 -19.666 -37 -33.999s-19.667 -31 -26 -50s-7.83301 -39.167 -4.5 -60.5c0.666992 -15.333 4.5 -30.833 11.5 -46.5s15.5 -31 25.5 -46s20.333 -29.167 31 -42.5l30 -37l49 43c17.333 15.333 33 32 47 50
s24.833 37.333 32.5 58s10.167 42.667 7.5 66zM913.001 1012l-71.498 -54.499c-25.667 -19.667 -51.334 -40.834 -77.001 -63.501s-50.334 -46.5 -74.001 -71.5s-44 -51.167 -61 -78.5s-30 -55.666 -39 -84.999s-11.833 -59.333 -8.5 -90
c2.66699 -40.667 12 -77.5 28 -110.5s36.333 -61 61 -84s52.5 -40.167 83.5 -51.5s63.5 -15.333 97.5 -12c36 3.33301 72 12.333 108 27s72.333 34 109 58s74 51.667 112 83s77 65.666 117 102.999z" />
    <glyph glyph-name="quotesingle" unicode="'" horiz-adv-x="659" 
d="M164 2056c-1.33301 21.333 2.50293 42 11.5029 62s21.167 37.5 36.5 52.5s33.166 27 53.499 36s41.166 13.5 62.499 13.5s42.166 -4.5 62.499 -13.5s38.166 -21 53.499 -36s27.333 -32.5 36 -52.5s12.667 -40.667 12 -62l-29 -545c-1.33301 -18 -5.66602 -35 -12.999 -51
s-17.333 -30 -30 -42s-27.5 -21.333 -44.5 -28s-35.833 -10 -56.5 -10c-18 0 -34.833 3.33301 -50.5 10s-29.167 16 -40.5 28s-20.5 26 -27.5 42s-11.167 33 -12.5 51z" />
    <glyph glyph-name="parenleft" unicode="(" horiz-adv-x="971" 
d="M455 -348c-58.667 97.333 -111.335 197.496 -158.002 300.496s-86.167 207.833 -118.5 314.5s-57.166 214.834 -74.499 324.501s-26 219.834 -26 330.501c0 111.333 9.16699 219.666 27.5 324.999s44 208.333 77 309s72.333 199.334 118 296.001s95.834 192 150.501 286
c12 21.333 27.333 39.5 46 54.5s38.667 26.167 60 33.5s43.333 10.333 66 9s44.334 -7.66602 65.001 -19c22.667 -11.333 41.5 -26.333 56.5 -45s26 -39 33 -61s9.66699 -44.833 8 -68.5s-8.16699 -46.167 -19.5 -67.5c-40 -70.667 -78 -145.5 -114 -224.5
s-67.833 -162.333 -95.5 -250s-49.5 -180 -65.5 -277s-24 -198.5 -24 -304.5c0 -58.667 1.83301 -114.667 5.5 -168s9.33398 -105.333 17.001 -156s17.5 -100.667 29.5 -150s26 -99 42 -149c16.667 -49.333 34.167 -96.833 52.5 -142.5s36.666 -89 54.999 -130l52.5 -114.5
l45 -96c10 -21.333 15.833 -43.666 17.5 -66.999s-0.833008 -45.833 -7.5 -67.5s-17.334 -41.5 -32.001 -59.5s-33.334 -32.667 -56.001 -44c-19.333 -11.333 -40.166 -17.666 -62.499 -18.999s-44 1.66699 -65 9s-40.833 18.5 -59.5 33.5s-34 33.167 -46 54.5z" />
    <glyph glyph-name="parenright" unicode=")" horiz-adv-x="971" 
d="M532 -348c-12 -21.333 -27.3359 -39.4961 -46.0029 -54.4961s-38.5 -26.167 -59.5 -33.5s-42.667 -10.333 -65 -9s-43.166 7.66602 -62.499 18.999c-22.667 11.333 -41.334 26 -56.001 44s-25.334 37.833 -32.001 59.5s-9.16699 44.167 -7.5 67.5s7.5 45.666 17.5 66.999
l45 96l52.5 114.5c18.333 41 36.666 84.333 54.999 130s35.833 93.167 52.5 142.5c16.667 50 30.834 99.667 42.501 149s21.334 99.333 29.001 150s13.334 102.667 17.001 156s5.5 109.333 5.5 168c0 106 -8 207.5 -24 304.5s-37.833 189.333 -65.5 277s-59.5 171 -95.5 250
s-74 153.833 -114 224.5c-11.333 21.333 -17.833 43.833 -19.5 67.5s1 46.5 8 68.5s18 42.333 33 61s33.833 33.667 56.5 45c20.667 11.333 42.334 17.666 65.001 19c22.667 1.33301 44.667 -1.66699 66 -9s41.333 -18.5 60 -33.5s34.334 -33.167 47.001 -54.5
c54 -94 103.833 -189.333 149.5 -286s85 -195.334 118 -296.001s58.667 -203.667 77 -309s27.5 -213.666 27.5 -324.999c0 -110.667 -8.66699 -220.834 -26 -330.501s-42.333 -217.834 -75 -324.501s-72.167 -211.5 -118.5 -314.5s-98.833 -203.167 -157.5 -300.5z" />
    <glyph glyph-name="asterisk" unicode="*" horiz-adv-x="1442" 
d="M1147 1323c14 -19.333 23.6729 -40 29.0059 -62s6.5 -43.5 3.5 -64.5s-10 -41.167 -21 -60.5s-25.833 -36.333 -44.5 -51c-19.333 -14 -40 -23.667 -62 -29s-43.5 -6.5 -64.5 -3.5s-41.167 10 -60.5 21s-36 25.833 -50 44.5l-148 213l-160 -213
c-14 -18.667 -30.667 -33.5 -50 -44.5s-39.5 -18 -60.5 -21s-42.5 -1.83301 -64.5 3.5s-42.667 15 -62 29c-18.667 14.667 -33.5 31.667 -44.5 51s-18 39.5 -21 60.5s-1.83301 42.5 3.5 64.5s15 42.667 29 62l164 225l-246 74c-21.333 7.33301 -39.833 18.333 -55.5 33
s-27.834 31.5 -36.501 50.5s-13.667 39.333 -15 61s1.66699 43.167 9 64.5c8 21.333 19.5 40.5 34.5 57.5s31.833 30.667 50.5 41s38.667 16.666 60 18.999s42.666 0.166016 63.999 -6.50098l233 -82l-8 237c0 22.667 4.5 44.167 13.5 64.5s21.167 38.166 36.5 53.5
c15.333 15.333 33.166 27.5 53.499 36.5s41.833 13.5 64.5 13.5s44.167 -4.5 64.5 -13.5s38.166 -21.167 53.499 -36.5s27.5 -33.166 36.5 -53.5c9 -20.333 13.5 -41.833 13.5 -64.5l-4 -237l237 82c21.333 6.66699 42.666 8.83398 63.999 6.50098
s41.333 -8.66602 60 -18.999s35.5 -24 50.5 -41s26.5 -36.167 34.5 -57.5c7.33301 -21.333 10.333 -42.833 9 -64.5s-6.33301 -42 -15 -61s-20.834 -35.833 -36.501 -50.5s-34.167 -25.667 -55.5 -33l-250 -74z" />
    <glyph glyph-name="plus" unicode="+" horiz-adv-x="1618" 
d="M647 958v431c0 22.667 4.16699 43.834 12.5 63.501s19.666 36.834 33.999 51.501s31.166 26.334 50.499 35.001s40.333 13 63 13s43.834 -4.33301 63.501 -13s37 -20.334 52 -35.001s26.833 -31.834 35.5 -51.501s13 -40.834 13 -63.501v-431h430
c22.667 0 43.834 -4.33301 63.501 -13s37 -20.334 52 -35.001s26.833 -31.834 35.5 -51.501s13 -40.834 13 -63.501s-4.33301 -43.667 -13 -63s-20.5 -36.166 -35.5 -50.499s-32.333 -25.666 -52 -33.999s-40.834 -12.5 -63.501 -12.5h-430v-430
c0 -22.667 -4.33301 -43.834 -13 -63.501s-20.5 -37 -35.5 -52s-32.333 -26.833 -52 -35.5s-40.834 -13 -63.501 -13s-43.667 4.33301 -63 13s-36.166 20.5 -50.499 35.5s-25.666 32.333 -33.999 52s-12.5 40.834 -12.5 63.501v430h-430
c-22.667 0 -43.834 4.16699 -63.501 12.5s-37 19.666 -52 33.999s-26.833 31.166 -35.5 50.499s-13 40.333 -13 63s4.33301 43.834 13 63.501s20.5 36.834 35.5 51.501s32.333 26.334 52 35.001s40.834 13 63.501 13h430z" />
    <glyph glyph-name="comma" unicode="," horiz-adv-x="696" 
d="M254 -360c-12 -8 -25.167 -13.668 -39.5 -17.001s-28.666 -4 -42.999 -2s-27.833 6.66699 -40.5 14s-23.667 17 -33 29c-9.33301 13.333 -15.166 27.166 -17.499 41.499s-2 28.333 1 42s8.5 26.5 16.5 38.5s17.667 22 29 30l44 33c14 10.667 27.667 22.167 41 34.5
s26.5 25.833 39.5 40.5s26.167 31.667 39.5 51c-58 14.667 -103.333 40.334 -136 77.001s-49 80.667 -49 132c0 30 5.83301 58.833 17.5 86.5s28 52.167 49 73.5s45.667 38.333 74 51s59.5 19 93.5 19c44 0 82.167 -8.83301 114.5 -26.5s59.166 -40.167 80.499 -67.5
s37.166 -57.666 47.499 -90.999s15.5 -66 15.5 -98c0 -80.667 -29 -163.667 -87 -249s-143.667 -166 -257 -242z" />
    <glyph glyph-name="hyphen" unicode="-" horiz-adv-x="1176" 
d="M926 963c22.667 0 43.834 -4.33301 63.501 -13s37 -20.5 52 -35.5s26.833 -32.333 35.5 -52s13 -40.834 13 -63.501s-4.33301 -43.834 -13 -63.501s-20.5 -37 -35.5 -52s-32.333 -26.833 -52 -35.5s-40.834 -13 -63.501 -13h-676c-22.667 0 -43.834 4.33301 -63.501 13
s-37 20.5 -52 35.5s-26.833 32.333 -35.5 52s-13 40.834 -13 63.501s4.33301 43.834 13 63.501s20.5 37 35.5 52s32.333 26.833 52 35.5s40.834 13 63.501 13h676z" />
    <glyph glyph-name="period" unicode="." horiz-adv-x="696" 
d="M590 209c0 -34 -6.33301 -65.6641 -19 -94.9971s-29.834 -54.833 -51.501 -76.5s-47.167 -38.834 -76.5 -51.501s-61 -19 -95 -19s-65.667 6.33301 -95 19s-54.833 29.667 -76.5 51s-38.834 46.5 -51.501 75.5s-19 59.833 -19 92.5c0 34 6.33301 65.667 19 95
s29.834 54.833 51.501 76.5s47.167 38.667 76.5 51s61 18.5 95 18.5s65.667 -6.16699 95 -18.5s54.833 -29.333 76.5 -51s38.834 -46.834 51.501 -75.501s19 -59.334 19 -92.001z" />
    <glyph glyph-name="slash" unicode="/" horiz-adv-x="1942" 
d="M1397 2355c11.333 20.667 26.166 38.167 44.499 52.5s38.333 25 60 32s44 9.83301 67 8.5s44.833 -7.66602 65.5 -19c20.667 -11.333 38.167 -26.166 52.5 -44.5c14.333 -18.333 25 -38.5 32 -60.5s9.83301 -44.5 8.5 -67.5s-7.66602 -44.833 -18.999 -65.5l-1155 -2117
c-11.333 -20.667 -26.333 -38.167 -45 -52.5s-39 -24.833 -61 -31.5s-44.833 -9 -68.5 -7s-46.167 9 -67.5 21c-22.667 12 -41 27.667 -55 47s-24 40 -30 62s-7.66699 44.5 -5 67.5s9.66699 44.833 21 65.5z" />
    <glyph glyph-name="zero" unicode="0" horiz-adv-x="1761" 
d="M1675 1094c0 -89.333 -7.16797 -179.333 -21.501 -270s-36.166 -177.667 -65.499 -261s-65.833 -161.333 -109.5 -234s-95.167 -135.834 -154.5 -189.501s-126.166 -95.834 -200.499 -126.501s-156.5 -46 -246.5 -46s-172.333 15.333 -247 46
s-141.5 72.834 -200.5 126.501s-110.5 116.834 -154.5 189.501s-80.667 150.667 -110 234s-51.166 170.333 -65.499 261s-21.5 180.667 -21.5 270s7.33301 178.5 22 267.5s36.667 174.333 66 256s66 157.667 110 228s95.667 131.333 155 183s126.166 92.334 200.499 122
c74.333 29.667 156.166 44.5 245.499 44.5s171 -14.833 245 -44.5s140.667 -70.334 200 -122c59.333 -51.667 111 -112.667 155 -183s80.667 -146.333 110 -228s51.333 -167 66 -256s22 -178.167 22 -267.5zM1266 1094c0 68 -5.00098 133.001 -15.001 195.001
s-23.833 119.5 -41.5 172.5s-38.667 101 -63 144s-50.833 79.667 -79.5 110s-59.167 53.666 -91.5 69.999s-65.166 24.5 -98.499 24.5c-50 0 -98.667 -18.167 -146 -54.5s-89.333 -86.5 -126 -150.5s-66.167 -139.667 -88.5 -227s-33.5 -182 -33.5 -284
c0 -114.667 11.167 -218 33.5 -310s51.833 -170.333 88.5 -235s78.667 -114.334 126 -149.001s96 -52 146 -52s98.333 17.333 145 52s88.167 84.334 124.5 149.001s65.333 143 87 235s32.5 195.333 32.5 310z" />
    <glyph glyph-name="one" unicode="1" horiz-adv-x="1761" 
d="M1139 180c0 -28.667 -5.33105 -55.166 -15.998 -79.499s-25.167 -45.5 -43.5 -63.5s-40 -32 -65 -42s-51.833 -15 -80.5 -15s-55.334 5 -80.001 15s-46 24 -64 42s-32 39.167 -42 63.5s-15 50.833 -15 79.5v1598h-213c-26.667 0 -51.667 5 -75 15
s-43.666 23.667 -60.999 41s-31 37.666 -41 60.999s-15 48.333 -15 75s5 51.667 15 75s23.667 43.833 41 61.5s37.666 31.5 60.999 41.5s48.333 15 75 15h427c26.667 0 51.667 -5 75 -15s43.666 -23.833 60.999 -41.5s31 -38.167 41 -61.5s15 -48.333 15 -75v-1790z" />
    <glyph glyph-name="two" unicode="2" horiz-adv-x="1761" 
d="M345 0c-26 0 -50.668 4.99805 -74.001 14.998s-43.666 23.833 -60.999 41.5s-31 38.167 -41 61.5s-15 48 -15 74c0 26.667 4.83301 51.5 14.5 74.5s23.167 43.167 40.5 60.5l684 677c40.667 40.667 80.334 82.834 119.001 126.501s72.667 87.334 102 131.001
s53 86.334 71 128.001s27 80.834 27 117.501c0 44 -8.33301 84.833 -25 122.5s-39.667 70.167 -69 97.5s-63.666 48.833 -102.999 64.5s-81.333 23.5 -126 23.5c-44 0 -83.5 -7.33301 -118.5 -22s-65.167 -35.167 -90.5 -61.5s-46.333 -57.833 -63 -94.5
s-28.334 -77 -35.001 -121c-4 -28 -12.833 -53.5 -26.5 -76.5s-30.667 -42.5 -51 -58.5s-43.166 -27.833 -68.499 -35.5s-52 -9.83398 -80 -6.50098c-27.333 4 -52.833 12.833 -76.5 26.5s-43.667 30.667 -60 51s-28.333 43.166 -36 68.499s-8.83398 52 -3.50098 80
c5.33301 29.333 13 62 23 98s23.333 72.833 40 110.5s37 75.167 61 112.5s52.333 72.333 85 105c34 34 70.667 63.5 110 88.5s80.333 45.667 123 62s86.5 28.666 131.5 36.999s90.167 12.5 135.5 12.5c67.333 0 132.166 -8 194.499 -24s120.5 -38.667 174.5 -68
s103.167 -64.833 147.5 -106.5s82.166 -88.167 113.499 -139.5s55.666 -106.833 72.999 -166.5s26 -122.167 26 -187.5c0 -51.333 -6.16699 -101.166 -18.5 -149.499s-29 -94.833 -50 -139.5s-45.167 -87.667 -72.5 -129s-56.166 -80.666 -86.499 -117.999
s-61.166 -72.5 -92.499 -105.5l-90 -91.5l-393 -389h627c25.333 0 49.5 -5 72.5 -15s43 -23.667 60 -41s30.5 -37.333 40.5 -60s15 -47 15 -73c0 -26.667 -5 -51.334 -15 -74.001s-23.5 -42.5 -40.5 -59.5s-37 -30.333 -60 -40s-47.167 -14.5 -72.5 -14.5h-1097z" />
    <glyph glyph-name="three" unicode="3" horiz-adv-x="1761" 
d="M193 532c-5.33301 28.667 -4.81738 55.8291 1.51562 81.4961s17.166 48.5 32.499 68.5s34.5 36.667 57.5 50s48.167 22 75.5 26c28.667 2.66699 55.667 0.666992 81 -6s47.833 -17.5 67.5 -32.5s36.167 -33.5 49.5 -55.5s22.666 -46.667 27.999 -74
c6.66699 -34 17.167 -65.667 31.5 -95s32.666 -54.833 54.999 -76.5s49.333 -38.834 81 -51.501s68.5 -19 110.5 -19c44 0 84.5 7.66699 121.5 23s69 36.833 96 64.5s48 60.167 63 97.5s22.5 78 22.5 122c0 36 -4 71 -12 105s-23.667 64.667 -47 92
s-56.833 50.333 -100.5 69s-100.834 31 -171.501 37c-24.667 2 -45.167 10.833 -61.5 26.5s-28.333 34.834 -36 57.501s-11.5 47 -11.5 73s4.16699 50.5 12.5 73.5s20.5 42.833 36.5 59.5s36 26.667 60 30c65.333 9.33301 117.666 23.666 156.999 42.999s69.5 42 90.5 68
s34.833 54.667 41.5 86s10 64 10 98c0 36.667 -6.16699 69.667 -18.5 99s-29.333 54.166 -51 74.499s-47.5 36 -77.5 47s-63 16.5 -99 16.5c-32.667 0 -62.334 -5.16699 -89.001 -15.5s-49.834 -24.833 -69.501 -43.5s-35.834 -41 -48.501 -67s-21.667 -55 -27 -87
c-5.33301 -28.667 -14.833 -54.334 -28.5 -77.001s-30.5 -41.5 -50.5 -56.5s-42.833 -26 -68.5 -33s-52.834 -8.83301 -81.501 -5.5c-28.667 4 -54.834 12.833 -78.501 26.5s-43.167 30.834 -58.5 51.501s-26.333 44 -33 70s-7.33398 53.333 -2.00098 82
c13.333 74.667 36.166 144.834 68.499 210.501s75 122.834 128 171.501s116.167 87.167 189.5 115.5s157.666 42.5 252.999 42.5c59.333 0 116.666 -7 171.999 -21s107 -33.833 155 -59.5s92 -57.167 132 -94.5s74.167 -79.166 102.5 -125.499s50.333 -96.833 66 -151.5
s23.5 -112.667 23.5 -174c0 -86.667 -15.333 -166.5 -46 -239.5s-78 -139.5 -142 -199.5c72 -63.333 126.833 -134.666 164.5 -213.999s56.5 -163.333 56.5 -252c0 -95.333 -16.167 -185.166 -48.5 -269.499s-79 -158.166 -140 -221.499s-135.333 -113.5 -223 -150.5
s-186.834 -55.5 -297.501 -55.5c-90.667 0 -177.334 15.5 -260.001 46.5s-157 78.5 -223 142.5c-32 32 -59 64.833 -81 98.5s-40.333 67 -55 100s-26.5 64.667 -35.5 95s-15.833 57.833 -20.5 82.5z" />
    <glyph glyph-name="four" unicode="4" horiz-adv-x="1761" 
d="M1032 1368l-446 -623h446v623zM209 356c-26 0 -50.168 5 -72.501 15s-42 23.833 -59 41.5s-30.333 38.167 -40 61.5s-14.5 48.333 -14.5 75c0 42.667 11.333 80 34 112l1011 1425c19.333 26.667 43.333 47.834 72 63.501s60.334 23.5 95.001 23.5
c28.667 0 55.5 -5.5 80.5 -16.5s46.833 -25.833 65.5 -44.5s33.5 -40.5 44.5 -65.5s16.5 -51.833 16.5 -80.5v-1221h82c26.667 0 51.834 -5.16699 75.501 -15.5s44.5 -24.5 62.5 -42.5s32.167 -38.833 42.5 -62.5s15.5 -48.834 15.5 -75.501s-5.16699 -51.667 -15.5 -75
s-24.5 -43.833 -42.5 -61.5s-38.833 -31.5 -62.5 -41.5s-48.834 -15 -75.501 -15h-82v-172c0 -28.667 -5.33301 -55.334 -16 -80.001s-25.167 -46.167 -43.5 -64.5s-40 -32.833 -65 -43.5s-51.833 -16 -80.5 -16s-55.5 5.33301 -80.5 16s-46.667 25.167 -65 43.5
s-32.833 39.833 -43.5 64.5s-16 51.334 -16 80.001v172h-823z" />
    <glyph glyph-name="five" unicode="5" horiz-adv-x="1761" 
d="M274 1970c0 26.667 4.99609 51.6719 14.9961 75.0049s23.667 43.833 41 61.5s37.666 31.5 60.999 41.5s48.333 15 75 15h849c26.667 0 51.667 -5 75 -15s43.666 -23.833 60.999 -41.5s31 -38.167 41 -61.5s15 -48.333 15 -75s-5 -51.334 -15 -74.001
s-23.667 -42.5 -41 -59.5s-37.666 -30.333 -60.999 -40s-48.333 -14.5 -75 -14.5h-631v-246c30.667 6 61.167 10.833 91.5 14.5s59.833 5.5 88.5 5.5c76.667 0 149.834 -9.33301 219.501 -28s134.334 -45 194.001 -79s113.667 -74.833 162 -122.5
s89.666 -100.5 123.999 -158.5s60.833 -120.333 79.5 -187s28 -135.667 28 -207c0 -78.667 -10.167 -153.167 -30.5 -223.5s-49 -135.333 -86 -195s-81.333 -113.5 -133 -161.5s-108.834 -88.833 -171.501 -122.5s-129.667 -59.5 -201 -77.5s-145.333 -27 -222 -27
c-70.667 0 -138.167 8.66699 -202.5 26s-125.166 42 -182.499 74s-111 70.833 -161 116.5s-96 96.5 -138 152.5c-16 21.333 -27 44.666 -33 69.999s-7 50.166 -3 74.499s12.5 47.5 25.5 69.5s30.167 40.667 51.5 56c22.667 16.667 46.834 28.167 72.501 34.5
s51 7.66602 76 3.99902s48.833 -11.834 71.5 -24.501s42.334 -29.667 59.001 -51c58 -76 118 -131.833 180 -167.5s124.667 -53.5 188 -53.5c61.333 0 118.5 10.333 171.5 31s99 49.834 138 87.501s69.667 82.834 92 135.501s33.5 111.334 33.5 176.001
c0 55.333 -11.5 107.166 -34.5 155.499s-54 90.5 -93 126.5s-84.167 64.333 -135.5 85s-105.666 31 -162.999 31c-32.667 0 -68.167 -1.83301 -106.5 -5.5s-80.666 -11.334 -126.999 -23.001s-96.833 -28.334 -151.5 -50.001s-115 -50.5 -181 -86.5v959z" />
    <glyph glyph-name="six" unicode="6" horiz-adv-x="1761" 
d="M946 1573c68.667 -5.33301 134.332 -19.3271 196.999 -41.9941s121 -52.334 175 -89.001s102.667 -79.334 146 -128.001s80.333 -101.834 111 -159.501s54.334 -119 71.001 -184s25 -131.833 25 -200.5c0 -71.333 -9.33301 -140.5 -28 -207.5
s-44.834 -130.333 -78.501 -190s-74.334 -114.334 -122.001 -164.001s-100.667 -92.334 -159 -128.001s-121.166 -63.5 -188.499 -83.5s-137.333 -30 -210 -30c-73.333 0 -143.666 9.66699 -210.999 29s-130.166 46.333 -188.499 81s-111.333 76.5 -159 125.5
s-88.334 103.333 -122.001 163s-59.834 123.667 -78.501 192s-28 139.166 -28 212.499c0 48 3.5 93.833 10.5 137.5s17.167 85.5 30.5 125.5s29.666 78.833 48.999 116.5s41.333 75.167 66 112.5l614 905c16.667 24.667 36.167 44.334 58.5 59
c22.333 14.667 45.833 24.5 70.5 29.5s50 4.83301 76 -0.5s50.667 -15.666 74 -31c24.667 -16 44.334 -35.167 59.001 -57.5s24.5 -45.833 29.5 -70.5s4.83301 -50 -0.5 -76s-15.666 -50.667 -30.999 -74zM1266 770.006c0 59.333 -10.667 114.5 -32 165.5
s-49.666 95.167 -84.999 132.5s-76 66.666 -122 87.999s-93.333 32 -142 32c-49.333 0 -96.666 -10.167 -141.999 -30.5s-85.5 -49 -120.5 -86s-62.833 -81.167 -83.5 -132.5s-31 -107.666 -31 -168.999s10.333 -117.666 31 -168.999s48.5 -95.5 83.5 -132.5
s75.167 -65.667 120.5 -86s92.666 -30.5 141.999 -30.5c48.667 0 96 10.667 142 32s86.667 50.666 122 87.999s63.666 81.5 84.999 132.5s32 106.167 32 165.5z" />
    <glyph glyph-name="seven" unicode="7" horiz-adv-x="1761" 
d="M1411 2163c34 0 65.832 -6.49902 95.499 -19.499s55.667 -30.667 78 -53s40 -48.333 53 -78s19.5 -61.5 19.5 -95.5c0 -21.333 -2.83301 -42.333 -8.5 -63s-13.5 -39.667 -23.5 -57l-978 -1715c-14 -24.667 -31.667 -45 -53 -61s-44.5 -27.5 -69.5 -34.5
s-50.667 -9.16699 -77 -6.5s-51.166 10.667 -74.499 24c-24.667 14 -45.167 31.833 -61.5 53.5s-27.833 45 -34.5 70s-8.66699 50.5 -6 76.5s10.667 51 24 75l864 1499h-856c-26.667 0 -51.667 5 -75 15s-43.666 23.667 -60.999 41s-31 37.666 -41 60.999s-15 48.333 -15 75
s5 51.667 15 75s23.667 43.833 41 61.5s37.666 31.5 60.999 41.5s48.333 15 75 15h1108z" />
    <glyph glyph-name="eight" unicode="8" horiz-adv-x="1761" 
d="M1589 627c0 -63.333 -8.83594 -123.665 -26.5029 -180.998s-42.167 -110.5 -73.5 -159.5s-69 -93.167 -113 -132.5s-92.167 -72.833 -144.5 -100.5s-108.166 -49 -167.499 -64s-120.333 -22.5 -183 -22.5s-123.834 7.5 -183.501 22.5s-115.667 36.333 -168 64
s-100.5 61.167 -144.5 100.5s-81.667 83.5 -113 132.5s-55.833 102.167 -73.5 159.5s-26.5 117.666 -26.5 180.999c0 209.333 73.667 377 221 503c-60 62 -104.333 127.833 -133 197.5s-43 144.5 -43 224.5c0 91.333 16.833 176.166 50.5 254.499
s80.334 146.333 140.001 204s130 102.834 211 135.5c81 32.667 168.5 49 262.5 49s181.333 -16.333 262 -49s150.834 -77.834 210.501 -135.501s106.334 -125.667 140.001 -204s50.5 -163.166 50.5 -254.499c0 -80 -14.333 -154.833 -43 -224.5s-73 -135.5 -133 -197.5
c147.333 -125.333 221 -293 221 -503zM1184 639.001c0 40 -8.16504 77.1641 -24.498 111.497s-38.333 64.333 -66 90s-59.834 45.667 -96.501 60s-75.334 21.5 -116.001 21.5c-41.333 0 -80.333 -7.16699 -117 -21.5s-68.667 -34.333 -96 -60s-49.166 -55.667 -65.499 -90
s-24.5 -71.5 -24.5 -111.5s8.16699 -77.667 24.5 -113s38.166 -66.166 65.499 -92.499s59.333 -47.166 96 -62.499s75.667 -23 117 -23c40 0 78.167 7.83301 114.5 23.5s68.5 36.834 96.5 63.501s50.333 57.5 67 92.5s25 72.167 25 111.5zM1142 1556
c0 36.667 -7.16699 70.668 -21.5 102.001s-33.5 58.5 -57.5 81.5s-51.833 41 -83.5 54s-64.5 19.5 -98.5 19.5c-36.667 0 -70.834 -6.5 -102.501 -19.5s-59.334 -31 -83.001 -54s-42.167 -50.167 -55.5 -81.5s-20 -65.333 -20 -102c0 -36 6.66699 -69.167 20 -99.5
s31.833 -56.5 55.5 -78.5s51.334 -39.167 83.001 -51.5s65.834 -18.5 102.501 -18.5c36 0 70 6.5 102 19.5s59.667 30.667 83 53s41.833 48.666 55.5 78.999s20.5 62.5 20.5 96.5z" />
    <glyph glyph-name="nine" unicode="9" horiz-adv-x="1761" 
d="M811 586c-69.333 5.33301 -135.166 19.332 -197.499 41.999s-120.5 52.167 -174.5 88.5s-102.667 78.833 -146 127.5s-80.333 101.834 -111 159.501s-54.334 119.167 -71.001 184.5s-25 132.333 -25 201c0 70.667 9.33301 139.667 28 207s44.834 130.666 78.501 189.999
s74.334 113.833 122.001 163.5s100.667 92.334 159 128.001s121.166 63.5 188.499 83.5s137.333 30 210 30c73.333 0 143.666 -9.5 210.999 -28.5s130.166 -46 188.499 -81s111.333 -77 159 -126s88.334 -103.167 122.001 -162.5s59.834 -123.166 78.501 -191.499
s28 -139.166 28 -212.499c0 -48 -3.5 -93.833 -10.5 -137.5s-17.167 -85.667 -30.5 -126s-29.666 -79.333 -48.999 -117s-41.333 -74.834 -66 -111.501l-614 -905c-16.667 -24.667 -36 -44.334 -58 -59.001s-45.5 -24.5 -70.5 -29.5s-50.333 -5 -76 0
s-50.5 15.167 -74.5 30.5c-24.667 16.667 -44.334 36.167 -59.001 58.5s-24.334 45.833 -29.001 70.5s-4.5 50 0.5 76s15.167 50.667 30.5 74zM492 1389c0 -59.333 10.667 -114.501 32 -165.501s49.5 -95.167 84.5 -132.5s75.333 -66.666 121 -87.999s93.167 -32 142.5 -32
s96.666 10.167 141.999 30.5s85.5 49 120.5 86s62.833 81.167 83.5 132.5s31 107.666 31 168.999s-10.333 117.5 -31 168.5s-48.5 95 -83.5 132s-75.167 65.667 -120.5 86s-92.666 30.5 -141.999 30.5s-96.833 -10.667 -142.5 -32s-86 -50.666 -121 -87.999
s-63.167 -81.333 -84.5 -132s-32 -105.667 -32 -165z" />
    <glyph glyph-name="colon" unicode=":" horiz-adv-x="696" 
d="M590 1245c0 -34 -6.33594 -65.6699 -19.0029 -95.0029s-29.667 -54.833 -51 -76.5s-46.5 -38.667 -75.5 -51s-59.833 -18.5 -92.5 -18.5c-34 0 -65.667 6.16699 -95 18.5s-54.833 29.333 -76.5 51s-38.667 46.834 -51 75.501s-18.5 59.334 -18.5 92.001
c0 34 6.16699 65.667 18.5 95s29.333 54.833 51 76.5s46.834 38.834 75.501 51.501s59.334 19 92.001 19c34 0 65.667 -6.33301 95 -19s54.833 -29.667 76.5 -51s38.834 -46.5 51.501 -75.5s19 -59.833 19 -92.5zM589.997 212.997c0 -34 -6.33594 -65.666 -19.0029 -94.999
s-29.667 -54.833 -51 -76.5s-46.5 -38.834 -75.5 -51.501s-59.833 -19 -92.5 -19c-34 0 -65.667 6.33301 -95 19s-54.833 29.667 -76.5 51s-38.667 46.5 -51 75.5s-18.5 59.833 -18.5 92.5c0 34 6.16699 65.667 18.5 95s29.333 54.833 51 76.5s46.834 38.834 75.501 51.501
s59.334 19 92.001 19c34 0 65.667 -6.33301 95 -19s54.833 -29.834 76.5 -51.501s38.834 -47.167 51.501 -76.5s19 -61 19 -95v4z" />
    <glyph glyph-name="semicolon" unicode=";" horiz-adv-x="696" 
d="M586 1241c0 -34 -6.33301 -65.667 -19 -95s-29.834 -54.833 -51.501 -76.5s-47.167 -38.834 -76.5 -51.501s-61 -19 -95 -19c-32.667 0 -63.5 6.33301 -92.5 19s-54.167 29.834 -75.5 51.501s-38.333 47.167 -51 76.5s-19 61 -19 95s6.33301 65.667 19 95
s29.667 54.833 51 76.5s46.5 38.834 75.5 51.501s59.833 19 92.5 19c34 0 65.667 -6.33301 95 -19s54.833 -29.834 76.5 -51.501s38.834 -47.167 51.501 -76.5s19 -61 19 -95zM254 -360c-12 -8 -25.167 -13.668 -39.5 -17.001s-28.666 -4 -42.999 -2
s-27.833 6.66699 -40.5 14s-23.667 17 -33 29c-9.33301 13.333 -15.166 27.166 -17.499 41.499s-2 28.333 1 42s8.5 26.5 16.5 38.5s17.667 22 29 30l44 33c14 10.667 27.667 22.167 41 34.5s26.5 25.833 39.5 40.5s26.167 31.667 39.5 51
c-58 14.667 -103.333 40.334 -136 77.001s-49 80.667 -49 132c0 30 5.83301 58.833 17.5 86.5s28 52.167 49 73.5s45.667 38.333 74 51s59.5 19 93.5 19c44 0 82.167 -8.83301 114.5 -26.5s59.166 -40.167 80.499 -67.5s37.166 -57.666 47.499 -90.999s15.5 -66 15.5 -98
c0 -80.667 -29 -163.667 -87 -249s-143.667 -166 -257 -242z" />
    <glyph glyph-name="less" unicode="&#x3c;" horiz-adv-x="1741" 
d="M207 634c-36 18.667 -64.834 45.666 -86.501 80.999s-32.5 75 -32.5 119s11.333 84 34 120s52.667 63.333 90 82l1189 594c20.667 10 41.834 15.667 63.501 17s42.667 -1.33398 63 -8.00098s39 -17 56 -31s31.167 -31.333 42.5 -52c10 -20 15.667 -41 17 -63
s-1.33398 -43 -8.00098 -63s-17 -38.667 -31 -56s-31.333 -31.666 -52 -42.999l-974 -495l974 -529c20.667 -11.333 38 -25.5 52 -42.5s24.333 -35.5 31 -55.5s9.33398 -40.667 8.00098 -62s-7 -41.666 -17 -60.999c-11.333 -20.667 -25.333 -38 -42 -52
s-35 -24.5 -55 -31.5s-40.667 -9.83301 -62 -8.5s-42 7.33301 -62 18z" />
    <glyph glyph-name="equal" unicode="=" horiz-adv-x="1630" 
d="M1397 1208c22.667 0 43.834 -4.33301 63.501 -13s37 -20.334 52 -35.001s26.833 -32 35.5 -52s13 -41.333 13 -64s-4.33301 -43.834 -13 -63.501s-20.5 -36.834 -35.5 -51.501s-32.333 -26.334 -52 -35.001s-40.834 -13 -63.501 -13h-1159c-22.667 0 -44 4.33301 -64 13
s-37.333 20.334 -52 35.001s-26.334 31.834 -35.001 51.501s-13 40.834 -13 63.501s4.33301 44 13 64s20.334 37.333 35.001 52s32 26.334 52 35.001s41.333 13 64 13h1159zM1397 709c22.667 0 43.834 -4.33301 63.501 -13s37 -20.5 52 -35.5s26.833 -32.333 35.5 -52
s13 -40.834 13 -63.501s-4.33301 -43.834 -13 -63.501s-20.5 -37 -35.5 -52s-32.333 -26.833 -52 -35.5s-40.834 -13 -63.501 -13h-1159c-22.667 0 -44 4.33301 -64 13s-37.333 20.5 -52 35.5s-26.334 32.333 -35.001 52s-13 40.834 -13 63.501s4.33301 43.834 13 63.501
s20.334 37 35.001 52s32 26.833 52 35.5s41.333 13 64 13h1159z" />
    <glyph glyph-name="greater" unicode="&#x3e;" horiz-adv-x="1741" 
d="M340 12c-20 -10.667 -40.668 -16.666 -62.001 -17.999s-42 1.5 -62 8.5s-38.333 17.5 -55 31.5s-30.667 31.333 -42 52c-10 19.333 -15.667 39.666 -17 60.999s1.33398 42 8.00098 62s17 38.5 31 55.5s31.333 31.167 52 42.5l974 529l-974 495
c-20.667 11.333 -38 25.666 -52 42.999s-24.333 36 -31 56s-9.33398 41 -8.00098 63s7 43 17 63c11.333 20.667 25.5 38 42.5 52s35.667 24.333 56 31s41.333 9.33398 63 8.00098s42.834 -7 63.501 -17l1189 -594c37.333 -18.667 67.333 -46 90 -82s34 -76 34 -120
s-10.833 -83.667 -32.5 -119s-50.5 -62.333 -86.5 -81z" />
    <glyph glyph-name="question" unicode="?" horiz-adv-x="1475" 
d="M999 184c0 -36 -6.33301 -69.167 -19 -99.5s-30 -56.666 -52 -78.999s-48.167 -39.833 -78.5 -52.5s-63.5 -19 -99.5 -19s-69.333 6.33301 -100 19s-57 30.167 -79 52.5s-39.333 48.666 -52 78.999s-19 63.5 -19 99.5s6.33301 69.333 19 100s30 57 52 79
s48.333 39.333 79 52s64 19 100 19c34 0 66 -6.33301 96 -19s56.333 -30 79 -52s40.667 -48.333 54 -79s20 -64 20 -100zM74 1561c-4.66699 42 -1.84082 87.834 8.49219 137.501s27.833 99.5 52.5 149.5s56 97.833 94 143.5s82.167 85.667 132.5 120.001
c50.333 34.333 106.166 60.833 167.499 79.5s128 25.667 200 21c99.333 0 189.5 -16.167 270.5 -48.5s150.333 -76.166 208 -131.499s102.334 -120.5 134.001 -195.5s47.5 -154.833 47.5 -239.5c0 -57.333 -7.16699 -109.333 -21.5 -156s-33 -89.334 -56 -128.001
s-49 -73.834 -78 -105.501s-57.833 -61.5 -86.5 -89.5c-19.333 -19.333 -41.166 -40 -65.499 -62s-47.166 -45.167 -68.499 -69.5s-39.166 -49.833 -53.499 -76.5s-21.5 -54.334 -21.5 -83.001v-114c0 -26 -5 -50.333 -15 -73s-23.5 -42.667 -40.5 -60s-37 -31 -60 -41
s-47.167 -15 -72.5 -15c-26 0 -50.333 5 -73 15s-42.667 23.667 -60 41s-31 37.333 -41 60s-15 47 -15 73v123c0 50 6.33301 95.667 19 137s29.334 79.5 50.001 114.5s44.334 67.5 71.001 97.5s53.834 58.5 81.501 85.5l81.5 79c26.667 25.667 50.334 51.667 71.001 78
s37.334 53.833 50.001 82.5s19 59.334 19 92.001c0 27.333 -5.16699 55.166 -15.5 83.499s-26.5 53.833 -48.5 76.5s-50.333 41.167 -85 55.5s-76.667 21.5 -126 21.5s-91.166 -7.66699 -125.499 -23s-62.333 -35.666 -84 -60.999s-37.667 -54.833 -48 -88.5
s-15.833 -68.834 -16.5 -105.501c-1.33301 -26.667 -7 -51.5 -17 -74.5s-23.667 -43 -41 -60s-37.5 -30.333 -60.5 -40s-47.833 -14.5 -74.5 -14.5s-50.834 4.83301 -72.501 14.5s-40.5 23 -56.5 40s-29 37 -39 60s-16.667 47.833 -20 74.5z" />
    <glyph glyph-name="at" unicode="@" horiz-adv-x="2359" 
d="M1430 1298c2.66699 9.33301 1 23.833 -5 43.5s-17 39.334 -33 59.001s-37.5 37 -64.5 52s-59.833 22.5 -98.5 22.5c-35.333 0 -70.5 -7.83301 -105.5 -23.5s-68.167 -37 -99.5 -64s-60.5 -58.667 -87.5 -95s-50.333 -74.833 -70 -115.5s-35.167 -82.5 -46.5 -125.5
s-17 -84.833 -17 -125.5c0 -32 3.16699 -61 9.5 -87s17.5 -48.333 33.5 -67s37.333 -33.167 64 -43.5s60.667 -15.5 102 -15.5c32 0 64 7.66699 96 23s62 35.166 90 59.499s53 51.5 75 81.5s38.667 60 50 90zM2220 262l-36.001 -35.502c-16 -15.667 -36.667 -33.667 -62 -54
s-55.833 -42.166 -91.5 -65.499s-77.5 -46.666 -125.5 -69.999c-93.333 -43.333 -191.833 -76 -295.5 -98s-205.834 -33 -306.501 -33c-115.333 0 -226.333 12.5 -333 37.5s-206.334 61.333 -299.001 109s-177 106 -253 175s-141 147.333 -195 235
s-95.833 184.167 -125.5 289.5s-44.5 218 -44.5 338c0 105.333 14 206.666 42 303.999s67.333 188 118 272s111.334 160.333 182.001 229s149 127.334 235 176.001s178 86.334 276 113c98 26.667 200 40 306 40c99.333 0 194.833 -10.833 286.5 -32.5
s177.334 -52.5 257.001 -92.5s152.334 -88.667 218.001 -146s122 -121.833 169 -193.5s83.333 -149.834 109 -234.501s38.5 -174 38.5 -268c0 -79.333 -10.167 -156 -30.5 -230s-48.166 -143.5 -83.5 -208.5c-35.333 -65 -77.166 -124.333 -125.5 -178
c-48.333 -53.667 -100.166 -99.667 -155.499 -138s-113.333 -68.166 -174 -89.499s-121 -32 -181 -32c-40 0 -74.167 4.33301 -102.5 13s-52.166 20 -71.499 34s-35 29.5 -47 46.5s-21.667 33.5 -29 49.5c-57.333 -30.667 -112.666 -52.667 -165.999 -66
s-105.666 -20 -156.999 -20c-74 0 -139 12.5 -195 37.5s-103 58.833 -141 101.5s-66.667 92.5 -86 149.5s-29 117.833 -29 182.5c0 62 7.16699 126 21.5 192s35.5 130.167 63.5 192.5s62.667 121.333 104 177s89.333 104.5 144 146.5s115.667 75.167 183 99.5
s141 36.5 221 36.5c101.333 0 198.333 -34 291 -102l8 20c5.33301 16.667 14 31.5 26 44.5s25.667 23.5 41 31.5s31.5 13 48.5 15s33.167 0.333008 48.5 -5c17.333 -5.33301 32.833 -13.833 46.5 -25.5s24.5 -25.334 32.5 -41.001s12.667 -32.334 14 -50.001
s-1 -34.834 -7 -51.501l-4 -12l-43 -115.5c-16.667 -45 -35.334 -100 -56.001 -165s-43.5 -141.5 -68.5 -229.5s-52.5 -191 -82.5 -309c-3.33301 -9.33301 -6.16602 -20.166 -8.49902 -32.499s-3 -24 -2 -35s4.66699 -20.333 11 -28s17.166 -11.5 32.499 -11.5
c28.667 0 59.167 8.66699 91.5 26s64.5 40.833 96.5 70.5s62.5 64.5 91.5 104.5s54.667 82.833 77 128.5s40.166 92.834 53.499 141.501s20 96.667 20 144c0 68.667 -10.333 133.334 -31 194.001s-49.5 116.5 -86.5 167.5s-80.5 96.667 -130.5 137
s-104.167 74.5 -162.5 102.5s-119.833 49.5 -184.5 64.5s-129.667 22.5 -195 22.5c-82 0 -160.833 -11 -236.5 -33s-146.5 -52.667 -212.5 -92s-126 -86.333 -180 -141s-100.333 -114.834 -139 -180.501s-68.5 -135.5 -89.5 -209.5s-31.5 -150.333 -31.5 -229
c0 -89.333 11.5 -173.666 34.5 -252.999s55.667 -152.333 98 -219s93 -126.5 152 -179.5s124.667 -98 197 -135s150.166 -65.333 233.499 -85s170 -29.5 260 -29.5c65.333 0 131.666 5.5 198.999 16.5s132.5 28.5 195.5 52.5s122.833 54.667 179.5 92s107 82 151 134
c12 15.333 26.5 26.166 43.5 32.499s34.667 9 53 8s36.166 -5.33301 53.5 -13c17.333 -7.66699 32.666 -18.167 46 -31.5c13.333 -13.333 23 -28.666 29 -45.999s8.66699 -35 8 -53s-4.83398 -35.5 -12.5 -52.5c-7.66699 -17 -18.5 -32.167 -32.5 -45.5z" />
    <glyph glyph-name="A" unicode="A" horiz-adv-x="2060" 
d="M1032 1425l-196 -471h393zM874 2082c12.667 30.667 33.5029 55.5 62.5029 74.5s61.833 28.5 98.5 28.5c37.333 0 70.5 -9.5 99.5 -28.5s49.833 -43.833 62.5 -74.5l753 -1824c10.667 -26.667 16.167 -53.167 16.5 -79.5s-4.16699 -51.166 -13.5 -74.499
s-23.333 -44.333 -42 -63s-41.334 -33.667 -68.001 -45c-24.667 -11.333 -49.834 -17.166 -75.501 -17.499s-50.167 4.33398 -73.5 14.001s-44.5 23.667 -63.5 42s-34.167 40.833 -45.5 67.5l-201 484h-704l-201 -484c-11.333 -26.667 -26.5 -49.167 -45.5 -67.5
s-40.333 -32.333 -64 -42s-48.667 -14.334 -75 -14.001s-52.166 6.16602 -77.499 17.499c-26.667 11.333 -49.167 26.333 -67.5 45s-32.333 39.667 -42 63s-14.334 48.166 -14.001 74.499s6.16602 52.833 17.499 79.5z" />
    <glyph glyph-name="B" unicode="B" horiz-adv-x="1655" 
d="M156 1958c0 28.667 4.99902 55.499 14.999 80.499s24 46.667 42 65s39.167 32.833 63.5 43.5s50.833 16 79.5 16h353c102 0 196.5 -12.167 283.5 -36.5s162.333 -62.333 226 -114s113.334 -117.5 149.001 -197.5s53.5 -175.667 53.5 -287
c0 -137.333 -36.667 -253.333 -110 -348c90.667 -58 161 -131.833 211 -221.5s75 -189.5 75 -299.5c0 -76.667 -10.167 -146 -30.5 -208s-48.333 -117.5 -84 -166.5s-78 -91.333 -127 -127s-102.333 -65.167 -160 -88.5s-118.5 -40.666 -182.5 -51.999
s-128.667 -17 -194 -17h-463c-28.667 -0 -55.167 5.33301 -79.5 16s-45.5 25.167 -63.5 43.5s-32 40 -42 65s-15 51.833 -15 80.5v1753zM1012 1544c0 44.667 -6.66699 82.333 -20 113s-34.333 55.167 -63 73.5s-65.167 31.5 -109.5 39.5s-97.833 12 -160.5 12h-98v-479h98
c57.333 0 108 2.83301 152 8.5s80.833 17 110.5 34s52.167 41.333 67.5 73s23 73.5 23 125.5zM1188 654.998c0 52 -10.667 97.166 -32 135.499s-51.666 65.5 -90.999 81.5c-20.667 11.333 -43.834 20.333 -69.501 27s-53.5 11.667 -83.5 15s-61.667 5.5 -95 6.5
s-68 1.5 -104 1.5h-152v-545h180c74 0 138.833 4.66699 194.5 14s102.167 24.833 139.5 46.5s65.5 50.334 84.5 86.001s28.5 79.5 28.5 131.5z" />
    <glyph glyph-name="C" unicode="C" horiz-adv-x="1978" 
d="M1839 180c-54 -36.667 -107.333 -68.3301 -160 -94.9971s-105.834 -48.834 -159.501 -66.501s-108.834 -30.667 -165.501 -39s-116 -12.5 -178 -12.5c-102 0 -200.833 13.333 -296.5 40s-185.667 64.167 -270 112.5s-161.666 106.333 -231.999 174
s-130.666 142.5 -180.999 224.5s-89.5 170.167 -117.5 264.5s-42 192.5 -42 294.5c0 103.333 13.833 202.666 41.5 297.999s66.5 184.333 116.5 267s110 158 180 226s147.333 126.167 232 174.5s175.334 85.833 272.001 112.5s197 40 301 40
c114.667 0 226 -17.167 334 -51.5s216.333 -89.5 325 -165.5c21.333 -15.333 39 -33.5 53 -54.5s23.667 -43.5 29 -67.5s5.66602 -48.333 0.999023 -73s-14.667 -48.334 -30 -71.001c-14 -22.667 -31.667 -41.167 -53 -55.5s-44 -24.166 -68 -29.499s-48.5 -5.5 -73.5 -0.5
s-48.833 15.833 -71.5 32.5c-30 23.333 -64.5 45 -103.5 65s-79.333 36.833 -121 50.5s-82.5 23.834 -122.5 30.501s-76 8.33398 -108 5.00098c-65.333 0 -128.833 -9 -190.5 -27s-119.667 -43.333 -174 -76s-104.166 -71.834 -149.499 -117.501
s-84.166 -96.167 -116.499 -151.5s-57.5 -114.5 -75.5 -177.5s-27 -128.167 -27 -195.5c0 -62 9.16699 -122.833 27.5 -182.5s43.833 -116 76.5 -169s71.667 -101.833 117 -146.5s95.166 -83.334 149.499 -116.001s112.166 -58 173.499 -76s124.333 -27 189 -27
c36 0 71.667 2.5 107 7.5s71.5 13.5 108.5 25.5s75.167 27.667 114.5 47s81 43.333 125 72c23.333 15.333 47.666 25.333 72.999 30s50 4.66699 74 0s46.333 -14.167 67 -28.5s38 -32.833 52 -55.5c15.333 -22.667 25.333 -46.334 30 -71.001
s4.33398 -48.834 -0.999023 -72.501s-15 -46.167 -29 -67.5s-31.667 -39.666 -53 -54.999z" />
    <glyph glyph-name="D" unicode="D" horiz-adv-x="1864" 
d="M647 2163c113.333 0 221.165 -11.167 323.498 -33.5s197.166 -55 284.499 -98s166.333 -95.667 237 -158s130.834 -133.833 180.501 -214.5s87.834 -169.667 114.501 -267s40 -202.333 40 -315c0 -110.667 -13.667 -214 -41 -310s-66.166 -184 -116.499 -264
s-111 -151.167 -182 -213.5s-150.167 -115 -237.5 -158s-181.833 -75.667 -283.5 -98s-208.167 -33.5 -319.5 -33.5h-291c-28.667 -0 -55.167 5.33301 -79.5 16s-45.5 25.167 -63.5 43.5s-32 40 -42 65s-15 51.833 -15 80.5v1753c0 28.667 5 55.5 15 80.5s24 46.667 42 65
s39.167 32.833 63.5 43.5s50.833 16 79.5 16h291zM1417 1077c0 107.333 -18.667 204.33 -56 290.997s-89.833 160.334 -157.5 221.001s-149 107.334 -244 140.001s-200.5 49 -316.5 49h-82v-1397h82c114.667 0 219.5 16.333 314.5 49s176.5 79.167 244.5 139.5
s120.833 133.333 158.5 219s56.5 181.834 56.5 288.501z" />
    <glyph glyph-name="E" unicode="E" horiz-adv-x="1470" 
d="M356 0c-28.667 0 -55.167 5.33203 -79.5 15.999s-45.5 25.167 -63.5 43.5s-32 40 -42 65s-15 51.833 -15 80.5v1753c0 28.667 5 55.5 15 80.5s24 46.667 42 65s39.167 32.833 63.5 43.5s50.833 16 79.5 16h848c26.667 0 51.667 -5 75 -15s43.833 -23.833 61.5 -41.5
s31.5 -38.167 41.5 -61.5s15 -48.333 15 -75s-5 -51.667 -15 -75s-23.833 -43.666 -41.5 -60.999s-38.167 -31 -61.5 -41s-48.333 -15 -75 -15h-643v-418h619c26.667 0 51.667 -5 75 -15s43.666 -23.833 60.999 -41.5s31 -38.167 41 -61.5s15 -48.333 15 -75
c0 -25.333 -5 -49.5 -15 -72.5s-23.667 -43 -41 -60s-37.666 -30.5 -60.999 -40.5s-48.333 -15 -75 -15h-619v-598h647c26 0 50.333 -5 73 -15s42.667 -23.833 60 -41.5s31 -38.167 41 -61.5s15 -48.333 15 -75c0 -25.333 -5 -49.5 -15 -72.5s-23.667 -43 -41 -60
s-37.333 -30.5 -60 -40.5s-47 -15 -73 -15h-852z" />
    <glyph glyph-name="F" unicode="F" horiz-adv-x="1290" 
d="M156 1958c0 28.667 5 55.5 15 80.5s24 46.667 42 65s39.167 32.833 63.5 43.5s50.833 16 79.5 16h717c26.667 0 51.667 -5 75 -15s43.833 -23.833 61.5 -41.5s31.5 -38.167 41.5 -61.5s15 -48.333 15 -75c0 -25.333 -5 -49.5 -15 -72.5s-23.833 -43 -41.5 -60
s-38.167 -30.5 -61.5 -40.5s-48.333 -15 -75 -15h-512v-422h496c26.667 0 51.667 -5 75 -15s43.666 -23.833 60.999 -41.5s31 -38.167 41 -61.5s15 -48.333 15 -75c0 -25.333 -5 -49.5 -15 -72.5s-23.667 -43 -41 -60s-37.666 -30.5 -60.999 -40.5s-48.333 -15 -75 -15h-496
v-795c0 -28.667 -5.33301 -55.334 -16 -80.001s-25.167 -46.167 -43.5 -64.5s-40 -32.833 -65 -43.5s-51.833 -16 -80.5 -16s-55.167 5.33301 -79.5 16s-45.5 25.167 -63.5 43.5s-32 39.833 -42 64.5s-15 51.334 -15 80.001v1774z" />
    <glyph glyph-name="G" unicode="G" horiz-adv-x="2363" 
d="M2318 1081c0 -102 -12.665 -200.169 -37.998 -294.502s-61.333 -182.833 -108 -265.5s-103.334 -158 -170.001 -226s-141.167 -126.333 -223.5 -175s-171.833 -86.334 -268.5 -113.001s-198.667 -40 -306 -40c-106 0 -208 13.333 -306 40s-189.667 64.334 -275 113.001
s-163 107 -233 175s-130 143.333 -180 226s-88.667 171.167 -116 265.5s-41 192.5 -41 294.5s13.667 200.333 41 295s66 183.167 116 265.5s110 157.5 180 225.5s147.667 126.333 233 175s177 86.334 275 113.001s200 40 306 40c99.333 0 193.666 -11.167 282.999 -33.5
s173.666 -54.5 252.999 -96.5s153.833 -93 223.5 -153s134.834 -127.333 195.501 -202c16 -22.667 27.167 -47 33.5 -73s7.83301 -51.833 4.5 -77.5s-11.333 -50 -24 -73s-29.667 -42.833 -51 -59.5c-22.667 -16 -46.834 -27 -72.501 -33s-51.167 -7 -76.5 -3
s-49.666 12.5 -72.999 25.5s-43.666 30.167 -60.999 51.5c-44 54 -89.5 101.833 -136.5 143.5s-96.5 76.667 -148.5 105s-107 49.666 -165 63.999s-119.667 21.5 -185 21.5c-68.667 0 -135 -8.66699 -199 -26s-123.667 -41.833 -179 -73.5s-105.833 -69.5 -151.5 -113.5
s-84.667 -92.667 -117 -146s-57.5 -110.666 -75.5 -171.999s-27 -124.666 -27 -189.999s9 -128.5 27 -189.5s43.167 -118.333 75.5 -172s71.333 -102.5 117 -146.5s96.167 -81.833 151.5 -113.5s115 -56.167 179 -73.5s130.333 -26 199 -26c82.667 0 161 13 235 39
s141 62.167 201 108.5s111.667 101.666 155 165.999s75.666 134.833 96.999 211.5h-655c-26.667 0 -52 5.16699 -76 15.5s-45 24.5 -63 42.5s-32.167 38.833 -42.5 62.5s-15.5 48.834 -15.5 75.501s5.16699 52 15.5 76s24.5 45 42.5 63s39 32.167 63 42.5
s49.333 15.5 76 15.5h884c26.667 0 52 -5.16699 76 -15.5s45 -24.5 63 -42.5s32.167 -39 42.5 -63s15.5 -49.333 15.5 -76z" />
    <glyph glyph-name="H" unicode="H" horiz-adv-x="2032" 
d="M1880 164c0 -28.667 -5.33301 -54.334 -16 -77.001s-25.167 -42 -43.5 -58s-40 -28.167 -65 -36.5s-51.833 -12.5 -80.5 -12.5c-30 0 -57.5 5.33301 -82.5 16s-46.5 25.167 -64.5 43.5s-32.167 39.833 -42.5 64.5s-15.5 51.334 -15.5 80.001v791h-905v-791
c0 -28.667 -5.33301 -55.334 -16 -80.001s-25.167 -46.167 -43.5 -64.5s-40 -32.833 -65 -43.5s-51.833 -16 -80.5 -16s-55.167 5.33301 -79.5 16s-45.5 25.167 -63.5 43.5s-32 39.833 -42 64.5s-15 51.334 -15 80.001v1794c0 28.667 5 55.5 15 80.5s24 46.667 42 65
s39.167 32.833 63.5 43.5s50.833 16 79.5 16s55.5 -5.33301 80.5 -16s46.667 -25.167 65 -43.5s32.833 -40 43.5 -65s16 -51.833 16 -80.5v-618h905v618c0 28.667 5.16699 55.5 15.5 80.5s24.5 46.667 42.5 65s39.5 32.833 64.5 43.5s52.5 16 82.5 16
c28.667 0 55.5 -5.33301 80.5 -16s46.667 -25.167 65 -43.5s32.833 -40 43.5 -65s16 -51.833 16 -80.5v-1814z" />
    <glyph glyph-name="I" unicode="I" horiz-adv-x="762" 
d="M176 1974c0 28.667 5 55.667 15 81s24 47.5 42 66.5s39.333 34 64 45s51.334 16.5 80.001 16.5c30 0 57.667 -5.5 83 -16.5s47.333 -26 66 -45s33.334 -41.167 44.001 -66.5s16 -52.333 16 -81v-1786c0 -28.667 -5.33301 -55.5 -16 -80.5s-25.334 -47 -44.001 -66
s-40.667 -34 -66 -45s-53 -16.5 -83 -16.5c-28.667 0 -55.334 5.5 -80.001 16.5s-46 26 -64 45s-32 41 -42 66s-15 51.833 -15 80.5v1786z" />
    <glyph glyph-name="J" unicode="J" horiz-adv-x="762" 
d="M-242 -455c-20.667 17.333 -36.6641 37.834 -47.9971 61.501s-18 48.167 -20 73.5s0.666992 50.5 8 75.5s19.333 47.833 36 68.5c17.333 20.667 36.833 36.667 58.5 48s44 18.166 67 20.499s46 -0.166992 69 -7.5s44.5 -19.333 64.5 -36
c11.333 -9.33301 24.166 -16.5 38.499 -21.5s31.166 -7.5 50.499 -7.5c13.333 0 25.833 2.33301 37.5 7s22 11.334 31 20.001s16.167 18.667 21.5 30s8 23.666 8 36.999v2060c0 28.667 5 55.667 15 81s24 47.5 42 66.5s39.333 34 64 45s51.334 16.5 80.001 16.5
c30 0 57.667 -5.5 83 -16.5s47.333 -26 66 -45s33.334 -41.167 44.001 -66.5s16 -52.333 16 -81v-2060c0 -66.667 -13.167 -129.5 -39.5 -188.5s-62.5 -110.667 -108.5 -155s-99.833 -79.333 -161.5 -105s-127.834 -38.5 -198.501 -38.5c-36 0 -69.167 3.16699 -99.5 9.5
s-58.833 14.833 -85.5 25.5s-51.334 23.167 -74.001 37.5s-44.334 29.5 -65.001 45.5z" />
    <glyph glyph-name="K" unicode="K" horiz-adv-x="1659" 
d="M561 766v-582.004c0 -27.333 -5.33301 -53.333 -16 -78s-25.167 -46.334 -43.5 -65.001s-40 -33.5 -65 -44.5s-51.833 -16.5 -80.5 -16.5s-55.167 5.5 -79.5 16.5s-45.5 25.833 -63.5 44.5s-32 40.334 -42 65.001s-15 50.667 -15 78v1794c0 28 5 54.333 15 79
s24 46.334 42 65c18 18.667 39.167 33.5 63.5 44.5s50.833 16.5 79.5 16.5s55.5 -5.5 80.5 -16.5s46.667 -25.833 65 -44.5s32.833 -40.334 43.5 -65c10.667 -24.667 16 -51 16 -79v-508l688 656c20.667 19.333 43 33.833 67 43.5s48.167 14.334 72.5 14
c24.333 -0.333008 48.166 -5.66602 71.499 -16c23.333 -10.333 44.666 -25.5 63.999 -45.5c18.667 -20 32.5 -42 41.5 -66s13.333 -48.333 13 -73s-5.83301 -49 -16.5 -73s-26 -46.333 -46 -67l-754 -725l819 -794c20.667 -20.667 36.167 -43.167 46.5 -67.5
s15.833 -49.166 16.5 -74.499s-3.66602 -50.166 -12.999 -74.499s-23.333 -46.5 -42 -66.5c-19.333 -20 -40.666 -35.167 -63.999 -45.5s-47.5 -15.666 -72.5 -15.999s-49.667 4.33398 -74 14.001s-46.833 24.167 -67.5 43.5z" />
    <glyph glyph-name="L" unicode="L" horiz-adv-x="1114" 
d="M344 0c-25.333 0 -49.5 5 -72.5 15s-43 23.5 -60 40.5s-30.5 37 -40.5 60s-15 47.167 -15 72.5v1790c0 28 5 54.333 15 79s24 46.334 42 65c18 18.667 39.167 33.5 63.5 44.5s50.833 16.5 79.5 16.5s55.5 -5.5 80.5 -16.5s46.667 -25.833 65 -44.5
s32.833 -40.334 43.5 -65c10.667 -24.667 16 -51 16 -79v-1601h332c25.333 0 49.5 -5 72.5 -15s43 -23.667 60 -41s30.5 -37.333 40.5 -60s15 -47 15 -73c0 -25.333 -5 -49.5 -15 -72.5s-23.5 -43 -40.5 -60s-37 -30.5 -60 -40.5s-47.167 -15 -72.5 -15h-549z" />
    <glyph glyph-name="M" unicode="M" horiz-adv-x="2617" 
d="M1867 2070c12.667 30.667 32.8311 55.5 60.498 74.5s59.167 28.5 94.5 28.5c20 0 38.833 -3.33301 56.5 -10s33.667 -15.834 48 -27.5c14.333 -11.667 26.5 -25.5 36.5 -41.5s17 -33.333 21 -52l380 -1821c6 -27.333 6.16699 -54.166 0.5 -80.499
s-15.667 -50.333 -30 -72s-32.333 -40 -54 -55s-45.834 -24.833 -72.5 -29.5c-27.333 -5.33301 -54.166 -5.16602 -80.499 0.500977s-50.333 15.5 -72 29.5s-40 31.667 -55 53s-24.833 45.333 -29.5 72l-193 942l-28 197l-66 -193l-450 -1085h-246l-459 1102l-61 184
l-29 -188l-201 -959c-5.33301 -26.667 -15.5 -50.667 -30.5 -72s-33.167 -39 -54.5 -53s-45.166 -23.833 -71.499 -29.5s-53.166 -5.83398 -80.499 -0.500977c-26.667 4.66699 -50.834 14.5 -72.501 29.5s-39.5 33.333 -53.5 55s-23.833 45.667 -29.5 72
s-5.83398 53.166 -0.500977 80.499l389 1821c4 18.667 11 36 21 52s22.167 29.833 36.5 41.5s30.333 20.834 48 27.5c17.667 6.66699 36.5 10 56.5 10c35.333 0 66.833 -9.5 94.5 -28.5s47.834 -43.833 60.501 -74.5l556 -1337z" />
    <glyph glyph-name="N" unicode="N" horiz-adv-x="2359" 
d="M561 1510l-0.000976562 -1326c0 -27.333 -5.33301 -53.333 -16 -78s-25.167 -46.334 -43.5 -65.001s-40 -33.5 -65 -44.5s-51.833 -16.5 -80.5 -16.5s-55.167 5.5 -79.5 16.5s-45.5 25.833 -63.5 44.5s-32 40.334 -42 65.001s-15 50.667 -15 78v1777
c0 29.333 5.5 56.833 16.5 82.5s26.167 48.167 45.5 67.5s41.833 34.5 67.5 45.5s53.167 16.5 82.5 16.5c31.333 0 60.333 -6 87 -18s49.667 -28.667 69 -50l1274 -1448v1321c0 28 5 54.333 15 79s24 46.334 42 65c18 18.667 39.333 33.5 64 44.5s51.334 16.5 80.001 16.5
s55.5 -5.5 80.5 -16.5s46.667 -25.833 65 -44.5s32.833 -40.334 43.5 -65c10.667 -24.667 16 -51 16 -79v-1776c0 -29.333 -5.5 -56.833 -16.5 -82.5s-26.167 -48.167 -45.5 -67.5s-41.833 -34.5 -67.5 -45.5s-53.167 -16.5 -82.5 -16.5c-31.333 0 -60.333 6 -87 18
s-49.667 28.667 -69 50z" />
    <glyph glyph-name="O" unicode="O" horiz-adv-x="2363" 
d="M2318 1081c0 -102 -13.6641 -200.164 -40.9971 -294.497s-65.833 -182.833 -115.5 -265.5s-109.167 -158 -178.5 -226s-145.833 -126.333 -229.5 -175s-173.334 -86.334 -269.001 -113.001s-194.5 -40 -296.5 -40c-103.333 0 -203 13.333 -299 40
s-186 64.334 -270 113.001s-160.833 107 -230.5 175s-129.334 143.333 -179.001 226s-88.167 171.167 -115.5 265.5s-41 192.5 -41 294.5c0 101.333 13.667 199.166 41 293.499s65.666 182.666 114.999 264.999s108.666 157.666 177.999 225.999s146 126.833 230 175.5
s174.167 86.5 270.5 113.5s196.5 40.5 300.5 40.5c102 0 200.833 -13.333 296.5 -40s185.334 -64.334 269.001 -113c83.667 -48.667 160.167 -107 229.5 -175s128.833 -143.167 178.5 -225.5s88.167 -170.833 115.5 -265.5s41 -193 41 -295zM1917 1081
c0 65.333 -8.83105 128.835 -26.498 190.502s-42.667 119.5 -75 173.5s-70.833 103.333 -115.5 148s-94 83.167 -148 115.5s-111.833 57.333 -173.5 75s-125.167 26.5 -190.5 26.5c-68 0 -133.167 -8.83301 -195.5 -26.5s-120.666 -42.334 -174.999 -74.001
s-103.833 -69.834 -148.5 -114.501s-82.834 -94 -114.501 -148s-56.167 -112 -73.5 -174s-26 -126 -26 -192c0 -65.333 9 -128.833 27 -190.5s43.167 -119.667 75.5 -174s71.166 -104.166 116.499 -149.499s95.166 -84.166 149.499 -116.499s112.333 -57.5 174 -75.5
s125.167 -27 190.5 -27s128.833 9 190.5 27s119.5 43.167 173.5 75.5s103.333 71.166 148 116.499s83.167 95.166 115.5 149.499s57.333 112.333 75 174s26.5 125.167 26.5 190.5z" />
    <glyph glyph-name="P" unicode="P" horiz-adv-x="1413" 
d="M975 1532c0 48 -7.00098 88 -21.001 120s-34.833 57.667 -62.5 77s-61.667 33 -102 41s-86.5 12 -138.5 12h-90v-500h102c100.667 0 177.834 19.667 231.501 59s80.5 103 80.5 191zM155.999 1958c0 28.667 5.00098 55.5 15.001 80.5s24 46.667 42 65
s39.167 32.833 63.5 43.5s50.833 16 79.5 16h283c102.667 0 199 -12.167 289 -36.5s168.5 -62.333 235.5 -114s119.833 -117.5 158.5 -197.5s58 -175.667 58 -287c0 -74.667 -9.16699 -142 -27.5 -202s-43.833 -113.333 -76.5 -160s-71.834 -87 -117.501 -121
s-96 -62 -151 -84s-113.667 -38.167 -176 -48.5s-126.5 -15.5 -192.5 -15.5h-78v-713c0 -27.333 -5.33301 -53.333 -16 -78s-25.167 -46.334 -43.5 -65.001s-40 -33.5 -65 -44.5s-51.833 -16.5 -80.5 -16.5s-55.167 5.5 -79.5 16.5s-45.5 25.833 -63.5 44.5
s-32 40.334 -42 65.001s-15 50.667 -15 78v1774z" />
    <glyph glyph-name="Q" unicode="Q" horiz-adv-x="2363" 
d="M2175 299c18.667 -20.667 32.1729 -43.6699 40.5059 -69.0029s11.666 -51.166 10 -77.499c-1.66699 -26.333 -8 -51.666 -19 -75.999s-26.833 -45.833 -47.5 -64.5c-20.667 -17.333 -43.334 -29.833 -68.001 -37.5s-49.834 -10.5 -75.501 -8.5s-50.334 8.5 -74.001 19.5
s-44.834 26.833 -63.501 47.5l-96 114c-97.333 -57.333 -196.5 -101.666 -297.5 -132.999s-203.833 -47 -308.5 -47s-205.167 13.167 -301.5 39.5s-186.5 63.666 -270.5 111.999s-160.333 106.333 -229 174s-127.5 142.667 -176.5 225s-86.833 171.166 -113.5 266.499
s-40 194.333 -40 297c0 102 13.667 200.333 41 295s65.666 183.167 114.999 265.5s108.666 157.5 177.999 225.5s146 126.333 230 175s174.167 86.334 270.5 113.001s196.5 40 300.5 40c101.333 0 199.833 -13.167 295.5 -39.5s185.334 -63.5 269.001 -111.5
s160.167 -105.667 229.5 -173s128.833 -141.833 178.499 -223.5c49.667 -81.667 88.334 -169.667 116 -264c27.667 -94.333 41.5 -192.166 41.5 -293.499c0 -251.333 -77.667 -479.333 -233 -684zM1266.01 687.997c-18.667 20.667 -32.1738 43.5 -40.5068 68.5
s-11.666 50.333 -9.99902 76s8 50.5 19 74.5s26.833 45.333 47.5 64c20.667 17.333 43.334 29.833 68.001 37.5s49.5 10.5 74.5 8.5s49.333 -8.5 73 -19.5s44.834 -26.833 63.501 -47.5l233 -245c39.333 57.333 68.333 115.166 87 173.499s28 120.5 28 186.5
c0 68 -8.66699 133.833 -26 197.5s-41.666 123 -72.999 178s-69.166 105.167 -113.499 150.5s-93.5 84.333 -147.5 117s-112.167 57.834 -174.5 75.501s-127.166 26.5 -194.499 26.5c-66 0 -129.833 -8.83301 -191.5 -26.5s-119.667 -42.667 -174 -75
s-104.166 -70.833 -149.499 -115.5s-84.166 -94 -116.499 -148s-57.5 -111.833 -75.5 -173.5s-27 -125.167 -27 -190.5c0 -67.333 9 -132.333 27 -195s43.167 -121 75.5 -175s71 -103.333 116 -148s94.833 -83 149.5 -115s113.167 -56.667 175.5 -74
s127.166 -26 194.499 -26c51.333 0 103.5 8 156.5 24s107.167 39.333 162.5 70z" />
    <glyph glyph-name="R" unicode="R" horiz-adv-x="1597" 
d="M999 1532c0 54 -8.66895 97.499 -26.002 130.499s-40.666 58.333 -69.999 76s-63.666 29.334 -102.999 35.001s-81 8.5 -125 8.5h-118v-504h135c40.667 0 79.667 4 117 12s70 21.667 98 41s50.333 45.333 67 78s25 73.667 25 123zM155.998 1958c0 28.667 5 55.5 15 80.5
s24 46.667 42 65s39.167 32.833 63.5 43.5s50.833 16 79.5 16h275c70 0 137.833 -4.33301 203.5 -13s127 -23 184 -43s109 -46.167 156 -78.5s87.333 -72 121 -119s59.667 -102 78 -165s27.5 -135.167 27.5 -216.5c0 -79.333 -10.833 -151.333 -32.5 -216s-52 -122 -91 -172
s-86 -92.667 -141 -128s-115.833 -62.666 -182.5 -81.999l451 -643c14 -21.333 23.333 -44.833 28 -70.5s4.83398 -51 0.500977 -76s-13.333 -48.833 -27 -71.5s-31.834 -41.667 -54.501 -57c-21.333 -14 -44.833 -23.333 -70.5 -28s-51 -4.83398 -76 -0.500977
s-48.833 13.5 -71.5 27.5s-41.667 32.333 -57 55l-524 757v-643c0 -26.667 -5.33301 -52 -16 -76s-25 -45.167 -43 -63.5s-39.167 -33 -63.5 -44s-50.5 -16.5 -78.5 -16.5c-27.333 0 -53 5.5 -77 16.5s-44.833 25.667 -62.5 44s-31.5 39.5 -41.5 63.5s-15 49.333 -15 76
v1778z" />
    <glyph glyph-name="S" unicode="S" horiz-adv-x="1556" 
d="M1491 631c0 -92 -16.3359 -178.667 -49.0029 -260s-80 -152.166 -142 -212.499s-137.667 -108 -227 -143s-190.333 -52.5 -303 -52.5c-76 0 -145.667 6.5 -209 19.5s-120.666 29.667 -171.999 50s-96.333 42.833 -135 67.5s-71.334 48.667 -98.001 72
c-24 20.667 -42.333 42.667 -55 66s-20.667 46.833 -24 70.5s-2.33301 46.667 3 69s14 42.5 26 60.5c12.667 18.667 28.5 34.167 47.5 46.5s40.5 20.333 64.5 24s50.167 1.66699 78.5 -6s57.833 -22.167 88.5 -43.5c16.667 -15.333 37 -31.333 61 -48
s51.833 -31.834 83.5 -45.501s67.167 -24.834 106.5 -33.501s82.666 -13 129.999 -13c59.333 0 109.833 9.5 151.5 28.5s75.5 43.167 101.5 72.5s45 62 57 98s18 71 18 105c0 50.667 -10.5 94.334 -31.5 131.001s-49.667 69 -86 97s-78.666 53 -126.999 75
s-99.5 43.667 -153.5 65l-135 56c-45.333 19.333 -88.833 41.166 -130.5 65.499s-80.5 51.833 -116.5 82.5s-67.167 65.834 -93.5 105.501s-47.166 85 -62.499 136s-23 108.833 -23 173.5c0 99.333 18 186.166 54 260.499s84.333 136.166 145 185.499
s130.834 86.333 210.501 111s163.167 37 250.5 37c68.667 0 130 -5.5 184 -16.5s102.167 -25.167 144.5 -42.5s79.833 -37 112.5 -59s61.667 -44.333 87 -67c26.667 -24.667 46.334 -51.334 59.001 -80.001s19 -56.667 19 -84c0 -45.333 -9.66699 -82.833 -29 -112.5
s-44 -50.667 -74 -63s-63 -15.666 -99 -9.99902s-71 21.167 -105 46.5l-69 52c-21.333 15.333 -43.166 28.166 -65.499 38.499s-46.666 18.333 -72.999 24s-56.833 8.5 -91.5 8.5c-47.333 0 -87.333 -5.33301 -120 -16s-59.334 -25.667 -80.001 -45
s-35.5 -42.166 -44.5 -68.499s-13.5 -55.5 -13.5 -87.5c0 -32.667 8.5 -62.167 25.5 -88.5s40.167 -50.666 69.5 -72.999s64.166 -43.333 104.499 -63s84.166 -39.167 131.499 -58.5l154.5 -67.5c51 -23 99.5 -48.667 145.5 -77s88.833 -59.833 128.5 -94.5
s73.834 -74.667 102.501 -120s51.167 -96.666 67.5 -153.999s24.5 -122.333 24.5 -195z" />
    <glyph glyph-name="T" unicode="T" horiz-adv-x="1430" 
d="M1253 2163c26 0 50.6709 -5 74.0039 -15s43.833 -23.833 61.5 -41.5s31.667 -38.167 42 -61.5s15.5 -48.333 15.5 -75s-5.16699 -51.334 -15.5 -74.001s-24.333 -42.5 -42 -59.5s-38.167 -30.333 -61.5 -40s-48 -14.5 -74 -14.5h-335v-1598
c0 -27.333 -5.33301 -53.333 -16 -78s-25.334 -46.334 -44.001 -65.001s-40.334 -33.5 -65.001 -44.5s-51.334 -16.5 -80.001 -16.5s-55.334 5.5 -80.001 16.5s-46 25.833 -64 44.5s-32 40.334 -42 65.001s-15 50.667 -15 78v1598h-336
c-25.333 0 -49.666 4.83301 -72.999 14.5s-43.833 23 -61.5 40s-31.667 36.833 -42 59.5s-15.5 47.334 -15.5 74.001s5.16699 51.667 15.5 75s24.333 43.833 42 61.5s38.167 31.5 61.5 41.5s47.666 15 72.999 15h1077z" />
    <glyph glyph-name="U" unicode="U" horiz-adv-x="1925" 
d="M1360 1974c0 28.667 4.99902 55.665 14.999 80.998s24 47.5 42 66.5s39.333 34 64 45s51.334 16.5 80.001 16.5c29.333 0 56.666 -5.5 81.999 -16.5s47.333 -26 66 -45s33.334 -41.167 44.001 -66.5s16 -52.333 16 -81v-1130c0 -126.667 -16.667 -243.667 -50 -351
s-83.5 -200 -150.5 -278s-151 -138.833 -252 -182.5s-218.833 -65.5 -353.5 -65.5c-94 0 -179.167 10.167 -255.5 30.5s-144.5 49.166 -204.5 86.499s-111.667 82.333 -155 135s-79.333 111.5 -108 176.5s-49.834 135.333 -63.501 211s-20.5 154.834 -20.5 237.501v1130
c0 28.667 5 55.667 15 81s24 47.5 42 66.5s39.167 34 63.5 45s50.833 16.5 79.5 16.5c30 0 57.667 -5.5 83 -16.5s47.333 -26 66 -45s33.334 -41.167 44.001 -66.5s16 -52.333 16 -81v-1093c0 -79.333 5 -151.666 15 -216.999s29.333 -121.333 58 -168s69 -83 121 -109
s120 -39 204 -39c60 0 111.5 6.5 154.5 19.5s79.167 31 108.5 54s52.833 50.833 70.5 83.5s31.167 68.834 40.5 108.501s15.5 82 18.5 127s4.5 91.833 4.5 140.5v1093z" />
    <glyph glyph-name="V" unicode="V" horiz-adv-x="1815" 
d="M94 1913c-9.33301 26.667 -13.3311 53.333 -11.998 80s7.16602 51.667 17.499 75s25.166 44 44.499 62s42.333 31.667 69 41s53.334 13.166 80.001 11.5c26.667 -1.66699 51.667 -8 75 -19s44 -26 62 -45s31.667 -41.167 41 -66.5l369 -1036l69 -234l66 230l373 1040
c8.66699 25.333 22 47.5 40 66.5s38.667 34 62 45s48.5 17.333 75.5 19s53.833 -2.16602 80.5 -11.499s49.5 -23 68.5 -41s33.833 -38.667 44.5 -62s16.5 -48.333 17.5 -75s-3.16699 -53.334 -12.5 -80.001l-654 -1807c-12.667 -34 -33.834 -61.833 -63.501 -83.5
s-63.5 -32.5 -101.5 -32.5s-72 10.667 -102 32s-51 49 -63 83z" />
    <glyph glyph-name="W" unicode="W" horiz-adv-x="3191" 
d="M1439 2064c14 32 35.499 58.1689 64.499 78.502s62.167 30.5 99.5 30.5c36.667 0 69.667 -9.83301 99 -29.5s50.666 -45.5 63.999 -77.5l454 -1042l98 -266l70 258l340 1028c9.33301 26.667 23 50 41 70s38.667 35.667 62 47s48.333 18.166 75 20.5
c26.667 2.33301 53.334 -1.16699 80 -10.5c25.333 -8 47.666 -21 67 -39c19.333 -18 34.5 -38.667 45.5 -62s17.667 -48.333 20 -75s-0.833984 -52.667 -9.50098 -78l-608 -1811c-11.333 -34.667 -32 -62.667 -62 -84s-63.667 -32 -101 -32c-38 0 -71.167 10.833 -99.5 32.5
s-49.5 49.167 -63.5 82.5l-582 1353l-573 -1352c-14 -34 -35.5 -61.833 -64.5 -83.5s-62.5 -32.5 -100.5 -32.5s-72.167 10.667 -102.5 32s-51.166 49 -62.499 83l-600 1816c-8.66699 25.333 -11.834 51.166 -9.50098 77.499s8.83301 50.833 19.5 73.499
c10.667 22.667 25.334 42.834 44.001 60.5c18.667 17.667 40.334 30.5 65.001 38.5c26.667 9.33301 53.334 13 80.001 11s51.5 -8.66699 74.5 -20s43.333 -26.833 61 -46.5s30.5 -42.167 38.5 -67.5l344 -1020l78 -274l98 262z" />
    <glyph glyph-name="X" unicode="X" horiz-adv-x="1692" 
d="M1536 274c13.333 -23.333 21.168 -48.333 23.501 -75s0.166016 -52.5 -6.50098 -77.5s-17.5 -48.167 -32.5 -69.5s-33.167 -38.666 -54.5 -51.999c-24.667 -12 -50.5 -19 -77.5 -21s-53 0.666992 -78 8s-48 18.666 -69 33.999s-37.5 34.333 -49.5 57l-348 622l-344 -622
c-13.333 -22.667 -31 -41.667 -53 -57s-45.833 -26.5 -71.5 -33.5s-52 -9.33301 -79 -7s-52.167 10.166 -75.5 23.499c-22.667 13.333 -41.5 30.5 -56.5 51.5s-25.667 44 -32 69s-8 50.833 -5 77.5s11.167 52.334 24.5 77.001l458 819l-438 782
c-13.333 24.667 -21.333 50.5 -24 77.5s-0.833984 53.167 5.49902 78.5s17 48.833 32 70.5s33.833 39.167 56.5 52.5c24.667 13.333 50.667 21.166 78 23.5c27.333 2.33301 54 -0.166992 80 -7.5s49.833 -19 71.5 -35s39.167 -35.667 52.5 -59l320 -570l307 570
c13.333 23.333 30.833 43 52.5 59s45.5 27.667 71.5 35s52.833 9.83301 80.5 7.5s53.834 -10.166 78.501 -23.5c22.667 -13.333 41.5 -30.833 56.5 -52.5s25.667 -45.167 32 -70.5s8 -51.5 5 -78.5s-11.167 -52.833 -24.5 -77.5l-430 -778z" />
    <glyph glyph-name="Y" unicode="Y" horiz-adv-x="1921" 
d="M1413 2093c13.333 22.667 30.832 41.334 52.499 56c21.667 14.667 45.334 24.667 71.001 30s52 6.16602 79 2.5c27 -3.66699 52.5 -12.834 76.5 -27.5c22.667 -13.333 41 -30.666 55 -52c14 -21.333 23.5 -44.5 28.5 -69.5s5.33301 -50.833 1 -77.5
s-13.5 -51.667 -27.5 -75l-582 -975v-717c0 -28.667 -5.33301 -55.5 -16 -80.5s-25.334 -47 -44.001 -66s-40.667 -34 -66 -45s-53 -16.5 -83 -16.5c-29.333 0 -56.5 5.5 -81.5 16.5s-46.5 26 -64.5 45s-32.167 41 -42.5 66s-15.5 51.833 -15.5 80.5v717l-582 975
c-14 23.333 -23.167 48.333 -27.5 75s-4 52.5 1 77.5s14.5 48.167 28.5 69.5s32.333 38.666 55 52c24 14.667 49.5 23.834 76.5 27.5c27 3.66699 53.333 2.83398 79 -2.5c25.667 -5.33301 49.334 -15.333 71.001 -30s39.167 -33.334 52.5 -56l455 -754z" />
    <glyph glyph-name="Z" unicode="Z" horiz-adv-x="1720" 
d="M283 0c-29.333 0 -57.1699 5.6709 -83.5029 17.0039s-49.166 26.666 -68.499 45.999s-34.666 42.166 -45.999 68.499s-17 54.166 -17 83.499c0 22 3.33301 43 10 63s15.667 38.667 27 56l989 1448h-815c-26.667 0 -51.5 4.83301 -74.5 14.5s-43 23 -60 40
s-30.333 36.833 -40 59.5s-14.5 47.334 -14.5 74.001s4.83301 51.667 14.5 75s23 43.833 40 61.5s37 31.5 60 41.5s47.833 15 74.5 15h1148c28.667 0 55.667 -5.5 81 -16.5s47.5 -26 66.5 -45s34 -41.167 45 -66.5s16.5 -52.333 16.5 -81
c0 -21.333 -3.16699 -41.833 -9.5 -61.5s-15.166 -37.834 -26.499 -54.501l-994 -1461h852c26.667 0 51.5 -5 74.5 -15s43 -23.667 60 -41s30.333 -37.333 40 -60s14.5 -47 14.5 -73c0 -26.667 -4.83301 -51.334 -14.5 -74.001s-23 -42.5 -40 -59.5s-37 -30.333 -60 -40
s-47.833 -14.5 -74.5 -14.5h-1175z" />
    <glyph glyph-name="bracketleft" unicode="[" horiz-adv-x="901" 
d="M303 -483c-25.333 0 -49.166 4.99902 -71.499 14.999s-41.833 23.5 -58.5 40.5s-29.834 36.5 -39.501 58.5s-14.5 45.333 -14.5 70v2425c0 24.667 4.83301 48 14.5 70s22.834 41.5 39.501 58.5s36.167 30.5 58.5 40.5s46.166 15 71.499 15h340
c25.333 0 49.166 -5 71.499 -15s41.833 -23.5 58.5 -40.5s29.834 -36.5 39.501 -58.5s14.5 -45.333 14.5 -70c0 -26 -4.83301 -50.167 -14.5 -72.5s-22.834 -41.666 -39.501 -57.999s-36.167 -29.333 -58.5 -39s-46.166 -14.5 -71.499 -14.5h-156v-2057h156
c25.333 0 49.166 -5 71.499 -15s41.833 -23.5 58.5 -40.5s29.834 -36.5 39.501 -58.5s14.5 -45.333 14.5 -70c0 -25.333 -4.83301 -49.166 -14.5 -71.499s-22.834 -41.833 -39.501 -58.5s-36.167 -29.834 -58.5 -39.501s-46.166 -14.5 -71.499 -14.5h-340z" />
    <glyph glyph-name="backslash" unicode="\" horiz-adv-x="1942" 
d="M233 2195c-11.333 20.667 -17.998 42.5 -19.998 65.5s0 45.5 6 67.5s16.167 42.167 30.5 60.5s32.166 33.166 53.499 44.5c20.667 11.333 42.5 17.833 65.5 19.5s45.5 -0.833008 67.5 -7.5s42.167 -17.334 60.5 -32.001s33.166 -32.667 44.499 -54l1163 -2113
c11.333 -21.333 18 -43.833 20 -67.5s0 -46.667 -6 -69s-16.167 -43.166 -30.5 -62.499s-32.166 -35 -53.499 -47c-21.333 -11.333 -44 -17.833 -68 -19.5s-47.333 1 -70 8s-43.334 18 -62.001 33s-33.667 33.833 -45 56.5z" />
    <glyph glyph-name="bracketright" unicode="]" horiz-adv-x="901" 
d="M283 -483c-25.333 0 -49.166 4.83398 -71.499 14.501s-41.833 22.834 -58.5 39.501s-29.834 36.167 -39.501 58.5s-14.5 46.166 -14.5 71.499c0 24.667 4.83301 48 14.5 70s22.834 41.5 39.501 58.5s36.167 30.5 58.5 40.5s46.166 15 71.499 15h156v2057h-156
c-25.333 0 -49.166 4.83301 -71.499 14.5s-41.833 22.667 -58.5 39s-29.834 35.666 -39.501 57.999s-14.5 46.5 -14.5 72.5c0 24.667 4.83301 48 14.5 70s22.834 41.5 39.501 58.5s36.167 30.5 58.5 40.5s46.166 15 71.499 15h340c25.333 0 49.166 -5 71.499 -15
s41.833 -23.5 58.5 -40.5s29.834 -36.5 39.501 -58.5s14.5 -45.333 14.5 -70v-2425c0 -24.667 -4.83301 -48 -14.5 -70s-22.834 -41.5 -39.501 -58.5s-36.167 -30.5 -58.5 -40.5s-46.166 -15 -71.499 -15h-340z" />
    <glyph glyph-name="asciicircum" unicode="^" horiz-adv-x="1745" 
d="M1622 987c9.33301 -19.333 14.5 -39.1689 15.5 -59.502s-2 -39.666 -9 -57.999s-17.333 -35.166 -31 -50.499s-30.167 -27.666 -49.5 -36.999c-20.667 -10 -41.667 -15.667 -63 -17s-41.5 1.16699 -60.5 7.5s-36.333 16.333 -52 30s-28.167 30.167 -37.5 49.5l-467 926
l-458 -926c-9.33301 -19.333 -21.833 -35.833 -37.5 -49.5s-33 -23.667 -52 -30s-39.167 -8.83301 -60.5 -7.5s-42.333 7 -63 17c-19.333 9.33301 -35.833 21.5 -49.5 36.5s-24 31.833 -31 50.5s-10 38.167 -9 58.5s6.16699 40.166 15.5 59.499l560 1145
c17.333 35.333 42.333 64 75 86s69.667 33 111 33c42 0 79.333 -10.667 112 -32s57.667 -49.333 75 -84z" />
    <glyph glyph-name="underscore" unicode="_" horiz-adv-x="1634" 
d="M152 -426c-24 0 -46 4.5 -66 13.5s-37.167 21.167 -51.5 36.5s-25.666 33.166 -33.999 53.499s-12.5 41.833 -12.5 64.5s4.16699 43.834 12.5 63.501s19.666 37 33.999 52s31.5 26.833 51.5 35.5s42 13 66 13h1331c23.333 0 45 -4.33301 65 -13s37.333 -20.5 52 -35.5
s26.167 -32.333 34.5 -52s12.5 -40.834 12.5 -63.501s-4.16699 -44.167 -12.5 -64.5s-19.833 -38.166 -34.5 -53.499s-32 -27.5 -52 -36.5s-41.667 -13.5 -65 -13.5h-1331z" />
    <glyph glyph-name="grave" unicode="`" horiz-adv-x="889" 
d="M209 1884c-16.667 19.333 -27.668 40.668 -33.001 64.001s-6.16602 46.333 -2.49902 69s11.834 44.334 24.501 65.001s28.667 38 48 52c20.667 15.333 43 26 67 32s47.5 7.66699 70.5 5s44.833 -9.83398 65.5 -21.5c20.667 -11.667 37.667 -27.834 51 -48.5l241 -364
c11.333 -17.333 19 -36.166 23 -56.499s4.33301 -40.333 1 -60s-10.333 -38.334 -21 -56.001s-25.334 -32.5 -44.001 -44.5c-18 -12.667 -37 -20.834 -57 -24.501s-39.5 -3.83398 -58.5 -0.500977s-37.333 10.333 -55 21s-33.167 24 -46.5 40z" />
    <glyph glyph-name="a" unicode="a" horiz-adv-x="1827" 
d="M1294 774c0 57.333 -9.66406 110.5 -28.9971 159.5s-47.166 91.5 -83.499 127.5s-80.5 64.167 -132.5 84.5s-111 30.5 -177 30.5c-58 0 -112 -11.667 -162 -35s-93.333 -54.333 -130 -93s-65.334 -83.167 -86.001 -133.5s-31 -102.5 -31 -156.5
c0 -60.667 10 -117.167 30 -169.5s48.333 -97.833 85 -136.5s80.667 -69 132 -91s108.333 -33 171 -33c65.333 0 123.666 11 174.999 33s94.666 52.667 129.999 92s62.166 86.333 80.499 141s27.5 114.667 27.5 180zM1671 180c0 -27.333 -4.99609 -53.002 -14.9961 -77.002
s-23.833 -44.833 -41.5 -62.5s-38.5 -31.5 -62.5 -41.5s-49.667 -15 -77 -15c-46 0 -85.833 12.833 -119.5 38.5s-56.834 59.167 -69.501 100.5c-24.667 -19.333 -52.5 -38 -83.5 -56s-63.833 -33.833 -98.5 -47.5s-70.667 -24.5 -108 -32.5s-74.333 -12 -111 -12
c-84 0 -162.333 9.5 -235 28.5s-138.834 45.833 -198.501 80.5s-112.667 76 -159 124s-85.333 101 -117 159s-55.834 120 -72.501 186s-25 134.333 -25 205c0 106.667 18.5 206.334 55.5 299.001s90.167 173.334 159.5 242.001s153.166 122.667 251.499 162
s209.166 59 332.499 59c72 0 143.167 -11.833 213.5 -35.5s135.5 -57.167 195.5 -100.5c12.667 41.333 35.834 75 69.501 101s73.5 39 119.5 39c27.333 0 53 -5 77 -15s44.833 -23.833 62.5 -41.5s31.5 -38.5 41.5 -62.5s15 -50 15 -78v-1147z" />
    <glyph glyph-name="b" unicode="b" horiz-adv-x="1835" 
d="M1368 766c0 57.333 -10.1709 111.334 -30.5039 162.001s-48.666 95 -84.999 133s-79.666 68 -129.999 90s-105.166 33 -164.499 33c-68.667 0 -129.167 -10.333 -181.5 -31s-96.333 -49.5 -132 -86.5s-62.5 -81.333 -80.5 -133s-27 -108.834 -27 -171.501
c0 -61.333 9.5 -118.333 28.5 -171s46.333 -98.167 82 -136.5s79.334 -68.333 131.001 -90s110.167 -32.5 175.5 -32.5c62.667 0 119.5 11 170.5 33s94.5 52.5 130.5 91.5s63.833 85 83.5 138s29.5 110.167 29.5 171.5zM544.996 1430
c64 38.667 130.169 66.666 198.502 83.999s138.5 26 210.5 26c81.333 0 157.666 -9.16699 228.999 -27.5s136.666 -44.5 195.999 -78.5s112.5 -74.5 159.5 -121.5s86.667 -99.167 119 -156.5s57 -119 74 -185s25.5 -134.333 25.5 -205c0 -78.667 -10 -152.834 -30 -222.501
s-47.667 -133.667 -83 -192s-77.5 -110.833 -126.5 -157.5s-102.667 -86.167 -161 -118.5s-120.166 -57.166 -185.499 -74.499s-132 -26 -200 -26c-72.667 0 -143.834 12 -213.501 36s-140.5 64 -212.5 120c-5.33301 -21.333 -14.166 -41.333 -26.499 -60
s-27 -34.667 -44 -48s-36 -23.833 -57 -31.5s-42.833 -11.5 -65.5 -11.5c-27.333 0 -53 5.16699 -77 15.5s-44.833 24.5 -62.5 42.5s-31.5 38.833 -41.5 62.5s-15 48.834 -15 75.501v2089c0 26.667 5 52 15 76s23.667 45 41 63s37.666 32.167 60.999 42.5
s48.333 15.5 75 15.5s52 -5.16699 76 -15.5s45 -24.5 63 -42.5s32.167 -39 42.5 -63s15.5 -49.333 15.5 -76v-835z" />
    <glyph glyph-name="c" unicode="c" horiz-adv-x="1561" 
d="M1225 422c22.667 12 45.835 19.6689 69.502 23.002s46.5 2.16602 68.5 -3.50098s42.333 -15.667 61 -30s34 -32.833 46 -55.5c12.667 -22.667 20.167 -46.167 22.5 -70.5s0.333008 -48 -6 -71s-16.666 -44.333 -30.999 -64s-32.5 -35.834 -54.5 -48.501
c-76.667 -45.333 -154.5 -78.5 -233.5 -99.5s-163.833 -31.5 -254.5 -31.5c-120 0 -230.833 20.167 -332.5 60.5s-189.834 95.833 -264.501 166.5s-133 153.5 -175 248.5s-63 197.5 -63 307.5c0 72 9.66699 141.333 29 208s46.666 128.834 81.999 186.501
s78.333 110 129 157s107 87.333 169 121s129.333 59.667 202 78s149 27.5 229 27.5c44.667 0 89.5 -3.33301 134.5 -10s88.333 -16 130 -28s81 -26.333 118 -43s70.5 -34.667 100.5 -54c21.333 -13.333 39.333 -29.666 54 -48.999s25.167 -40.166 31.5 -62.499
s8.33301 -45.333 6 -69s-9.83301 -46.834 -22.5 -69.501c-12 -22.667 -27.333 -41.334 -46 -56.001s-39 -25 -61 -31s-44.833 -7.66699 -68.5 -5s-46.834 10 -69.501 22c-28 15.333 -54.667 29.166 -80 41.499s-50.833 22.666 -76.5 30.999s-51.5 14.833 -77.5 19.5
s-53.333 7 -82 7c-61.333 0 -118.833 -11.5 -172.5 -34.5s-100.5 -53.833 -140.5 -92.5s-71.5 -83.5 -94.5 -134.5s-34.5 -104.5 -34.5 -160.5c0 -57.333 11.5 -112 34.5 -164s54.5 -97.667 94.5 -137s86.833 -70.666 140.5 -93.999s111.167 -35 172.5 -35
c57.333 0 110.5 8.5 159.5 25.5s101.167 41.167 156.5 72.5z" />
    <glyph glyph-name="d" unicode="d" horiz-adv-x="1835" 
d="M1290 2265c0 26.667 5.16895 52.001 15.502 76.001s24.5 45 42.5 63s39 32.167 63 42.5s49.333 15.5 76 15.5s51.667 -5.16699 75 -15.5s43.666 -24.5 60.999 -42.5s31 -39 41 -63s15 -49.333 15 -76v-2089c0 -26.667 -5 -51.834 -15 -75.501s-23.833 -44.5 -41.5 -62.5
s-38.5 -32.167 -62.5 -42.5s-49.667 -15.5 -77 -15.5c-22.667 0 -44.5 3.83301 -65.5 11.5s-40 18.167 -57 31.5s-31.667 29.333 -44 48s-21.166 38.667 -26.499 60c-72 -56 -142.833 -96 -212.5 -120s-140.834 -36 -213.501 -36c-68 0 -134.667 8.66699 -200 26
s-127.166 42.166 -185.499 74.499s-112 71.833 -161 118.5s-91.167 99.167 -126.5 157.5s-63 122.333 -83 192s-30 143.834 -30 222.501c0 70.667 8.5 139 25.5 205s41.667 127.667 74 185s72 109.5 119 156.5s100.167 87.5 159.5 121.5s124.666 60.167 195.999 78.5
s147.666 27.5 228.999 27.5c72 0 143 -12 213 -36s136 -61 198 -111zM467.002 766.001c0 -61.333 9.82715 -118.501 29.4941 -171.501s47.5 -99 83.5 -138s79.5 -69.5 130.5 -91.5s107.833 -33 170.5 -33c65.333 0 123.833 10.833 175.5 32.5s95.334 51.667 131.001 90
s63 83.833 82 136.5s28.5 109.667 28.5 171c0 62.667 -9.16699 119.834 -27.5 171.501s-45.166 96 -80.499 133s-79.166 65.833 -131.499 86.5s-112.833 31 -181.5 31c-59.333 0 -114.166 -11 -164.499 -33s-93.666 -52 -129.999 -90s-64.666 -82.333 -84.999 -133
s-30.5 -104.667 -30.5 -162z" />
    <glyph glyph-name="e" unicode="e" horiz-adv-x="1720" 
d="M1218 975c-30.667 68 -75.1699 118.502 -133.503 151.502s-127.5 49.5 -207.5 49.5c-40 0 -78.167 -4.83301 -114.5 -14.5s-70.166 -23.334 -101.499 -41.001s-59.666 -38.834 -84.999 -63.501s-46.666 -52 -63.999 -82h706zM1647 810.002
c2.66699 -23.333 -0.162109 -45.1641 -8.49512 -65.4971s-20.5 -38 -36.5 -53s-34.833 -26.833 -56.5 -35.5s-43.834 -13 -66.501 -13h-1012c11.333 -48 29.833 -91.833 55.5 -131.5s56.667 -73.834 93 -102.501s77.166 -50.834 122.499 -66.501s93 -23.5 143 -23.5
c44 0 82.833 5 116.5 15s63 22.167 88 36.5s46.167 29.666 63.5 45.999s31.666 30.5 42.999 42.5c16 18 34.5 32.833 55.5 44.5s42.667 19.334 65 23.001s44.666 3 66.999 -2s43.166 -14.5 62.499 -28.5c19.333 -15.333 35.166 -33.666 47.499 -54.999
s20.5 -43.333 24.5 -66s3.16699 -45.334 -2.5 -68.001s-16.5 -43 -32.5 -61c-36 -40 -74.667 -77 -116 -111s-86.5 -63.5 -135.5 -88.5s-102.833 -44.5 -161.5 -58.5s-123.334 -21 -194.001 -21c-82 0 -158.5 10 -229.5 30s-135.833 47.667 -194.5 83s-111 77.5 -157 126.5
s-84.833 102.667 -116.5 161s-55.667 120.166 -72 185.499s-24.5 132.333 -24.5 201c0 68 8.5 134.5 25.5 199.5s41.333 126.333 73 184s70.667 110.667 117 159s99 90 158 125s123.667 62.167 194 81.5s145.833 29 226.5 29c111.333 0 211.5 -17.333 300.5 -52
s166.333 -83.667 232 -147s118.834 -139.333 159.501 -228s68.334 -187 83.001 -295z" />
    <glyph glyph-name="f" unicode="f" horiz-adv-x="971" 
d="M758 2114c-6.66699 2 -12.165 3.16699 -16.498 3.5s-8.5 0.5 -12.5 0.5c-23.333 0 -42 -3.83301 -56 -11.5s-24.833 -18 -32.5 -31s-13 -28.333 -16 -46s-5.16699 -36.167 -6.5 -55.5v-475h189c24.667 0 47.667 -4.5 69 -13.5s40 -21.5 56 -37.5s28.5 -34.667 37.5 -56
s13.5 -44.333 13.5 -69s-4.5 -47.667 -13.5 -69s-21.5 -40 -37.5 -56s-34.667 -28.5 -56 -37.5s-44.333 -13.5 -69 -13.5h-189v-971c0 -26.667 -5.16699 -51.834 -15.5 -75.501s-24.5 -44.5 -42.5 -62.5s-38.833 -32.167 -62.5 -42.5s-48.834 -15.5 -75.501 -15.5
s-51.667 5.16699 -75 15.5s-43.833 24.5 -61.5 42.5s-31.5 38.833 -41.5 62.5s-15 48.834 -15 75.501v971h-16c-24.667 0 -47.667 4.5 -69 13.5s-40 21.5 -56 37.5s-28.5 34.667 -37.5 56s-13.5 44.333 -13.5 69s4.5 47.667 13.5 69s21.5 40 37.5 56s34.667 28.5 56 37.5
s44.333 13.5 69 13.5h16v385c0 24.667 0.5 52.5 1.5 83.5s4 63 9 96s12.5 65.833 22.5 98.5s23.667 63 41 91c23.333 36.667 50.5 68.334 81.5 95c31 26.667 64.5 48.834 100.5 66.5c36 17.667 73.667 30.667 113 39s79 12.5 119 12.5c32.667 0 65.834 -3.66699 99.501 -11
s63.167 -19.666 88.5 -37c25.333 -17.333 44.166 -40.166 56.499 -68.5c12.333 -28.333 14.166 -63.166 5.49902 -104.5c-5.33301 -24 -14.5 -45.167 -27.5 -63.5s-28.833 -33.5 -47.5 -45.5s-39.5 -20 -62.5 -24s-46.833 -3.33301 -71.5 2z" />
    <glyph glyph-name="g" unicode="g" horiz-adv-x="1835" 
d="M1298 762c0 58 -9.8291 111.834 -29.4961 161.501s-48 92.5 -85 128.5s-81.667 64.167 -134 84.5s-111.5 30.5 -177.5 30.5c-58 0 -111.833 -11.5 -161.5 -34.5s-92.5 -53.833 -128.5 -92.5s-64.167 -83.167 -84.5 -133.5s-30.5 -102.5 -30.5 -156.5
c0 -60.667 10.167 -117.667 30.5 -171s49 -99.833 86 -139.5s81.167 -71 132.5 -94s107.666 -34.5 168.999 -34.5c65.333 0 123.666 11.167 174.999 33.5s94.666 53.5 129.999 93.5s62.166 87.667 80.499 143s27.5 115.666 27.5 180.999zM455.004 -192.999
c12 -44 29.3418 -84.335 52.0088 -121.002s50.5 -68.167 83.5 -94.5s71.333 -46.833 115 -61.5s92.5 -22 146.5 -22c80.667 0 149 10.5 205 31.5s101.167 52 135.5 93s59.166 92.167 74.499 153.5s23 132.666 23 213.999v91c-66 -47.333 -133.5 -81.166 -202.5 -101.499
s-140.833 -30.5 -215.5 -30.5c-79.333 0 -154 10 -224 30s-134.333 47.667 -193 83s-111.334 77.333 -158.001 126s-86.167 102 -118.5 160s-57.166 119.5 -74.499 184.5s-26 131.167 -26 198.5c0 71.333 9 140 27 206s43.833 127.5 77.5 184.5s74.667 108.833 123 155.5
s102.666 86.667 162.999 120s126.166 59 197.499 77s147 27 227 27c74 0 145.833 -11.333 215.5 -34s130.167 -57.667 181.5 -105c5.33301 21.333 14 41.166 26 59.499s26.333 34 43 47s35.167 23.167 55.5 30.5s41.833 11 64.5 11c27.333 0 53.166 -5.33301 77.499 -16
s45.5 -25 63.5 -43s32.333 -39.167 43 -63.5s16 -50.5 16 -78.5v-1217c0 -47.333 -1 -98.333 -3 -153s-8.33301 -110.667 -19 -168s-26.834 -114.5 -48.501 -171.5s-52.5 -111.167 -92.5 -162.5c-40 -49.333 -84.333 -92.166 -133 -128.499s-100.667 -66.5 -156 -90.5
s-113.5 -42 -174.5 -54s-123.833 -18 -188.5 -18c-92.667 0 -180.834 12.167 -264.501 36.5s-159.834 60.5 -228.501 108.5s-127.834 107.833 -177.501 179.5s-86.834 154.834 -111.501 249.501c-6 25.333 -6.66699 50.333 -2 75s13.667 47.334 27 68.001
s30.166 38.167 50.499 52.5s42.833 24.166 67.5 29.499c26.667 4.66699 52.334 4.5 77.001 -0.5s47.167 -14.167 67.5 -27.5s37.833 -30.166 52.5 -50.499s25.667 -43.5 33 -69.5z" />
    <glyph glyph-name="h" unicode="h" horiz-adv-x="1618" 
d="M156 2269c0 26.667 4.99902 51.9961 14.999 75.9961s23.667 45 41 63s37.666 32.167 60.999 42.5s48.333 15.5 75 15.5s52 -5.16699 76 -15.5s45 -24.5 63 -42.5s32.167 -39 42.5 -63s15.5 -49.333 15.5 -76v-839c43.333 30.667 91 55.334 143 74.001s108 28 168 28
c79.333 0 149.333 -7.66699 210 -23s113.667 -37.166 159 -65.499s83.333 -62.166 114 -101.499s55.5 -83 74.5 -131s32.5 -99.5 40.5 -154.5s12 -112.167 12 -171.5v-709c0 -26.667 -5.16699 -51.834 -15.5 -75.501s-24.5 -44.5 -42.5 -62.5s-38.833 -32.167 -62.5 -42.5
s-48.834 -15.5 -75.501 -15.5s-51.667 5.16699 -75 15.5s-43.833 24.5 -61.5 42.5s-31.5 38.833 -41.5 62.5s-15 48.834 -15 75.501v709c0 44.667 -3.16699 85.334 -9.5 122.001s-18.666 67.667 -36.999 93s-43.833 45 -76.5 59s-75 21 -127 21
c-57.333 0 -104.166 -10.333 -140.499 -31s-65 -50.167 -86 -88.5s-35.5 -84.5 -43.5 -138.5s-12 -114.333 -12 -181v-565c0 -26.667 -5.16699 -51.834 -15.5 -75.501s-24.5 -44.5 -42.5 -62.5s-39 -32.167 -63 -42.5s-49.333 -15.5 -76 -15.5s-51.667 5.16699 -75 15.5
s-43.666 24.5 -60.999 42.5s-31 38.833 -41 62.5s-15 48.834 -15 75.501v2093z" />
    <glyph glyph-name="i" unicode="i" horiz-adv-x="741" 
d="M623 2011c0 -32.667 -6.66602 -63.334 -19.999 -92.001s-31.5 -53.834 -54.5 -75.501s-49.5 -38.667 -79.5 -51s-62 -18.5 -96 -18.5c-36 0 -69.333 6.16699 -100 18.5s-57 29.333 -79 51s-39.333 46.834 -52 75.501s-19 59.334 -19 92.001s6.33301 63.5 19 92.5
s30 54.167 52 75.5s48.333 38.333 79 51s64 19 100 19s69.167 -6.33301 99.5 -19s56.666 -29.667 78.999 -51s39.833 -46.5 52.5 -75.5s19 -59.833 19 -92.5zM565.001 1323c0 26.667 -5.16699 52 -15.5 76s-24.5 45 -42.5 63s-38.833 32.167 -62.5 42.5
s-48.834 15.5 -75.501 15.5s-51.667 -5.16699 -75 -15.5s-43.833 -24.5 -61.5 -42.5s-31.5 -39 -41.5 -63s-15 -49.333 -15 -76v-1147c0 -26.667 5 -51.834 15 -75.501s23.833 -44.5 41.5 -62.5s38.167 -32.167 61.5 -42.5s48.333 -15.5 75 -15.5
s51.834 5.16699 75.501 15.5s44.5 24.5 62.5 42.5s32.167 38.833 42.5 62.5s15.5 48.834 15.5 75.501v1147z" />
    <glyph glyph-name="j" unicode="j" horiz-adv-x="745" 
d="M623 2011c0 -34 -6.66602 -65.333 -19.999 -94s-31.5 -53.667 -54.5 -75s-49.5 -38 -79.5 -50s-62 -18 -96 -18c-36 0 -69.333 6 -100 18s-57 28.667 -79 50s-39.333 46.333 -52 75s-19 60 -19 94c0 32 6.33301 62.333 19 91s30 53.834 52 75.5
c22 21.667 48.333 39 79 52s64 19.5 100 19.5s69.167 -6.5 99.5 -19.5s56.666 -30.333 78.999 -52s39.833 -46.834 52.5 -75.5c12.667 -28.667 19 -59 19 -91zM565.001 1323c0 26.667 -5.16699 52 -15.5 76s-24.5 45 -42.5 63s-38.833 32.167 -62.5 42.5
s-48.834 15.5 -75.501 15.5s-51.667 -5.16699 -75 -15.5s-43.833 -24.5 -61.5 -42.5s-31.5 -39 -41.5 -63s-15 -49.333 -15 -76v-2023c0 -26.667 5 -52 15 -76s23.833 -45 41.5 -63s38.167 -32.167 61.5 -42.5s48.333 -15.5 75 -15.5s51.834 5.16699 75.501 15.5
s44.5 24.5 62.5 42.5s32.167 39 42.5 63s15.5 49.333 15.5 76v2023z" />
    <glyph glyph-name="k" unicode="k" horiz-adv-x="1565" 
d="M545 561v-384.995c0 -26.667 -5.16699 -51.834 -15.5 -75.501s-24.5 -44.5 -42.5 -62.5s-39 -32.167 -63 -42.5s-49.333 -15.5 -76 -15.5s-51.667 5.16699 -75 15.5s-43.666 24.5 -60.999 42.5s-31 38.833 -41 62.5s-15 48.834 -15 75.501v2093c0 26.667 5 52 15 76
s23.667 45 41 63s37.666 32.167 60.999 42.5s48.333 15.5 75 15.5s52 -5.16699 76 -15.5s45 -24.5 63 -42.5s32.167 -39 42.5 -63s15.5 -49.333 15.5 -76v-1122l438 319c21.333 15.333 43.833 27.166 67.5 35.499s47.334 12.666 71.001 12.999
s46.334 -3.83398 68.001 -12.501s41.5 -22 59.5 -40c18 -18.667 31.833 -40.167 41.5 -64.5s14.5 -48.833 14.5 -73.5s-4.83301 -48.334 -14.5 -71.001s-24.834 -41.667 -45.501 -57l-471 -352l553 -541c18.667 -18.667 32.667 -39.5 42 -62.5s14.166 -46.5 14.499 -70.5
s-3.83398 -47.667 -12.501 -71s-22 -44 -40 -62c-18 -18.667 -38.667 -32.834 -62 -42.501s-47.166 -14.667 -71.499 -15s-48 4 -71 13s-43.5 22.5 -61.5 40.5z" />
    <glyph glyph-name="l" unicode="l" horiz-adv-x="745" 
d="M565 176c0 -26.667 -5.16699 -51.834 -15.5 -75.501s-24.5 -44.5 -42.5 -62.5s-38.833 -32.167 -62.5 -42.5s-48.834 -15.5 -75.501 -15.5s-51.667 5.16699 -75 15.5s-43.833 24.5 -61.5 42.5s-31.5 38.833 -41.5 62.5s-15 48.834 -15 75.501v2097c0 26.667 5 52 15 76
s23.833 45 41.5 63s38.167 32.167 61.5 42.5s48.333 15.5 75 15.5s51.834 -5.16699 75.501 -15.5s44.5 -24.5 62.5 -42.5s32.167 -39 42.5 -63s15.5 -49.333 15.5 -76v-2097z" />
    <glyph glyph-name="m" unicode="m" horiz-adv-x="2314" 
d="M2159 176c0 -26.667 -5.33008 -51.834 -15.9971 -75.501s-25 -44.5 -43 -62.5s-38.833 -32.167 -62.5 -42.5s-48.834 -15.5 -75.501 -15.5c-28 0 -54 5.16699 -78 15.5s-44.833 24.5 -62.5 42.5s-31.5 38.833 -41.5 62.5s-15 48.834 -15 75.501v729
c0 44.667 -2.83301 84 -8.5 118s-15.834 62.333 -30.501 85s-34.834 39.667 -60.501 51s-58.167 17 -97.5 17c-30 0 -58 -6 -84 -18s-48.833 -30.333 -68.5 -55s-35.167 -55.667 -46.5 -93s-17 -81 -17 -131v-707c0 -25.333 -5.16699 -49.666 -15.5 -72.999
s-24.5 -43.833 -42.5 -61.5s-39 -31.667 -63 -42s-49.333 -15.5 -76 -15.5s-51.667 5.16699 -75 15.5s-43.666 24.333 -60.999 42s-31 38.167 -41 61.5s-15 47.666 -15 72.999v700c0 54.667 -2.83301 101.167 -8.5 139.5s-15.834 69.666 -30.501 93.999
s-34.167 42.166 -58.5 53.499s-54.833 17 -91.5 17c-32.667 0 -63.167 -10.667 -91.5 -32s-53 -50.166 -74 -86.499s-37.5 -78.333 -49.5 -126s-18 -97.5 -18 -149.5v-610c0 -25.333 -5.16699 -49.666 -15.5 -72.999s-24.333 -43.833 -42 -61.5s-38.167 -31.667 -61.5 -42
s-48 -15.5 -74 -15.5c-26.667 0 -51.667 5.16699 -75 15.5s-43.666 24.333 -60.999 42s-31 38.167 -41 61.5s-15 47.666 -15 72.999v1155c0 28 5.33301 54 16 78s25.167 44.833 43.5 62.5s39.833 31.5 64.5 41.5s50.667 15 78 15c22.667 0 44.167 -3.16699 64.5 -9.5
s38.666 -15.666 54.999 -27.999s30.333 -27.5 42 -45.5s20.167 -38.333 25.5 -61v-4c44 50 92.333 85.833 145 107.5s108 32.5 166 32.5s115.167 -14.167 171.5 -42.5s108.5 -68.833 156.5 -121.5c52 56 113.5 98 184.5 126s144.5 42 220.5 42
c81.333 0 151.833 -8.5 211.5 -25.5s110.667 -40.333 153 -70s76.833 -64.667 103.5 -105s47.5 -83.833 62.5 -130.5s25.333 -95.5 31 -146.5s8.5 -102.167 8.5 -153.5v-713z" />
    <glyph glyph-name="n" unicode="n" horiz-adv-x="1589" 
d="M541 1356c18.667 22.667 40.668 44.002 66.001 64.002s52.833 37.5 82.5 52.5s61.167 26.667 94.5 35s67 12.5 101 12.5c102.667 0 189.167 -15.833 259.5 -47.5s127.166 -75.834 170.499 -132.501s74.666 -123.667 93.999 -201s29 -161.333 29 -252v-715
c0 -25.333 -5.16699 -49.666 -15.5 -72.999s-24.5 -43.833 -42.5 -61.5s-39 -31.667 -63 -42s-49.333 -15.5 -76 -15.5s-51.667 5.16699 -75 15.5s-43.666 24.333 -60.999 42s-31 38.167 -41 61.5s-15 47.666 -15 72.999v715c0 61.333 -5.5 110.666 -16.5 147.999
s-26.167 66 -45.5 86s-42.333 33.333 -69 40s-55.667 10 -87 10c-44 0 -83.833 -12.833 -119.5 -38.5s-66.167 -59 -91.5 -100s-44.833 -87.5 -58.5 -139.5s-20.5 -104 -20.5 -156v-565c0 -25.333 -5.16699 -49.666 -15.5 -72.999s-24.333 -43.833 -42 -61.5
s-38.167 -31.667 -61.5 -42s-48 -15.5 -74 -15.5c-26.667 0 -51.667 5.16699 -75 15.5s-43.666 24.333 -60.999 42s-31 38.167 -41 61.5s-15 47.666 -15 72.999v1159c0 26.667 5.5 51.667 16.5 75s25.667 43.833 44 61.5s39.666 31.5 63.999 41.5s49.833 15 76.5 15
c22.667 0 44.5 -3.5 65.5 -10.5s40 -17.333 57 -31s31 -30.167 42 -49.5s17.5 -41.333 19.5 -66v-11z" />
    <glyph glyph-name="o" unicode="o" horiz-adv-x="1810" 
d="M1737 758c0 -74.667 -9.83398 -145.836 -29.501 -213.503s-47.5 -130.667 -83.5 -189s-79.333 -111.166 -130 -158.499s-107 -87.666 -169 -120.999s-128.667 -59.166 -200 -77.499s-146 -27.5 -224 -27.5c-77.333 0 -151.333 9.33301 -222 28s-136.5 45.167 -197.5 79.5
s-116.333 75.333 -166 123s-92 100.5 -127 158.5s-62.167 120.333 -81.5 187s-29 135.667 -29 207s9.83301 140.333 29.5 207s47.334 129 83.001 187s78.5 110.833 128.5 158.5s105.5 88.5 166.5 122.5s126.5 60.333 196.5 79s143 28 219 28c78 0 152.667 -9 224 -27
s138 -43.5 200 -76.5s118.333 -72.833 169 -119.5s94 -98.834 130 -156.501s63.833 -120.167 83.5 -187.5s29.5 -137.666 29.5 -210.999zM1348 753.998c0 60 -11.5 115.828 -34.5 167.495s-54.667 96.334 -95 134.001s-88.333 67.167 -144 88.5s-116.167 32 -181.5 32
c-58.667 0 -113.667 -11 -165 -33s-96 -52.167 -134 -90.5s-68 -83.166 -90 -134.499s-33 -106 -33 -164c0 -57.333 11.167 -111.666 33.5 -162.999s52.833 -96.166 91.5 -134.499s83.5 -68.666 134.5 -90.999s105.167 -33.5 162.5 -33.5c65.333 0 125.833 10.667 181.5 32
s103.667 50.833 144 88.5s72 82.167 95 133.5s34.5 107.333 34.5 168z" />
    <glyph glyph-name="p" unicode="p" horiz-adv-x="1798" 
d="M1331 733c0 61.333 -9.6709 119 -29.0039 173s-46.5 101 -81.5 141s-76.5 71.5 -124.5 94.5s-100.667 34.5 -158 34.5c-61.333 0 -116.5 -11.5 -165.5 -34.5s-90.667 -54.667 -125 -95s-60.666 -88.333 -78.999 -144s-27.5 -116.167 -27.5 -181.5
c0 -60.667 9.33301 -115.5 28 -164.5s45.334 -90.667 80.001 -125s76.834 -60.833 126.501 -79.5s105.167 -28 166.5 -28c56 0 107.833 10.5 155.5 31.5s88.834 50 123.501 87s61.667 80.333 81 130s29 103.167 29 160.5zM544.996 -700
c0 -26.667 -5.17285 -52.0029 -15.5059 -76.0029s-24.5 -45 -42.5 -63s-39 -32.167 -63 -42.5s-49.333 -15.5 -76 -15.5s-51.667 5.16699 -75 15.5s-43.666 24.5 -60.999 42.5s-31 39 -41 63s-15 49.333 -15 76v2023c0 28 5 54.167 15 78.5s23.833 45.5 41.5 63.5
s38.5 32.333 62.5 43s49.667 16 77 16c45.333 0 85.666 -13.333 120.999 -40s59.333 -62.667 72 -108c32 28.667 64.333 52.334 97 71.001s65.5 33.5 98.5 44.5s66.333 18.833 100 23.5s67.5 7.66699 101.5 9c67.333 2 133.5 -5 198.5 -21s126.5 -40 184.5 -72
s111.333 -71.333 160 -118s90.834 -99.5 126.501 -158.5s63.334 -123.5 83.001 -193.5s29.5 -144.667 29.5 -224c0 -71.333 -8.16699 -139.833 -24.5 -205.5s-40 -127.167 -71 -184.5s-69.167 -109.666 -114.5 -156.999s-97.166 -87.666 -155.499 -120.999
s-122.666 -59.333 -192.999 -78s-146.166 -28 -227.499 -28c-68 0 -135.167 8.16699 -201.5 24.5s-130.166 43.833 -191.499 82.5v-770z" />
    <glyph glyph-name="q" unicode="q" horiz-adv-x="1802" 
d="M475 733c0 -57.333 9.66309 -110.833 28.9961 -160.5s46.333 -93 81 -130s75.834 -66 123.501 -87s99.5 -31.5 155.5 -31.5c61.333 0 116.833 9.33301 166.5 28s92 45.167 127 79.5s61.833 76 80.5 125s28 103.833 28 164.5c0 65.333 -9.16699 125.833 -27.5 181.5
s-44.666 103.667 -78.999 144s-76.166 72 -125.499 95s-104.666 34.5 -165.999 34.5c-57.333 0 -110 -11.5 -158 -34.5s-89.5 -54.5 -124.5 -94.5s-62.167 -87 -81.5 -141s-29 -111.667 -29 -173zM1262 70c-63.333 -38 -127.669 -65.3311 -193.002 -81.998
s-132.333 -25 -201 -25c-81.333 0 -157.166 9.33301 -227.499 28s-134.666 44.667 -192.999 78s-110.166 73.666 -155.499 120.999s-83.5 99.666 -114.5 156.999s-54.667 118.833 -71 184.5s-24.5 134.167 -24.5 205.5c0 79.333 10 154 30 224s47.667 134.5 83 193.5
s77.333 111.833 126 158.5s102 86 160 118s119.5 56 184.5 72s131.167 23 198.5 21c34 -1.33301 67.5 -4.5 100.5 -9.5s66 -13 99 -24s66 -25.833 99 -44.5s66.167 -42 99.5 -70c5.33301 23.333 14.166 44.166 26.499 62.499s27 33.833 44 46.5s35.833 22.334 56.5 29.001
s42.334 10 65.001 10c28 0 54 -5.33301 78 -16s44.833 -25 62.5 -43s31.5 -39.167 41.5 -63.5s15 -50.5 15 -78.5v-2023c0 -26.667 -5 -52 -15 -76s-23.833 -45 -41.5 -63s-38.167 -32.167 -61.5 -42.5s-48.333 -15.5 -75 -15.5s-51.834 5.16699 -75.501 15.5
s-44.5 24.5 -62.5 42.5s-32.167 39 -42.5 63s-15.5 49.333 -15.5 76v770z" />
    <glyph glyph-name="r" unicode="r" horiz-adv-x="1044" 
d="M938 1499c23.333 -7.33301 44.3301 -19.165 62.9971 -35.498s33.667 -35.333 45 -57s18.5 -45 21.5 -70s0.833008 -49.833 -6.5 -74.5c-7.33301 -24 -18.666 -45.667 -33.999 -65s-33.333 -34.833 -54 -46.5s-43.167 -18.5 -67.5 -20.5s-49.166 2.33301 -74.499 13
c-37.333 16 -70.333 20.833 -99 14.5s-53.667 -20.5 -75 -42.5s-39.166 -49.833 -53.499 -83.5s-25.833 -69.834 -34.5 -108.501s-14.834 -77.834 -18.501 -117.501s-5.5 -76.167 -5.5 -109.5v-520c0 -26.667 -5.16699 -51.834 -15.5 -75.501s-24.5 -44.5 -42.5 -62.5
s-39 -32.167 -63 -42.5s-49.333 -15.5 -76 -15.5s-51.667 5.16699 -75 15.5s-43.666 24.5 -60.999 42.5s-31 38.833 -41 62.5s-15 48.834 -15 75.501v1147c0 28 5 54.167 15 78.5s23.833 45.5 41.5 63.5s38.5 32.333 62.5 43s49.667 16 77 16
c22.667 0 44.167 -3.5 64.5 -10.5s39 -16.667 56 -29s31.833 -27 44.5 -44s22 -35.833 28 -56.5v-4c38.667 49.333 81.5 84.333 128.5 105s94.167 31 141.5 31c22.667 0 44.167 -1.33301 64.5 -4s39.833 -7 58.5 -13z" />
    <glyph glyph-name="s" unicode="s" horiz-adv-x="1249" 
d="M94 303c-11.333 23.333 -17.3291 47.1621 -17.9961 71.4951s3 47.666 11 69.999s20.167 42.666 36.5 60.999s36.5 32.833 60.5 43.5c23.333 10.667 47.166 16.334 71.499 17.001s47.5 -3 69.5 -11s42.167 -20.167 60.5 -36.5s33.166 -36.166 44.499 -59.499
c9.33301 -19.333 20.166 -37.833 32.499 -55.5s26.5 -33 42.5 -46s34.167 -23.333 54.5 -31s42.833 -11.5 67.5 -11.5s47.667 4.5 69 13.5s40 21.5 56 37.5s28.5 34.833 37.5 56.5s13.5 44.834 13.5 69.501c0 19.333 -4.5 35.833 -13.5 49.5s-21.5 25.834 -37.5 36.501
s-35.333 20.167 -58 28.5s-48 16.5 -76 24.5c-32.667 10.667 -67.334 23.5 -104.001 38.5s-73 32.333 -109 52s-70.667 41.834 -104 66.501s-62.5 52.5 -87.5 83.5s-45 64.833 -60 101.5s-22.5 77 -22.5 121c0 68.667 13.667 130 41 184s63.833 99.833 109.5 137.5
s98.167 66.5 157.5 86.5s120.666 30 183.999 30c84 0 157.333 -16.333 220 -49s117.667 -76.334 165 -131.001c15.333 -19.333 26 -40.5 32 -63.5s7.66699 -45.833 5 -68.5s-9.83398 -44.667 -21.501 -66s-27.834 -40 -48.501 -56c-18.667 -15.333 -38.667 -26 -60 -32
s-42.833 -7.5 -64.5 -4.5s-42.667 10.167 -63 21.5s-38.833 26 -55.5 44c-22.667 24.667 -43.667 40.334 -63 47.001s-36.333 10 -51 10c-16 0 -30.167 -2.5 -42.5 -7.5s-22.666 -11.5 -30.999 -19.5s-14.5 -16.833 -18.5 -26.5s-6 -19.167 -6 -28.5
c0 -18.667 9.5 -35 28.5 -49s44.167 -27.5 75.5 -40.5s67 -26.5 107 -40.5s81 -30.167 123 -48.5s83 -39.833 123 -64.5s75.667 -54.334 107 -89.001s56.5 -75.167 75.5 -121.5s28.5 -100.166 28.5 -161.499c0 -76.667 -15 -147.167 -45 -211.5
s-70.667 -119.666 -122 -165.999s-110.833 -82.333 -178.5 -108s-139.5 -38.5 -215.5 -38.5c-65.333 0 -125.666 8.5 -180.999 25.5s-105.166 40.667 -149.499 71s-83.5 66.333 -117.5 108s-62.333 86.834 -85 135.501z" />
    <glyph glyph-name="t" unicode="t" horiz-adv-x="1020" 
d="M819 1499c24.667 0 47.667 -4.5 69 -13.5s40 -21.5 56 -37.5s28.5 -34.667 37.5 -56s13.5 -44.333 13.5 -69s-4.5 -47.667 -13.5 -69s-21.5 -40 -37.5 -56s-34.667 -28.5 -56 -37.5s-44.333 -13.5 -69 -13.5h-143v-971c0 -26.667 -5.16699 -51.834 -15.5 -75.501
s-24.5 -44.5 -42.5 -62.5s-39 -32.167 -63 -42.5s-49.333 -15.5 -76 -15.5s-51.834 5.16699 -75.501 15.5s-44.5 24.5 -62.5 42.5s-32.167 38.833 -42.5 62.5s-15.5 48.834 -15.5 75.501v971h-54c-24.667 0 -47.667 4.5 -69 13.5s-40 21.5 -56 37.5s-28.5 34.667 -37.5 56
s-13.5 44.333 -13.5 69s4.5 47.667 13.5 69s21.5 40 37.5 56s34.667 28.5 56 37.5s44.333 13.5 69 13.5h54v361c0 26.667 5.16699 51.834 15.5 75.501s24.5 44.5 42.5 62.5s38.833 32.167 62.5 42.5s48.834 15.5 75.501 15.5s52 -5.16699 76 -15.5s45 -24.5 63 -42.5
s32.167 -38.833 42.5 -62.5s15.5 -48.834 15.5 -75.501v-361h143z" />
    <glyph glyph-name="u" unicode="u" horiz-adv-x="1593" 
d="M1049 1323c0 26.667 5.16602 52.0029 15.499 76.0029s24.333 45 42 63s38.167 32.167 61.5 42.5s47.666 15.5 72.999 15.5c26.667 0 52 -5.16699 76 -15.5s45 -24.5 63 -42.5s32.167 -39 42.5 -63s15.5 -49.333 15.5 -76v-705c0 -93.333 -10.333 -179.666 -31 -258.999
s-55.667 -148 -105 -206s-115.166 -103.5 -197.499 -136.5s-185.5 -49.5 -309.5 -49.5c-123.333 0 -225.833 16.5 -307.5 49.5s-147.167 78.667 -196.5 137s-84.166 127.666 -104.499 207.999s-30.5 167.5 -30.5 261.5v700c0 26.667 5.16699 52 15.5 76s24.333 45 42 63
s38.167 32.167 61.5 42.5s47.666 15.5 72.999 15.5c26.667 0 52 -5.16699 76 -15.5s45 -24.5 63 -42.5s32.167 -39 42.5 -63s15.5 -49.333 15.5 -76v-700c0 -55.333 4.83301 -102 14.5 -140s24.5 -68.667 44.5 -92s45.833 -40.333 77.5 -51s69.5 -16 113.5 -16
c44.667 0 83 5.16699 115 15.5s58.333 27.166 79 50.499s35.834 54.166 45.501 92.499s14.5 85.166 14.5 140.499v700z" />
    <glyph glyph-name="v" unicode="v" horiz-adv-x="1556" 
d="M82 1245c-11.333 24.667 -17.332 49.835 -17.999 75.502s3 50.167 11 73.5s20.333 44.5 37 63.5s36.667 34.167 60 45.5s47.833 17.333 73.5 18s50.334 -3.16602 74.001 -11.499s45.167 -21 64.5 -38s34.666 -37.833 45.999 -62.5l307 -664l49 -131l45 136l295 659
c11.333 24.667 26.5 45.5 45.5 62.5s40.167 29.667 63.5 38s47.833 12.166 73.5 11.499s50.834 -6.66699 75.501 -18c24 -11.333 44.333 -26.5 61 -45.5s29 -40.167 37 -63.5s11.667 -47.833 11 -73.5s-6.66699 -50.834 -18 -75.501l-525 -1146
c-14.667 -32 -37 -58.167 -67 -78.5s-64 -30.5 -102 -30.5c-36.667 0 -69.834 9.66699 -99.501 29s-51.834 44.666 -66.501 75.999z" />
    <glyph glyph-name="w" unicode="w" horiz-adv-x="2466" 
d="M1084 1407c13.333 30 33.667 54.499 61 73.499s58.333 28.5 93 28.5c36 0 68 -9.5 96 -28.5s48.667 -43.833 62 -74.5l263 -615l57 -168l62 163l274 623c10 23.333 24.333 43.5 43 60.5s39.334 29.833 62 38.5c22.667 8.66699 46.667 12.834 72 12.501
s49.666 -6.16602 72.999 -17.499c22.667 -9.33301 42 -23.166 58 -41.499s28 -39 36 -62s11.833 -47.167 11.5 -72.5s-5.5 -50 -15.5 -74l-513 -1154c-14.667 -32 -36.667 -58.167 -66 -78.5s-63 -30.5 -101 -30.5c-36.667 0 -70 9.66699 -100 29s-51.667 44.666 -65 75.999
l-314 720l-302 -716c-13.333 -32.667 -35 -59 -65 -79s-64 -30 -102 -30c-36.667 0 -69.667 9.66699 -99 29s-51 44.666 -65 75.999l-522 1154c-11.333 24.667 -17.166 49.834 -17.499 75.501s3.83398 50 12.501 73s21.5 43.833 38.5 62.5s37.167 33 60.5 43
c23.333 11.333 47.666 17.166 72.999 17.499s49.5 -4 72.5 -13s44 -22.167 63 -39.5s34.167 -38.333 45.5 -63l283 -631l57 -147l49 143z" />
    <glyph glyph-name="x" unicode="x" horiz-adv-x="1573" 
d="M1430 283c16 -20.667 27.334 -42.8262 34.001 -66.4932s8.83398 -47.334 6.50098 -71.001s-9.33301 -46.334 -21 -68.001s-27.834 -40.834 -48.501 -57.501c-20.667 -16 -42.834 -27.167 -66.501 -33.5s-47.334 -8 -71.001 -5s-46.334 10.5 -68.001 22.5
s-40.5 28.333 -56.5 49l-361 443l-360 -447c-16.667 -19.333 -36 -34.833 -58 -46.5s-45 -18.834 -69 -21.501s-48.167 -0.833984 -72.5 5.49902s-46.5 17.5 -66.5 33.5c-19.333 15.333 -34.666 34 -45.999 56s-18.166 45.167 -20.499 69.5s-0.166016 48.5 6.50098 72.5
s18.334 45.667 35.001 65l405 503l-364 435c-16.667 19.333 -28.334 40.666 -35.001 63.999s-8.83398 46.833 -6.50098 70.5s9.16602 46.334 20.499 68.001s26.666 40.167 45.999 55.5c20 16 41.833 27.167 65.5 33.5s47.334 8.16602 71.001 5.49902
s46.334 -9.83398 68.001 -21.501s40.834 -27.167 57.501 -46.5l319 -389l316 385c16 20.667 35.167 37 57.5 49s45.5 19.5 69.5 22.5s48 1.33301 72 -5s46.333 -17.5 67 -33.5c20.667 -16.667 36.834 -36 48.501 -58s18.667 -45.167 21 -69.5s0.166016 -48.5 -6.50098 -72.5
s-18.334 -46.333 -35.001 -67l-356 -434z" />
    <glyph glyph-name="y" unicode="y" horiz-adv-x="1733" 
d="M696 25l-606.001 1228c-11.333 22.667 -17.333 46.334 -18 71.001s3.16602 48.5 11.499 71.5s20.666 44 36.999 63s36.166 33.833 59.499 44.5c22.667 10.667 46.334 16.334 71.001 17.001s48.334 -3 71.001 -11s43.5 -20.167 62.5 -36.5s34.167 -36.166 45.5 -59.499
l471 -938l418 938c10 23.333 24.5 43.166 43.5 59.499s40 28.5 63 36.5s47 11.667 72 11s48.833 -6.33398 71.5 -17.001c23.333 -10.667 43 -25.5 59 -44.5s28 -40 36 -63s11.667 -46.833 11 -71.5s-6 -48.334 -16 -71.001l-905 -2035c-10 -24 -24.167 -44.5 -42.5 -61.5
s-38.666 -30 -60.999 -39s-46.166 -13.5 -71.499 -13.5s-50.333 5 -75 15c-23.333 9.33301 -43.5 23 -60.5 41s-30 38.167 -39 60.5s-13.5 46.166 -13.5 71.499s5 49.666 15 72.999z" />
    <glyph glyph-name="z" unicode="z" horiz-adv-x="1491" 
d="M249 0c-27.333 0 -52.999 5.16602 -76.999 15.499s-45 24.5 -63 42.5s-32.167 39 -42.5 63s-15.5 49.667 -15.5 77c0 26 4.66699 50.5 14 73.5s22 43.167 38 60.5l753 819h-602c-24.667 0 -47.5 4.33301 -68.5 13s-39.167 20.667 -54.5 36s-27.333 33.5 -36 54.5
s-13 43.833 -13 68.5s4.33301 47.667 13 69s20.667 40 36 56s33.5 28.5 54.5 37.5s43.833 13.5 68.5 13.5h994c26.667 0 51.667 -5 75 -15s43.666 -23.667 60.999 -41s31 -37.666 41 -60.999s15 -48.333 15 -75c0 -25.333 -4.5 -49 -13.5 -71s-21.167 -41.667 -36.5 -59
l-759 -829h647c24.667 0 47.5 -4.5 68.5 -13.5s39.167 -21.5 54.5 -37.5s27.333 -34.667 36 -56s13 -44.333 13 -69s-4.33301 -47.5 -13 -68.5s-20.667 -39.167 -36 -54.5s-33.5 -27.333 -54.5 -36s-43.833 -13 -68.5 -13h-1029z" />
    <glyph glyph-name="braceleft" unicode="{" horiz-adv-x="934" 
d="M762 -123c24 -2 45.999 -8.83887 65.999 -20.5059s36.833 -26.667 50.5 -45s23.667 -38.833 30 -61.5s7.83301 -45.667 4.5 -69c-4 -24 -12.333 -45.667 -25 -65s-28 -35.833 -46 -49.5s-38.167 -23.834 -60.5 -30.501s-45.166 -9 -68.499 -7
c-26 2.66699 -53 7.16699 -81 13.5s-56.167 15 -84.5 26s-56 24.833 -83 41.5s-52.167 37.334 -75.5 62.001c-23.333 24 -42.666 50.333 -57.999 79s-27.5 60 -36.5 94s-15.333 70.667 -19 110s-5.5 81.666 -5.5 126.999v446c0 24.667 -3.16699 49 -9.5 73
s-16.833 47.333 -31.5 70s-34.334 44.667 -59.001 66s-55.334 42 -92.001 62v237c39.333 20.667 71.5 41.334 96.5 62.001s44.5 41.667 58.5 63s23.667 43 29 65s8 44.667 8 68v455c0 89.333 12 168.5 36 237.5s56.333 127.167 97 174.5s87.5 83.333 140.5 108
s108.167 37 165.5 37c23.333 0.666992 46.333 -2.33301 69 -9s43.334 -16.834 62.001 -30.5c18.667 -13.667 34.5 -30.334 47.5 -50c13 -19.667 21.5 -41.834 25.5 -66.5c3.33301 -23.333 2 -46.166 -4 -68.499s-16 -42.333 -30 -60s-31.167 -32.334 -51.5 -44.001
s-43.5 -18.5 -69.5 -20.5c-9.33301 -0.666992 -21 -2.66699 -35 -6s-27.5 -8.66602 -40.5 -15.999s-24.167 -17.5 -33.5 -30.5s-14 -29.5 -14 -49.5v-487c0 -57.333 -2.83301 -108.666 -8.5 -153.999s-14.334 -86.166 -26.001 -122.499s-26.167 -69 -43.5 -98
s-37.666 -55.833 -60.999 -80.5c23.333 -25.333 43.666 -53.166 60.999 -83.499s31.833 -64.333 43.5 -102s20.334 -79.667 26.001 -126s8.5 -98.166 8.5 -155.499v-466c0 -20.667 4.83301 -37.5 14.5 -50.5s21.167 -23.167 34.5 -30.5s27.333 -12.666 42 -15.999
s26.667 -5.33301 36 -6z" />
    <glyph glyph-name="bar" unicode="|" horiz-adv-x="893" 
d="M627 131c0 -24.667 -4.83301 -47.834 -14.5 -69.501s-22.667 -40.667 -39 -57s-35.5 -29.333 -57.5 -39s-45.333 -14.5 -70 -14.5s-47.667 4.83301 -69 14.5s-40 22.667 -56 39s-28.5 35.333 -37.5 57s-13.5 44.834 -13.5 69.501v2122c0 24.667 4.5 47.834 13.5 69.5
c9 21.667 21.5 40.667 37.5 57s34.667 29.333 56 39s44.333 14.5 69 14.5s48 -4.83301 70 -14.5s41.167 -22.667 57.5 -39s29.333 -35.333 39 -57s14.5 -44.834 14.5 -69.5v-2122z" />
    <glyph glyph-name="braceright" unicode="}" horiz-adv-x="934" 
d="M168 -123c9.33301 0.666992 21.1641 2.66895 35.4971 6.00195s28.333 8.66602 42 15.999s25.334 17.5 35.001 30.5s14.5 29.833 14.5 50.5v466c0 57.333 2.83301 109.166 8.5 155.499s14.167 88.333 25.5 126s25.833 71.667 43.5 102s38.167 58.166 61.5 83.499
c-23.333 24.667 -43.833 51.5 -61.5 80.5s-32.167 61.667 -43.5 98s-19.833 77.166 -25.5 122.499s-8.5 96.666 -8.5 153.999v487c0 20 -4.66699 36.5 -14 49.5s-20.5 23.167 -33.5 30.5s-26.5 12.666 -40.5 15.999s-25.667 5.33301 -35 6c-26 2 -49.167 8.83301 -69.5 20.5
s-37.5 26.334 -51.5 44.001s-24 37.667 -30 60.001c-6 22.333 -7.33301 45.166 -4 68.5c4 24.667 12.5 46.834 25.5 66.5c13 19.667 28.833 36.334 47.5 50c18.667 13.667 39.334 23.834 62.001 30.501s45.667 9.66699 69 9c57.333 0 112.5 -12.333 165.5 -37
s99.667 -60.667 140 -108s72.666 -105.5 96.999 -174.5s36.5 -148.167 36.5 -237.5v-455c0 -23.333 2.66699 -46 8 -68s15 -43.667 29 -65s33.5 -42.333 58.5 -63s57.167 -41.334 96.5 -62.001v-237c-36.667 -20 -67.334 -40.667 -92.001 -62s-44.334 -43.333 -59.001 -66
s-25.167 -46 -31.5 -70s-9.5 -48.333 -9.5 -73v-446c0 -45.333 -1.83301 -87.666 -5.5 -126.999s-10 -76 -19 -110s-21.167 -65.333 -36.5 -94s-34.666 -55 -57.999 -79c-24 -24 -49.5 -44.5 -76.5 -61.5s-54.5 -31 -82.5 -42s-56 -19.667 -84 -26s-55 -10.833 -81 -13.5
c-23.333 -2 -46.166 0.333008 -68.499 7s-42.666 16.834 -60.999 30.501s-33.666 30.167 -45.999 49.5s-20.5 41 -24.5 65c-3.33301 23.333 -2 46.333 4 69s15.833 43.167 29.5 61.5s30.667 33.333 51 45s42.5 18.5 66.5 20.5z" />
    <glyph glyph-name="asciitilde" unicode="~" horiz-adv-x="1876" 
d="M163 728l92.001 113.5c31.333 38.333 66 72.833 104 103.5s80.5 55.667 127.5 75s100.5 29 160.5 29c37.333 0 76 -5.33301 116 -16s79.667 -24.167 119 -40.5s77.666 -33.833 114.999 -52.5l105 -52.5c32.667 -16.333 62.167 -29.833 88.5 -40.5s48.5 -16 66.5 -16
c14 0 29.5 6.66699 46.5 20s33.5 29.166 49.5 47.499s30.667 36.833 44 55.5s23.333 33.334 30 44.001c28 44 63.5 71.167 106.5 81.5s86.167 4.16602 129.5 -18.501c22.667 -12 41.834 -28.167 57.501 -48.5s27.167 -42.5 34.5 -66.5s9.66602 -48.5 6.99902 -73.5
s-11 -48.167 -25 -69.5c-27.333 -39.333 -56.333 -77.666 -87 -114.999s-64.667 -75.666 -102 -114.999c-73.333 -73.333 -171.666 -110 -294.999 -110c-38.667 0 -76.167 5.5 -112.5 16.5s-71.5 24.667 -105.5 41s-67.333 34 -100 53s-65 36.667 -97 53
s-63.833 30 -95.5 41s-63.5 16.5 -95.5 16.5c-12 0 -26.5 -5.5 -43.5 -16.5s-34.333 -24.5 -52 -40.5s-34.334 -32.667 -50.001 -50s-28.5 -32.333 -38.5 -45c-16 -20.667 -34.5 -38.167 -55.5 -52.5s-43.333 -24.333 -67 -30s-48 -6.33398 -73 -2.00098
s-49.167 14.833 -72.5 31.5c-16.667 12 -30.667 27.833 -42 47.5s-19 41 -23 64s-3.5 46.5 1.5 70.5s15.5 46.333 31.5 67z" />
    <glyph glyph-name="saraileftthai" 
d="M-856 2433c23.333 0 45.5 -4.5 66.5 -13.5s39.333 -21.5 55 -37.5s28 -34.667 37 -56s13.5 -44.333 13.5 -69c0 -23.333 -4.5 -45.5 -13.5 -66.5s-21.333 -39.333 -37 -55s-34 -28 -55 -37s-43.167 -13.5 -66.5 -13.5h-959c-23.333 0 -45.5 4.5 -66.5 13.5
s-39.333 21.333 -55 37s-28 34 -37 55s-13.5 43.167 -13.5 66.5c0 24.667 4.5 47.667 13.5 69s21.333 40 37 56s34 28.5 55 37.5s43.167 13.5 66.5 13.5h959z" />
    <glyph glyph-name="saraileftthai" unicode="&#xf701;" 
d="M-856 2433c23.333 0 45.5 -4.5 66.5 -13.5s39.333 -21.5 55 -37.5s28 -34.667 37 -56s13.5 -44.333 13.5 -69c0 -23.333 -4.5 -45.5 -13.5 -66.5s-21.333 -39.333 -37 -55s-34 -28 -55 -37s-43.167 -13.5 -66.5 -13.5h-959c-23.333 0 -45.5 4.5 -66.5 13.5
s-39.333 21.333 -55 37s-28 34 -37 55s-13.5 43.167 -13.5 66.5c0 24.667 4.5 47.667 13.5 69s21.333 40 37 56s34 28.5 55 37.5s43.167 13.5 66.5 13.5h959z" />
    <glyph glyph-name="saraiileftthai" 
d="M-1815 2085c-23.333 0 -45.5 4.5 -66.5 13.5s-39.333 21.333 -55 37s-28 34 -37 55s-13.5 43.167 -13.5 66.5c0 24.667 4.5 47.667 13.5 69s21.333 40 37 56s34 28.5 55 37.5s43.167 13.5 66.5 13.5h758v78c0 24.667 4.5 47.667 13.5 69s21.5 40 37.5 56
s34.667 28.5 56 37.5s44.333 13.5 69 13.5s47.667 -4.5 69 -13.5s40 -21.5 56 -37.5s28.5 -34.667 37.5 -56s13.5 -44.333 13.5 -69v-254c0 -23.333 -4.5 -45.5 -13.5 -66.5s-21.333 -39.333 -37 -55s-34 -28 -55 -37s-43.167 -13.5 -66.5 -13.5h-938z" />
    <glyph glyph-name="saraiileftthai" unicode="&#xf702;" 
d="M-1815 2085c-23.333 0 -45.5 4.5 -66.5 13.5s-39.333 21.333 -55 37s-28 34 -37 55s-13.5 43.167 -13.5 66.5c0 24.667 4.5 47.667 13.5 69s21.333 40 37 56s34 28.5 55 37.5s43.167 13.5 66.5 13.5h758v78c0 24.667 4.5 47.667 13.5 69s21.5 40 37.5 56
s34.667 28.5 56 37.5s44.333 13.5 69 13.5s47.667 -4.5 69 -13.5s40 -21.5 56 -37.5s28.5 -34.667 37.5 -56s13.5 -44.333 13.5 -69v-254c0 -23.333 -4.5 -45.5 -13.5 -66.5s-21.333 -39.333 -37 -55s-34 -28 -55 -37s-43.167 -13.5 -66.5 -13.5h-938z" />
    <glyph glyph-name="saraueleftthai" 
d="M-1081 2380c0 -13.333 2.66699 -26 8 -38s12.5 -22.5 21.5 -31.5s19.333 -16.167 31 -21.5s24.167 -8 37.5 -8s25.833 2.66699 37.5 8s22 12.5 31 21.5s16.167 19.5 21.5 31.5s8 24.667 8 38s-2.66699 25.833 -8 37.5s-12.5 22 -21.5 31s-19.333 16.167 -31 21.5
s-24.167 8 -37.5 8s-25.833 -2.66699 -37.5 -8s-22 -12.5 -31 -21.5s-16.167 -19.333 -21.5 -31s-8 -24.167 -8 -37.5zM-1274 2433c7.33301 36 19.833 69 37.5 99s39.334 55.833 65.001 77.5s54.5 38.667 86.5 51s66 18.5 102 18.5c40.667 0 79.167 -7.66699 115.5 -23
s68.166 -36.333 95.499 -63s48.833 -58 64.5 -94s23.5 -74.333 23.5 -115c0 -41.333 -7.83301 -80 -23.5 -116s-37 -67.667 -64 -95s-58.333 -48.833 -94 -64.5s-73.5 -23.5 -113.5 -23.5h-836c-23.333 0 -45.5 4.5 -66.5 13.5s-39.333 21.333 -55 37s-28 34 -37 55
s-13.5 43.167 -13.5 66.5c0 24.667 4.5 47.667 13.5 69s21.333 40 37 56s34 28.5 55 37.5s43.167 13.5 66.5 13.5h541z" />
    <glyph glyph-name="saraueleftthai" unicode="&#xf703;" 
d="M-1081 2380c0 -13.333 2.66699 -26 8 -38s12.5 -22.5 21.5 -31.5s19.333 -16.167 31 -21.5s24.167 -8 37.5 -8s25.833 2.66699 37.5 8s22 12.5 31 21.5s16.167 19.5 21.5 31.5s8 24.667 8 38s-2.66699 25.833 -8 37.5s-12.5 22 -21.5 31s-19.333 16.167 -31 21.5
s-24.167 8 -37.5 8s-25.833 -2.66699 -37.5 -8s-22 -12.5 -31 -21.5s-16.167 -19.333 -21.5 -31s-8 -24.167 -8 -37.5zM-1274 2433c7.33301 36 19.833 69 37.5 99s39.334 55.833 65.001 77.5s54.5 38.667 86.5 51s66 18.5 102 18.5c40.667 0 79.167 -7.66699 115.5 -23
s68.166 -36.333 95.499 -63s48.833 -58 64.5 -94s23.5 -74.333 23.5 -115c0 -41.333 -7.83301 -80 -23.5 -116s-37 -67.667 -64 -95s-58.333 -48.833 -94 -64.5s-73.5 -23.5 -113.5 -23.5h-836c-23.333 0 -45.5 4.5 -66.5 13.5s-39.333 21.333 -55 37s-28 34 -37 55
s-13.5 43.167 -13.5 66.5c0 24.667 4.5 47.667 13.5 69s21.333 40 37 56s34 28.5 55 37.5s43.167 13.5 66.5 13.5h541z" />
    <glyph glyph-name="saraueeleftthai" 
d="M-1815 2085c-23.333 0 -45.501 4.5 -66.501 13.5s-39.333 21.333 -55 37s-28 34 -37 55s-13.5 43.167 -13.5 66.5c0 24.667 4.5 47.667 13.5 69s21.333 40 37 56s34 28.5 55 37.5s43.167 13.5 66.5 13.5h283v82c0 22.667 4.5 43.834 13.5 63.5c9 19.667 21 37 36 52
s32.5 26.833 52.5 35.5s40.667 13 62 13c22.667 0 44.167 -4.33301 64.5 -13s38.166 -20.5 53.499 -35.5s27.5 -32.333 36.5 -52s13.5 -40.834 13.5 -63.5v-82h164v78c0 23.333 4.5 45.333 13.5 66s21.167 38.5 36.5 53.5s33.166 26.833 53.499 35.5s41.833 13 64.5 13
s43.834 -4.33301 63.501 -13s36.834 -20.5 51.501 -35.5s26.334 -32.833 35.001 -53.5s13 -42.667 13 -66v-254c0 -23.333 -4.5 -45.5 -13.5 -66.5s-21.333 -39.333 -37 -55s-34 -28 -55 -37s-43.167 -13.5 -66.5 -13.5h-938z" />
    <glyph glyph-name="saraueeleftthai" unicode="&#xf704;" 
d="M-1815 2085c-23.333 0 -45.501 4.5 -66.501 13.5s-39.333 21.333 -55 37s-28 34 -37 55s-13.5 43.167 -13.5 66.5c0 24.667 4.5 47.667 13.5 69s21.333 40 37 56s34 28.5 55 37.5s43.167 13.5 66.5 13.5h283v82c0 22.667 4.5 43.834 13.5 63.5c9 19.667 21 37 36 52
s32.5 26.833 52.5 35.5s40.667 13 62 13c22.667 0 44.167 -4.33301 64.5 -13s38.166 -20.5 53.499 -35.5s27.5 -32.333 36.5 -52s13.5 -40.834 13.5 -63.5v-82h164v78c0 23.333 4.5 45.333 13.5 66s21.167 38.5 36.5 53.5s33.166 26.833 53.499 35.5s41.833 13 64.5 13
s43.834 -4.33301 63.501 -13s36.834 -20.5 51.501 -35.5s26.334 -32.833 35.001 -53.5s13 -42.667 13 -66v-254c0 -23.333 -4.5 -45.5 -13.5 -66.5s-21.333 -39.333 -37 -55s-34 -28 -55 -37s-43.167 -13.5 -66.5 -13.5h-938z" />
    <glyph glyph-name="maieklowleftthai" 
d="M-1167 2658c0 24.667 5.66699 47.667 17 69s26 40 44 56s38.5 28.5 61.5 37.5s46.167 13.5 69.5 13.5s46.333 -4.5 69 -13.5s42.834 -21.5 60.501 -37.5s32 -34.667 43 -56s16.5 -44.333 16.5 -69v-417c0 -24.667 -5.5 -47.834 -16.5 -69.5
c-11 -21.667 -25.333 -40.5 -43 -56.5s-37.834 -28.5 -60.501 -37.5s-45.667 -13.5 -69 -13.5s-46.5 4.5 -69.5 13.5s-43.5 21.5 -61.5 37.5s-32.667 34.833 -44 56.5s-17 44.834 -17 69.5v417z" />
    <glyph glyph-name="maieklowleftthai" unicode="&#xf705;" 
d="M-1167 2658c0 24.667 5.66699 47.667 17 69s26 40 44 56s38.5 28.5 61.5 37.5s46.167 13.5 69.5 13.5s46.333 -4.5 69 -13.5s42.834 -21.5 60.501 -37.5s32 -34.667 43 -56s16.5 -44.333 16.5 -69v-417c0 -24.667 -5.5 -47.834 -16.5 -69.5
c-11 -21.667 -25.333 -40.5 -43 -56.5s-37.834 -28.5 -60.501 -37.5s-45.667 -13.5 -69 -13.5s-46.5 4.5 -69.5 13.5s-43.5 21.5 -61.5 37.5s-32.667 34.833 -44 56.5s-17 44.834 -17 69.5v417z" />
    <glyph glyph-name="maitholowleftthai" 
d="M-1569 2474c-15.333 -10 -31.333 -16.5 -48 -19.5s-33.167 -2.5 -49.5 1.5s-31.666 11 -45.999 21s-26.5 22.667 -36.5 38s-16.333 31.166 -19 47.5c-2.66699 16.333 -2 32.5 2 48.5s11 31.167 21 45.5s22.333 27.166 37 38.5c14.667 11.333 37.167 22.333 67.5 33
s69.166 16 116.499 16c44 0 86 -7.16699 126 -21.5s75.333 -34.833 106 -61.5s55 -59.334 73 -98c18 -38.667 27 -82 27 -130c0 -10 -0.166992 -18.5 -0.5 -25.5s-1.5 -13.5 -3.5 -19.5l37 4h360c19.333 0 37.833 -4.66699 55.5 -14s33 -21.5 46 -36.5
s23.333 -32.167 31 -51.5s11.5 -38.666 11.5 -58c0 -19.333 -3.83301 -38 -11.5 -56s-18 -33.667 -31 -47s-28.333 -24 -46 -32s-36.167 -12 -55.5 -12h-843c22.667 51.333 46.667 101 72 149l67 129c8 16 13.5 31.167 16.5 45.5s3 27 0 38s-9.33301 19.667 -19 26
s-22.5 9.5 -38.5 9.5c-4 0 -8.16699 -0.833008 -12.5 -2.5s-8.5 -3.5 -12.5 -5.5z" />
    <glyph glyph-name="maitholowleftthai" unicode="&#xf706;" 
d="M-1569 2474c-15.333 -10 -31.333 -16.5 -48 -19.5s-33.167 -2.5 -49.5 1.5s-31.666 11 -45.999 21s-26.5 22.667 -36.5 38s-16.333 31.166 -19 47.5c-2.66699 16.333 -2 32.5 2 48.5s11 31.167 21 45.5s22.333 27.166 37 38.5c14.667 11.333 37.167 22.333 67.5 33
s69.166 16 116.499 16c44 0 86 -7.16699 126 -21.5s75.333 -34.833 106 -61.5s55 -59.334 73 -98c18 -38.667 27 -82 27 -130c0 -10 -0.166992 -18.5 -0.5 -25.5s-1.5 -13.5 -3.5 -19.5l37 4h360c19.333 0 37.833 -4.66699 55.5 -14s33 -21.5 46 -36.5
s23.333 -32.167 31 -51.5s11.5 -38.666 11.5 -58c0 -19.333 -3.83301 -38 -11.5 -56s-18 -33.667 -31 -47s-28.333 -24 -46 -32s-36.167 -12 -55.5 -12h-843c22.667 51.333 46.667 101 72 149l67 129c8 16 13.5 31.167 16.5 45.5s3 27 0 38s-9.33301 19.667 -19 26
s-22.5 9.5 -38.5 9.5c-4 0 -8.16699 -0.833008 -12.5 -2.5s-8.5 -3.5 -12.5 -5.5z" />
    <glyph glyph-name="maitrilowleftthai" 
d="M-1765 2109c-19.333 13.333 -38.332 28.666 -56.999 46c-18.667 17.333 -35.334 36.833 -50.001 58.5s-26.5 46 -35.5 73s-13.5 56.833 -13.5 89.5c0 52 9.83301 99.667 29.5 143s46.167 80.5 79.5 111.5s72.5 55 117.5 72s92.5 25.5 142.5 25.5
c30.667 0 62.667 -6.66699 96 -20s65.333 -32.333 96 -57c31.333 24.667 63.666 43.667 96.999 57s66.666 20 99.999 20c48 0 93.167 -8 135.5 -24s79.666 -38.667 111.999 -68s58.333 -64.333 78 -105s31.167 -85.667 34.5 -135h17c21.333 0 41.5 -4 60.5 -12
s35.5 -19 49.5 -33s25 -30.5 33 -49.5s12 -39.167 12 -60.5c0 -22 -4 -42.5 -12 -61.5s-19 -35.5 -33 -49.5s-30.5 -25 -49.5 -33s-39.167 -12 -60.5 -12h-496l39.5 59l44.5 68.5c14.667 23.667 28.5 47.167 41.5 70.5s23.167 44.666 30.5 64c6 19.333 7 36.166 3 50.5
c-4 14.333 -11 25.5 -21 33.5s-21.5 12.5 -34.5 13.5s-25.167 -1.83301 -36.5 -8.5s-20.5 -17.667 -27.5 -33s-9.16699 -35.333 -6.5 -60h-217c5.33301 30 1.83301 53.833 -10.5 71.5s-27.166 28.667 -44.499 33s-33.666 1.33301 -48.999 -9s-23 -28.5 -23 -54.5
c0 -18.667 3.5 -33 10.5 -43s11.5 -16.333 13.5 -19c14.667 -14 25.834 -29.833 33.501 -47.5s12 -35.5 13 -53.5s-1.66699 -36 -8 -54s-16.5 -34.333 -30.5 -49c-13.333 -14 -28.333 -24.667 -45 -32s-34 -11.333 -52 -12s-36.333 2 -55 8s-36 15 -52 27z" />
    <glyph glyph-name="maitrilowleftthai" unicode="&#xf707;" 
d="M-1765 2109c-19.333 13.333 -38.332 28.666 -56.999 46c-18.667 17.333 -35.334 36.833 -50.001 58.5s-26.5 46 -35.5 73s-13.5 56.833 -13.5 89.5c0 52 9.83301 99.667 29.5 143s46.167 80.5 79.5 111.5s72.5 55 117.5 72s92.5 25.5 142.5 25.5
c30.667 0 62.667 -6.66699 96 -20s65.333 -32.333 96 -57c31.333 24.667 63.666 43.667 96.999 57s66.666 20 99.999 20c48 0 93.167 -8 135.5 -24s79.666 -38.667 111.999 -68s58.333 -64.333 78 -105s31.167 -85.667 34.5 -135h17c21.333 0 41.5 -4 60.5 -12
s35.5 -19 49.5 -33s25 -30.5 33 -49.5s12 -39.167 12 -60.5c0 -22 -4 -42.5 -12 -61.5s-19 -35.5 -33 -49.5s-30.5 -25 -49.5 -33s-39.167 -12 -60.5 -12h-496l39.5 59l44.5 68.5c14.667 23.667 28.5 47.167 41.5 70.5s23.167 44.666 30.5 64c6 19.333 7 36.166 3 50.5
c-4 14.333 -11 25.5 -21 33.5s-21.5 12.5 -34.5 13.5s-25.167 -1.83301 -36.5 -8.5s-20.5 -17.667 -27.5 -33s-9.16699 -35.333 -6.5 -60h-217c5.33301 30 1.83301 53.833 -10.5 71.5s-27.166 28.667 -44.499 33s-33.666 1.33301 -48.999 -9s-23 -28.5 -23 -54.5
c0 -18.667 3.5 -33 10.5 -43s11.5 -16.333 13.5 -19c14.667 -14 25.834 -29.833 33.501 -47.5s12 -35.5 13 -53.5s-1.66699 -36 -8 -54s-16.5 -34.333 -30.5 -49c-13.333 -14 -28.333 -24.667 -45 -32s-34 -11.333 -52 -12s-36.333 2 -55 8s-36 15 -52 27z" />
    <glyph glyph-name="maichattawalowleftthai" 
d="M-922 2335v-86c0 -26 -4.83301 -50.167 -14.5 -72.5s-22.834 -41.833 -39.501 -58.5s-36.167 -29.834 -58.5 -39.5c-22.333 -9.66699 -46.166 -14.5 -71.499 -14.5s-49.166 4.83301 -71.499 14.5s-41.833 22.834 -58.5 39.5c-16.667 16.667 -29.834 36.167 -39.501 58.5
s-14.5 46.5 -14.5 72.5v86h-111c-23.333 0 -45.5 4.33301 -66.5 13s-39.333 20.5 -55 35.5s-28 32.667 -37 53s-13.5 42.5 -13.5 66.5c0 23.333 4.5 45.5 13.5 66.5s21.333 39.333 37 55s34 28 55 37s43.167 13.5 66.5 13.5h111v90c0 25.333 4.83301 49.166 14.5 71.5
c9.66699 22.333 22.834 41.833 39.501 58.5s36.167 29.834 58.5 39.5c22.333 9.66699 46.166 14.5 71.499 14.5s49.166 -4.83301 71.499 -14.5s41.833 -22.834 58.5 -39.5c16.667 -16.667 29.834 -36.167 39.501 -58.5s14.5 -46.166 14.5 -71.5v-90h115
c23.333 0 45.5 -4.5 66.5 -13.5s39.333 -21.333 55 -37s28 -34 37 -55s13.5 -43.167 13.5 -66.5c0 -24 -4.5 -46.167 -13.5 -66.5s-21.333 -38 -37 -53s-34 -26.833 -55 -35.5s-43.167 -13 -66.5 -13h-115z" />
    <glyph glyph-name="maichattawalowleftthai" unicode="&#xf708;" 
d="M-922 2335v-86c0 -26 -4.83301 -50.167 -14.5 -72.5s-22.834 -41.833 -39.501 -58.5s-36.167 -29.834 -58.5 -39.5c-22.333 -9.66699 -46.166 -14.5 -71.499 -14.5s-49.166 4.83301 -71.499 14.5s-41.833 22.834 -58.5 39.5c-16.667 16.667 -29.834 36.167 -39.501 58.5
s-14.5 46.5 -14.5 72.5v86h-111c-23.333 0 -45.5 4.33301 -66.5 13s-39.333 20.5 -55 35.5s-28 32.667 -37 53s-13.5 42.5 -13.5 66.5c0 23.333 4.5 45.5 13.5 66.5s21.333 39.333 37 55s34 28 55 37s43.167 13.5 66.5 13.5h111v90c0 25.333 4.83301 49.166 14.5 71.5
c9.66699 22.333 22.834 41.833 39.501 58.5s36.167 29.834 58.5 39.5c22.333 9.66699 46.166 14.5 71.499 14.5s49.166 -4.83301 71.499 -14.5s41.833 -22.834 58.5 -39.5c16.667 -16.667 29.834 -36.167 39.501 -58.5s14.5 -46.166 14.5 -71.5v-90h115
c23.333 0 45.5 -4.5 66.5 -13.5s39.333 -21.333 55 -37s28 -34 37 -55s13.5 -43.167 13.5 -66.5c0 -24 -4.5 -46.167 -13.5 -66.5s-21.333 -38 -37 -53s-34 -26.833 -55 -35.5s-43.167 -13 -66.5 -13h-115z" />
    <glyph glyph-name="thanthakhatlowleftthai" 
d="M-1282 2019c-24.667 24.667 -47.167 50.168 -67.5 76.502c-20.333 26.333 -38 53.333 -53 81s-26.667 55.334 -35 83c-8.33301 27.667 -12.5 55.5 -12.5 83.5c0 48 8.66699 91.333 26 130s41.166 71.834 71.499 99.5c30.333 27.667 66.333 48.834 108 63.5
c41.667 14.667 86.5 22 134.5 22h299c20.667 0 40.334 -3.83301 59.001 -11.5s35.167 -18.167 49.5 -31.5s25.833 -28.833 34.5 -46.5s13 -36.834 13 -57.5c0 -20.667 -4.33301 -39.667 -13 -57s-20.167 -32.5 -34.5 -45.5s-30.833 -23.167 -49.5 -30.5
s-38.334 -11 -59.001 -11h-262c-14 0 -25.667 -2.33301 -35 -7s-15.5 -11.167 -18.5 -19.5s-2.33301 -18.333 2 -30s13.166 -24.167 26.499 -37.5l41 -41c17.333 -16 29.833 -33.333 37.5 -52s11.167 -37.334 10.5 -56.001s-5.16699 -37 -13.5 -55
s-19.833 -34.667 -34.5 -50c-15.333 -15.333 -33.166 -26.5 -53.499 -33.5s-41 -10.167 -62 -9.5s-41.167 4.66699 -60.5 12s-35.666 17.666 -48.999 30.999z" />
    <glyph glyph-name="thanthakhatlowleftthai" unicode="&#xf709;" 
d="M-1282 2019c-24.667 24.667 -47.167 50.168 -67.5 76.502c-20.333 26.333 -38 53.333 -53 81s-26.667 55.334 -35 83c-8.33301 27.667 -12.5 55.5 -12.5 83.5c0 48 8.66699 91.333 26 130s41.166 71.834 71.499 99.5c30.333 27.667 66.333 48.834 108 63.5
c41.667 14.667 86.5 22 134.5 22h299c20.667 0 40.334 -3.83301 59.001 -11.5s35.167 -18.167 49.5 -31.5s25.833 -28.833 34.5 -46.5s13 -36.834 13 -57.5c0 -20.667 -4.33301 -39.667 -13 -57s-20.167 -32.5 -34.5 -45.5s-30.833 -23.167 -49.5 -30.5
s-38.334 -11 -59.001 -11h-262c-14 0 -25.667 -2.33301 -35 -7s-15.5 -11.167 -18.5 -19.5s-2.33301 -18.333 2 -30s13.166 -24.167 26.499 -37.5l41 -41c17.333 -16 29.833 -33.333 37.5 -52s11.167 -37.334 10.5 -56.001s-5.16699 -37 -13.5 -55
s-19.833 -34.667 -34.5 -50c-15.333 -15.333 -33.166 -26.5 -53.499 -33.5s-41 -10.167 -62 -9.5s-41.167 4.66699 -60.5 12s-35.666 17.666 -48.999 30.999z" />
    <glyph glyph-name="maieklowrightthai" 
d="M-541 2658c0 24.667 5.66699 47.667 17 69s26.166 40 44.499 56s39 28.5 62 37.5s46.167 13.5 69.5 13.5s46.333 -4.5 69 -13.5s42.834 -21.5 60.501 -37.5s31.834 -34.667 42.501 -56s16 -44.333 16 -69v-417c0 -24.667 -5.33301 -47.834 -16 -69.5
c-10.667 -21.667 -24.834 -40.5 -42.501 -56.5s-37.834 -28.5 -60.501 -37.5s-45.667 -13.5 -69 -13.5s-46.5 4.5 -69.5 13.5s-43.667 21.5 -62 37.5s-33.166 34.833 -44.499 56.5s-17 44.834 -17 69.5v417z" />
    <glyph glyph-name="maieklowrightthai" unicode="&#xf70a;" 
d="M-541 2658c0 24.667 5.66699 47.667 17 69s26.166 40 44.499 56s39 28.5 62 37.5s46.167 13.5 69.5 13.5s46.333 -4.5 69 -13.5s42.834 -21.5 60.501 -37.5s31.834 -34.667 42.501 -56s16 -44.333 16 -69v-417c0 -24.667 -5.33301 -47.834 -16 -69.5
c-10.667 -21.667 -24.834 -40.5 -42.501 -56.5s-37.834 -28.5 -60.501 -37.5s-45.667 -13.5 -69 -13.5s-46.5 4.5 -69.5 13.5s-43.667 21.5 -62 37.5s-33.166 34.833 -44.499 56.5s-17 44.834 -17 69.5v417z" />
    <glyph glyph-name="maitholowrightthai" 
d="M-1049 2474c-15.333 -10 -31.332 -16.5 -47.999 -19.5s-33.167 -2.5 -49.5 1.5s-31.666 11 -45.999 21s-26.5 22.667 -36.5 38s-16.167 31.166 -18.5 47.5c-2.33301 16.333 -1.5 32.5 2.5 48.5s11 31.167 21 45.5s22 27.166 36 38.5c14.667 10.667 37.167 21.5 67.5 32.5
s69.166 16.5 116.499 16.5c44 0 86.167 -7.16699 126.5 -21.5s75.666 -34.833 105.999 -61.5s54.5 -59.334 72.5 -98c18 -38.667 27 -82 27 -130c0 -10 -0.166992 -18.5 -0.5 -25.5s-1.5 -13.5 -3.5 -19.5l37 4h360c19.333 0 37.833 -4.66699 55.5 -14s33 -21.5 46 -36.5
s23.333 -32.167 31 -51.5s11.5 -38.666 11.5 -58c0 -19.333 -3.83301 -38 -11.5 -56s-18 -33.667 -31 -47s-28.333 -24 -46 -32s-36.167 -12 -55.5 -12h-851l79 149l68 129c8 16 13.5 31.167 16.5 45.5s3 27 0 38s-9.16699 19.667 -18.5 26s-22.333 9.5 -39 9.5
c-4 0 -8 -0.833008 -12 -2.5z" />
    <glyph glyph-name="maitholowrightthai" unicode="&#xf70b;" 
d="M-1049 2474c-15.333 -10 -31.332 -16.5 -47.999 -19.5s-33.167 -2.5 -49.5 1.5s-31.666 11 -45.999 21s-26.5 22.667 -36.5 38s-16.167 31.166 -18.5 47.5c-2.33301 16.333 -1.5 32.5 2.5 48.5s11 31.167 21 45.5s22 27.166 36 38.5c14.667 10.667 37.167 21.5 67.5 32.5
s69.166 16.5 116.499 16.5c44 0 86.167 -7.16699 126.5 -21.5s75.666 -34.833 105.999 -61.5s54.5 -59.334 72.5 -98c18 -38.667 27 -82 27 -130c0 -10 -0.166992 -18.5 -0.5 -25.5s-1.5 -13.5 -3.5 -19.5l37 4h360c19.333 0 37.833 -4.66699 55.5 -14s33 -21.5 46 -36.5
s23.333 -32.167 31 -51.5s11.5 -38.666 11.5 -58c0 -19.333 -3.83301 -38 -11.5 -56s-18 -33.667 -31 -47s-28.333 -24 -46 -32s-36.167 -12 -55.5 -12h-851l79 149l68 129c8 16 13.5 31.167 16.5 45.5s3 27 0 38s-9.16699 19.667 -18.5 26s-22.333 9.5 -39 9.5
c-4 0 -8 -0.833008 -12 -2.5z" />
    <glyph glyph-name="maitrilowrightthai" 
d="M-1294 2109c-19.333 14 -38.3311 29.667 -56.998 47s-35.334 36.833 -50.001 58.5s-26.5 45.834 -35.5 72.5c-9 26.667 -13.5 56.334 -13.5 89c0 52 9.83301 99.667 29.5 143s46.167 80.5 79.5 111.5s72.5 55 117.5 72s92.5 25.5 142.5 25.5
c30.667 0 62.667 -5.5 96 -16.5s65.333 -28.833 96 -53.5c31.333 24.667 63.666 42.5 96.999 53.5s66.666 16.5 99.999 16.5c48 0 93.667 -8 137 -24s81.5 -38.667 114.5 -68s59.333 -64.333 79 -105s29.5 -85.667 29.5 -135v-20h197c21.333 0 41.5 -3.66699 60.5 -11
s35.5 -17.5 49.5 -30.5s25 -28.667 33 -47s12 -38.166 12 -59.5c0 -21.333 -4 -40.833 -12 -58.5s-19 -32.834 -33 -45.5c-14 -12.667 -30.5 -22.334 -49.5 -29c-19 -6.66699 -39.167 -10 -60.5 -10h-676l39.5 59l44.5 68.5c14.667 23.667 28.5 47.167 41.5 70.5
s23.167 44.666 30.5 64c4 12 5.5 24 4.5 36s-4 22.5 -9 31.5s-11.667 16.333 -20 22s-18.166 8.5 -29.499 8.5c-8 0 -16.167 -1.66699 -24.5 -5s-15.666 -9 -21.999 -17s-11.666 -18.5 -15.999 -31.5s-6.5 -29.167 -6.5 -48.5h-217c-4 70.667 -29.333 106 -76 106
c-16.667 0 -31 -5.16699 -43 -15.5s-18 -26.833 -18 -49.5c0 -9.33301 1.33301 -17.666 4 -25c2.66699 -7.33301 5.66699 -13.666 9 -19c3.33301 -5.33301 6.5 -9.66602 9.5 -13c3 -3.33301 5.16699 -5.66602 6.5 -7c14.667 -14 26.167 -29.667 34.5 -47
s13.166 -35 14.499 -53s-0.833984 -35.833 -6.50098 -53.5s-15.5 -33.834 -29.5 -48.5c-13.333 -14 -28.333 -24.667 -45 -32s-34 -11.166 -52 -11.5c-18 -0.333008 -36.167 2.33398 -54.5 8c-18.333 5.66699 -35.833 14.5 -52.5 26.5z" />
    <glyph glyph-name="maitrilowrightthai" unicode="&#xf70c;" 
d="M-1294 2109c-19.333 14 -38.3311 29.667 -56.998 47s-35.334 36.833 -50.001 58.5s-26.5 45.834 -35.5 72.5c-9 26.667 -13.5 56.334 -13.5 89c0 52 9.83301 99.667 29.5 143s46.167 80.5 79.5 111.5s72.5 55 117.5 72s92.5 25.5 142.5 25.5
c30.667 0 62.667 -5.5 96 -16.5s65.333 -28.833 96 -53.5c31.333 24.667 63.666 42.5 96.999 53.5s66.666 16.5 99.999 16.5c48 0 93.667 -8 137 -24s81.5 -38.667 114.5 -68s59.333 -64.333 79 -105s29.5 -85.667 29.5 -135v-20h197c21.333 0 41.5 -3.66699 60.5 -11
s35.5 -17.5 49.5 -30.5s25 -28.667 33 -47s12 -38.166 12 -59.5c0 -21.333 -4 -40.833 -12 -58.5s-19 -32.834 -33 -45.5c-14 -12.667 -30.5 -22.334 -49.5 -29c-19 -6.66699 -39.167 -10 -60.5 -10h-676l39.5 59l44.5 68.5c14.667 23.667 28.5 47.167 41.5 70.5
s23.167 44.666 30.5 64c4 12 5.5 24 4.5 36s-4 22.5 -9 31.5s-11.667 16.333 -20 22s-18.166 8.5 -29.499 8.5c-8 0 -16.167 -1.66699 -24.5 -5s-15.666 -9 -21.999 -17s-11.666 -18.5 -15.999 -31.5s-6.5 -29.167 -6.5 -48.5h-217c-4 70.667 -29.333 106 -76 106
c-16.667 0 -31 -5.16699 -43 -15.5s-18 -26.833 -18 -49.5c0 -9.33301 1.33301 -17.666 4 -25c2.66699 -7.33301 5.66699 -13.666 9 -19c3.33301 -5.33301 6.5 -9.66602 9.5 -13c3 -3.33301 5.16699 -5.66602 6.5 -7c14.667 -14 26.167 -29.667 34.5 -47
s13.166 -35 14.499 -53s-0.833984 -35.833 -6.50098 -53.5s-15.5 -33.834 -29.5 -48.5c-13.333 -14 -28.333 -24.667 -45 -32s-34 -11.166 -52 -11.5c-18 -0.333008 -36.167 2.33398 -54.5 8c-18.333 5.66699 -35.833 14.5 -52.5 26.5z" />
    <glyph glyph-name="maichattawalowrightthai" 
d="M-156 2335v-86c0 -26 -4.83301 -50.167 -14.5 -72.5s-22.834 -41.833 -39.501 -58.5s-36.167 -29.834 -58.5 -39.5c-22.333 -9.66699 -46.166 -14.5 -71.499 -14.5s-49.166 4.83301 -71.499 14.5s-41.833 22.834 -58.5 39.5c-16.667 16.667 -29.834 36.167 -39.501 58.5
s-14.5 46.5 -14.5 72.5v86h-111c-23.333 0 -45.5 4.33301 -66.5 13s-39.333 20.5 -55 35.5s-28 32.667 -37 53s-13.5 42.5 -13.5 66.5c0 23.333 4.5 45.5 13.5 66.5s21.333 39.333 37 55s34 28 55 37s43.167 13.5 66.5 13.5h111v90c0 25.333 4.83301 49.166 14.5 71.5
c9.66699 22.333 22.834 41.833 39.501 58.5s36.167 29.834 58.5 39.5c22.333 9.66699 46.166 14.5 71.499 14.5s49.166 -4.83301 71.499 -14.5s41.833 -22.834 58.5 -39.5c16.667 -16.667 29.834 -36.167 39.501 -58.5s14.5 -46.166 14.5 -71.5v-90h115
c23.333 0 45.5 -4.5 66.5 -13.5s39.333 -21.333 55 -37s28 -34 37 -55s13.5 -43.167 13.5 -66.5c0 -24 -4.5 -46.167 -13.5 -66.5s-21.333 -38 -37 -53s-34 -26.833 -55 -35.5s-43.167 -13 -66.5 -13h-115z" />
    <glyph glyph-name="maichattawalowrightthai" unicode="&#xf70d;" 
d="M-156 2335v-86c0 -26 -4.83301 -50.167 -14.5 -72.5s-22.834 -41.833 -39.501 -58.5s-36.167 -29.834 -58.5 -39.5c-22.333 -9.66699 -46.166 -14.5 -71.499 -14.5s-49.166 4.83301 -71.499 14.5s-41.833 22.834 -58.5 39.5c-16.667 16.667 -29.834 36.167 -39.501 58.5
s-14.5 46.5 -14.5 72.5v86h-111c-23.333 0 -45.5 4.33301 -66.5 13s-39.333 20.5 -55 35.5s-28 32.667 -37 53s-13.5 42.5 -13.5 66.5c0 23.333 4.5 45.5 13.5 66.5s21.333 39.333 37 55s34 28 55 37s43.167 13.5 66.5 13.5h111v90c0 25.333 4.83301 49.166 14.5 71.5
c9.66699 22.333 22.834 41.833 39.501 58.5s36.167 29.834 58.5 39.5c22.333 9.66699 46.166 14.5 71.499 14.5s49.166 -4.83301 71.499 -14.5s41.833 -22.834 58.5 -39.5c16.667 -16.667 29.834 -36.167 39.501 -58.5s14.5 -46.166 14.5 -71.5v-90h115
c23.333 0 45.5 -4.5 66.5 -13.5s39.333 -21.333 55 -37s28 -34 37 -55s13.5 -43.167 13.5 -66.5c0 -24 -4.5 -46.167 -13.5 -66.5s-21.333 -38 -37 -53s-34 -26.833 -55 -35.5s-43.167 -13 -66.5 -13h-115z" />
    <glyph glyph-name="thanthakhatlowrightthai" 
d="M-672 2052c-24.667 24.667 -47.168 50.167 -67.501 76.5s-38 53.166 -53 80.5c-15 27.333 -26.667 55 -35 83s-12.5 56 -12.5 84c0 48 8.66699 91.333 26 130s41.333 71.834 72 99.5c30.667 27.667 66.667 48.834 108 63.5c41.333 14.667 86 22 134 22h299
c20.667 0 40.334 -3.83301 59.001 -11.5s35.167 -18.167 49.5 -31.5s25.833 -28.833 34.5 -46.5s13 -36.834 13 -57.5c0 -20.667 -4.33301 -39.667 -13 -57s-20.167 -32.5 -34.5 -45.5s-30.833 -23.167 -49.5 -30.5s-38.334 -11 -59.001 -11h-262
c-14 0 -25.667 -2.33301 -35 -7s-15.5 -11.334 -18.5 -20c-3 -8.66699 -2.16699 -18.667 2.5 -30s13.667 -23.666 27 -36.999l41 -41c14 -14 24.667 -30.167 32 -48.5s11 -37 11 -56s-3.66699 -38 -11 -57s-18 -36.167 -32 -51.5c-15.333 -15.333 -33.333 -26.5 -54 -33.5
s-41.5 -10.167 -62.5 -9.5s-41.167 4.66699 -60.5 12s-35.666 17.666 -48.999 30.999z" />
    <glyph glyph-name="thanthakhatlowrightthai" unicode="&#xf70e;" 
d="M-672 2052c-24.667 24.667 -47.168 50.167 -67.501 76.5s-38 53.166 -53 80.5c-15 27.333 -26.667 55 -35 83s-12.5 56 -12.5 84c0 48 8.66699 91.333 26 130s41.333 71.834 72 99.5c30.667 27.667 66.667 48.834 108 63.5c41.333 14.667 86 22 134 22h299
c20.667 0 40.334 -3.83301 59.001 -11.5s35.167 -18.167 49.5 -31.5s25.833 -28.833 34.5 -46.5s13 -36.834 13 -57.5c0 -20.667 -4.33301 -39.667 -13 -57s-20.167 -32.5 -34.5 -45.5s-30.833 -23.167 -49.5 -30.5s-38.334 -11 -59.001 -11h-262
c-14 0 -25.667 -2.33301 -35 -7s-15.5 -11.334 -18.5 -20c-3 -8.66699 -2.16699 -18.667 2.5 -30s13.667 -23.666 27 -36.999l41 -41c14 -14 24.667 -30.167 32 -48.5s11 -37 11 -56s-3.66699 -38 -11 -57s-18 -36.167 -32 -51.5c-15.333 -15.333 -33.333 -26.5 -54 -33.5
s-41.5 -10.167 -62.5 -9.5s-41.167 4.66699 -60.5 12s-35.666 17.666 -48.999 30.999z" />
    <glyph glyph-name="maihanakatleftthai" 
d="M-90 2437c24 0 46.333 -4.5 67 -13.5s38.834 -21.5 54.501 -37.5s28 -34.667 37 -56s13.5 -44.333 13.5 -69s-4.5 -47.5 -13.5 -68.5s-21.333 -39.167 -37 -54.5s-33.834 -27.333 -54.501 -36s-43 -13 -67 -13h-828c-53.333 0 -100.833 8.5 -142.5 25.5
s-76.667 40.5 -105 70.5s-50 65.667 -65 107s-22.5 86.333 -22.5 135v88c0 23.333 4.5 45.5 13.5 66.5s21.333 39.333 37 55s34 28 55 37s43.167 13.5 66.5 13.5s45.5 -4.5 66.5 -13.5s39.333 -21.333 55 -37s28 -34 37 -55s13.5 -43.167 13.5 -66.5
c0 -28 3.33301 -48 10 -60s21.667 -18 45 -18h764z" />
    <glyph glyph-name="maihanakatleftthai" unicode="&#xf710;" 
d="M-90 2437c24 0 46.333 -4.5 67 -13.5s38.834 -21.5 54.501 -37.5s28 -34.667 37 -56s13.5 -44.333 13.5 -69s-4.5 -47.5 -13.5 -68.5s-21.333 -39.167 -37 -54.5s-33.834 -27.333 -54.501 -36s-43 -13 -67 -13h-828c-53.333 0 -100.833 8.5 -142.5 25.5
s-76.667 40.5 -105 70.5s-50 65.667 -65 107s-22.5 86.333 -22.5 135v88c0 23.333 4.5 45.5 13.5 66.5s21.333 39.333 37 55s34 28 55 37s43.167 13.5 66.5 13.5s45.5 -4.5 66.5 -13.5s39.333 -21.333 55 -37s28 -34 37 -55s13.5 -43.167 13.5 -66.5
c0 -28 3.33301 -48 10 -60s21.667 -18 45 -18h764z" />
    <glyph glyph-name="nikhahitleftthai" 
d="M-700 2425c0 -50 -9.66699 -97.167 -29 -141.5s-45.5 -83 -78.5 -116s-71.667 -59.167 -116 -78.5s-91.5 -29 -141.5 -29s-97.167 9.66699 -141.5 29s-83 45.5 -116 78.5s-59.167 71.667 -78.5 116s-29 91.5 -29 141.5s9.66699 97.167 29 141.5s45.5 83 78.5 116
s71.667 59 116 78s91.5 28.5 141.5 28.5s97.167 -9.5 141.5 -28.5s83 -45 116 -78s59.167 -71.667 78.5 -116s29 -91.5 29 -141.5zM-958 2421c0 15.333 -2.66797 29.666 -8.00098 43c-5.33301 13.333 -12.833 25 -22.5 35s-21 17.833 -34 23.5s-27.167 8.5 -42.5 8.5
s-29.5 -2.83301 -42.5 -8.5s-24.167 -13.5 -33.5 -23.5s-16.666 -21.667 -21.999 -35s-8 -27.666 -8 -43c0 -31.333 10 -57 30 -77s45.333 -30 76 -30s56.167 10 76.5 30s30.5 45.667 30.5 77z" />
    <glyph glyph-name="nikhahitleftthai" unicode="&#xf711;" 
d="M-700 2425c0 -50 -9.66699 -97.167 -29 -141.5s-45.5 -83 -78.5 -116s-71.667 -59.167 -116 -78.5s-91.5 -29 -141.5 -29s-97.167 9.66699 -141.5 29s-83 45.5 -116 78.5s-59.167 71.667 -78.5 116s-29 91.5 -29 141.5s9.66699 97.167 29 141.5s45.5 83 78.5 116
s71.667 59 116 78s91.5 28.5 141.5 28.5s97.167 -9.5 141.5 -28.5s83 -45 116 -78s59.167 -71.667 78.5 -116s29 -91.5 29 -141.5zM-958 2421c0 15.333 -2.66797 29.666 -8.00098 43c-5.33301 13.333 -12.833 25 -22.5 35s-21 17.833 -34 23.5s-27.167 8.5 -42.5 8.5
s-29.5 -2.83301 -42.5 -8.5s-24.167 -13.5 -33.5 -23.5s-16.666 -21.667 -21.999 -35s-8 -27.666 -8 -43c0 -31.333 10 -57 30 -77s45.333 -30 76 -30s56.167 10 76.5 30s30.5 45.667 30.5 77z" />
    <glyph glyph-name="maitaikhuleftthai" 
d="M-1496 2458c9.33301 36.667 28.834 64.167 58.501 82.5s63.167 27.5 100.5 27.5c18 0 35.333 -2 52 -6s31.834 -10.333 45.501 -19s25.334 -19.834 35.001 -33.5c9.66699 -13.667 16.5 -30.167 20.5 -49.5c8.66699 -44.667 36.667 -67 84 -67
c17.333 0 33.333 5.66699 48 17s25 28.666 31 52c6 21.333 15.5 40.166 28.5 56.5c13 16.333 28.333 29.5 46 39.5s36.834 16.5 57.501 19.5s41 1.5 61 -4.5c20.667 -6 39 -15.5 55 -28.5s29 -28.167 39 -45.5s16.5 -36.166 19.5 -56.5c3 -20.333 2.5 -40.833 -1.5 -61.5
c-9.33301 -43.333 -26 -83.166 -50 -119.5c-24 -36.333 -53 -67.666 -87 -94c-34 -26.333 -71.833 -46.833 -113.5 -61.5s-84.5 -22 -128.5 -22c-48 0 -90.5 7.5 -127.5 22.5s-74.167 36.833 -111.5 65.5c-36 -28.667 -74.167 -50.5 -114.5 -65.5
s-83.166 -22.5 -128.499 -22.5c-61.333 0 -118 11 -170 33s-96.667 53 -134 93s-66.5 88.167 -87.5 144.5s-31.5 119.166 -31.5 188.5c0 68.667 9.83301 132.334 29.5 191c19.667 58.667 47.667 109.5 84 152.5s80.666 76.833 132.999 101.5s111.166 37 176.499 37h821
c22 0 42.667 -4.16699 62 -12.5s36 -19.5 50 -33.5s25.167 -30.667 33.5 -50s12.5 -40 12.5 -62s-4.16699 -42.667 -12.5 -62s-19.5 -36.166 -33.5 -50.5c-14 -14.333 -30.667 -25.5 -50 -33.5s-40 -12 -62 -12h-821c-16 0 -30 -5 -42 -15s-22 -23 -30 -39
s-14 -33.833 -18 -53.5s-6 -39.167 -6 -58.5c0 -20 2.16699 -39 6.5 -57s10.666 -33.667 18.999 -47s18.5 -23.833 30.5 -31.5s25.667 -11.5 41 -11.5c23.333 0 41.166 4.83301 53.499 14.5s21.166 25.5 26.499 47.5z" />
    <glyph glyph-name="maitaikhuleftthai" unicode="&#xf712;" 
d="M-1496 2458c9.33301 36.667 28.834 64.167 58.501 82.5s63.167 27.5 100.5 27.5c18 0 35.333 -2 52 -6s31.834 -10.333 45.501 -19s25.334 -19.834 35.001 -33.5c9.66699 -13.667 16.5 -30.167 20.5 -49.5c8.66699 -44.667 36.667 -67 84 -67
c17.333 0 33.333 5.66699 48 17s25 28.666 31 52c6 21.333 15.5 40.166 28.5 56.5c13 16.333 28.333 29.5 46 39.5s36.834 16.5 57.501 19.5s41 1.5 61 -4.5c20.667 -6 39 -15.5 55 -28.5s29 -28.167 39 -45.5s16.5 -36.166 19.5 -56.5c3 -20.333 2.5 -40.833 -1.5 -61.5
c-9.33301 -43.333 -26 -83.166 -50 -119.5c-24 -36.333 -53 -67.666 -87 -94c-34 -26.333 -71.833 -46.833 -113.5 -61.5s-84.5 -22 -128.5 -22c-48 0 -90.5 7.5 -127.5 22.5s-74.167 36.833 -111.5 65.5c-36 -28.667 -74.167 -50.5 -114.5 -65.5
s-83.166 -22.5 -128.499 -22.5c-61.333 0 -118 11 -170 33s-96.667 53 -134 93s-66.5 88.167 -87.5 144.5s-31.5 119.166 -31.5 188.5c0 68.667 9.83301 132.334 29.5 191c19.667 58.667 47.667 109.5 84 152.5s80.666 76.833 132.999 101.5s111.166 37 176.499 37h821
c22 0 42.667 -4.16699 62 -12.5s36 -19.5 50 -33.5s25.167 -30.667 33.5 -50s12.5 -40 12.5 -62s-4.16699 -42.667 -12.5 -62s-19.5 -36.166 -33.5 -50.5c-14 -14.333 -30.667 -25.5 -50 -33.5s-40 -12 -62 -12h-821c-16 0 -30 -5 -42 -15s-22 -23 -30 -39
s-14 -33.833 -18 -53.5s-6 -39.167 -6 -58.5c0 -20 2.16699 -39 6.5 -57s10.666 -33.667 18.999 -47s18.5 -23.833 30.5 -31.5s25.667 -11.5 41 -11.5c23.333 0 41.166 4.83301 53.499 14.5s21.166 25.5 26.499 47.5z" />
    <glyph glyph-name="maiekupperleftthai" 
d="M-1057 3322c0 24.667 4.83301 47.667 14.5 69s22.5 40 38.5 56s34.667 28.5 56 37.5s43.666 13.5 66.999 13.5c24 0 46.333 -4.5 67 -13.5s38.834 -21.5 54.501 -37.5s28 -34.667 37 -56s13.5 -44.333 13.5 -69v-287c0 -24.667 -4.5 -47.667 -13.5 -69
s-21.333 -40 -37 -56s-33.834 -28.5 -54.501 -37.5s-43 -13.5 -67 -13.5c-23.333 0 -45.666 4.5 -66.999 13.5s-40 21.5 -56 37.5s-28.833 34.667 -38.5 56s-14.5 44.333 -14.5 69v287z" />
    <glyph glyph-name="maiekupperleftthai" unicode="&#xf713;" 
d="M-1057 3322c0 24.667 4.83301 47.667 14.5 69s22.5 40 38.5 56s34.667 28.5 56 37.5s43.666 13.5 66.999 13.5c24 0 46.333 -4.5 67 -13.5s38.834 -21.5 54.501 -37.5s28 -34.667 37 -56s13.5 -44.333 13.5 -69v-287c0 -24.667 -4.5 -47.667 -13.5 -69
s-21.333 -40 -37 -56s-33.834 -28.5 -54.501 -37.5s-43 -13.5 -67 -13.5c-23.333 0 -45.666 4.5 -66.999 13.5s-40 21.5 -56 37.5s-28.833 34.667 -38.5 56s-14.5 44.333 -14.5 69v287z" />
    <glyph glyph-name="maithoupperleftthai" 
d="M-1118 3248c-15.333 -10 -31.5 -16.5 -48.5 -19.5s-33.5 -2.5 -49.5 1.5s-31.167 11 -45.5 21s-26.5 22.667 -36.5 38s-16.333 31.333 -19 48s-2 32.834 2 48.5c4 15.667 11 30.667 21 45s22.333 27.166 37 38.5c14 10.667 36.333 21.5 67 32.5s69.667 16.5 117 16.5
c44 0 86 -7.16699 126 -21.5s75.333 -34.833 106 -61.5s55 -59.334 73 -98c18 -38.667 27 -82 27 -130c0 -10 -0.166992 -18.5 -0.5 -25.5s-1.5 -13.5 -3.5 -19.5l36 4h430c19.333 0 37.833 -3.83301 55.5 -11.5s33 -18 46 -31s23.333 -28.167 31 -45.5
s11.5 -35.666 11.5 -55c0 -19.333 -3.83301 -37.833 -11.5 -55.5s-18 -33 -31 -46s-28.333 -23.333 -46 -31s-36.167 -11.5 -55.5 -11.5h-913l35.5 62.5l36.5 68l35.5 67.5l31.5 61c8 16 13.5 31.167 16.5 45.5s3.16699 27 0.5 38s-8.5 19.833 -17.5 26.5
s-21.833 10 -38.5 10c-4 0 -8.33301 -1.16699 -13 -3.5z" />
    <glyph glyph-name="maithoupperleftthai" unicode="&#xf714;" 
d="M-1118 3248c-15.333 -10 -31.5 -16.5 -48.5 -19.5s-33.5 -2.5 -49.5 1.5s-31.167 11 -45.5 21s-26.5 22.667 -36.5 38s-16.333 31.333 -19 48s-2 32.834 2 48.5c4 15.667 11 30.667 21 45s22.333 27.166 37 38.5c14 10.667 36.333 21.5 67 32.5s69.667 16.5 117 16.5
c44 0 86 -7.16699 126 -21.5s75.333 -34.833 106 -61.5s55 -59.334 73 -98c18 -38.667 27 -82 27 -130c0 -10 -0.166992 -18.5 -0.5 -25.5s-1.5 -13.5 -3.5 -19.5l36 4h430c19.333 0 37.833 -3.83301 55.5 -11.5s33 -18 46 -31s23.333 -28.167 31 -45.5
s11.5 -35.666 11.5 -55c0 -19.333 -3.83301 -37.833 -11.5 -55.5s-18 -33 -31 -46s-28.333 -23.333 -46 -31s-36.167 -11.5 -55.5 -11.5h-913l35.5 62.5l36.5 68l35.5 67.5l31.5 61c8 16 13.5 31.167 16.5 45.5s3.16699 27 0.5 38s-8.5 19.833 -17.5 26.5
s-21.833 10 -38.5 10c-4 0 -8.33301 -1.16699 -13 -3.5z" />
    <glyph glyph-name="maitriupperleftthai" 
d="M-1061 3101c12 -12 21.5049 -26.833 28.5049 -44.5s11 -35.5 12 -53.5s-1.16699 -35.5 -6.5 -52.5s-14 -31.167 -26 -42.5c-13.333 -15.333 -28 -26.5 -44 -33.5s-32.167 -10.667 -48.5 -11s-32.833 2.5 -49.5 8.5s-32 14 -46 24
c-47.333 32.667 -83.833 71.5 -109.5 116.5s-38.5 92.167 -38.5 141.5s9.33301 94.5 28 135.5s43.834 76.333 75.501 106s68.667 52.834 111 69.5c42.333 16.667 87.166 25 134.499 25c30.667 0 63.667 -7 99 -21s67.666 -35.333 96.999 -64
c13.333 13.333 28.166 25.333 44.499 36s33.166 19.667 50.499 27s34.833 12.833 52.5 16.5s34.167 5.5 49.5 5.5c44 0 86 -7.83301 126 -23.5s75.5 -38.167 106.5 -67.5s56.167 -64.666 75.5 -106c19.333 -41.333 30 -87.666 32 -139l33 4h151
c19.333 0 37.5 -3.66699 54.5 -11s31.667 -17.166 44 -29.5c12.333 -12.333 22.166 -27 29.499 -44s11 -35.167 11 -54.5s-3.66699 -37.5 -11 -54.5s-17.166 -31.833 -29.499 -44.5s-27 -22.667 -44 -30s-35.167 -11 -54.5 -11h-627c26.667 36 52.167 73.833 76.5 113.5
s45.5 82.5 63.5 128.5c5.33301 16.667 6.83301 31.5 4.5 44.5s-7 24 -14 33s-15.667 15.833 -26 20.5s-20.833 7 -31.5 7c-10 0 -20 -2.16699 -30 -6.5s-18.833 -10.833 -26.5 -19.5s-13.334 -20 -17.001 -34s-4.16699 -30.333 -1.5 -49h-191
c2.66699 18.667 2.5 35.334 -0.5 50c-3 14.667 -8 26.834 -15 36.5c-7 9.66699 -15.5 17 -25.5 22s-20.333 7.16699 -31 6.5c-16 -0.666992 -31.333 -7 -46 -19s-23.334 -30.333 -26.001 -55c-1.33301 -10 1.16699 -20.5 7.5 -31.5s12.5 -19.5 18.5 -25.5z" />
    <glyph glyph-name="maitriupperleftthai" unicode="&#xf715;" 
d="M-1061 3101c12 -12 21.5049 -26.833 28.5049 -44.5s11 -35.5 12 -53.5s-1.16699 -35.5 -6.5 -52.5s-14 -31.167 -26 -42.5c-13.333 -15.333 -28 -26.5 -44 -33.5s-32.167 -10.667 -48.5 -11s-32.833 2.5 -49.5 8.5s-32 14 -46 24
c-47.333 32.667 -83.833 71.5 -109.5 116.5s-38.5 92.167 -38.5 141.5s9.33301 94.5 28 135.5s43.834 76.333 75.501 106s68.667 52.834 111 69.5c42.333 16.667 87.166 25 134.499 25c30.667 0 63.667 -7 99 -21s67.666 -35.333 96.999 -64
c13.333 13.333 28.166 25.333 44.499 36s33.166 19.667 50.499 27s34.833 12.833 52.5 16.5s34.167 5.5 49.5 5.5c44 0 86 -7.83301 126 -23.5s75.5 -38.167 106.5 -67.5s56.167 -64.666 75.5 -106c19.333 -41.333 30 -87.666 32 -139l33 4h151
c19.333 0 37.5 -3.66699 54.5 -11s31.667 -17.166 44 -29.5c12.333 -12.333 22.166 -27 29.499 -44s11 -35.167 11 -54.5s-3.66699 -37.5 -11 -54.5s-17.166 -31.833 -29.499 -44.5s-27 -22.667 -44 -30s-35.167 -11 -54.5 -11h-627c26.667 36 52.167 73.833 76.5 113.5
s45.5 82.5 63.5 128.5c5.33301 16.667 6.83301 31.5 4.5 44.5s-7 24 -14 33s-15.667 15.833 -26 20.5s-20.833 7 -31.5 7c-10 0 -20 -2.16699 -30 -6.5s-18.833 -10.833 -26.5 -19.5s-13.334 -20 -17.001 -34s-4.16699 -30.333 -1.5 -49h-191
c2.66699 18.667 2.5 35.334 -0.5 50c-3 14.667 -8 26.834 -15 36.5c-7 9.66699 -15.5 17 -25.5 22s-20.333 7.16699 -31 6.5c-16 -0.666992 -31.333 -7 -46 -19s-23.334 -30.333 -26.001 -55c-1.33301 -10 1.16699 -20.5 7.5 -31.5s12.5 -19.5 18.5 -25.5z" />
    <glyph glyph-name="maichattawaupperleftthai" 
d="M-1057 3412v66c0 24.667 4.5 47.667 13.5 69s21.5 40 37.5 56s34.667 28.5 56 37.5s44.333 13.5 69 13.5s47.667 -4.5 69 -13.5s40 -21.5 56 -37.5s28.5 -34.667 37.5 -56s13.5 -44.333 13.5 -69v-66h91c21.333 0 41.5 -3.83301 60.5 -11.5s35.5 -18.5 49.5 -32.5
s25 -30.5 33 -49.5s12 -39.833 12 -62.5s-4 -43.5 -12 -62.5s-19 -35.333 -33 -49s-30.5 -24.334 -49.5 -32c-19 -7.66699 -39.167 -11.5 -60.5 -11.5h-91v-62c0 -24.667 -4.5 -47.667 -13.5 -69s-21.5 -40 -37.5 -56s-34.667 -28.5 -56 -37.5s-44.333 -13.5 -69 -13.5
s-47.667 4.5 -69 13.5s-40 21.5 -56 37.5s-28.5 34.667 -37.5 56s-13.5 44.333 -13.5 69v62h-90c-21.333 0 -41.5 3.83301 -60.5 11.5s-35.5 18.334 -49.5 32c-14 13.667 -25.167 30 -33.5 49s-12.5 39.833 -12.5 62.5s4.16699 43.5 12.5 62.5s19.5 35.5 33.5 49.5
s30.5 24.833 49.5 32.5s39.167 11.5 60.5 11.5h90z" />
    <glyph glyph-name="maichattawaupperleftthai" unicode="&#xf716;" 
d="M-1057 3412v66c0 24.667 4.5 47.667 13.5 69s21.5 40 37.5 56s34.667 28.5 56 37.5s44.333 13.5 69 13.5s47.667 -4.5 69 -13.5s40 -21.5 56 -37.5s28.5 -34.667 37.5 -56s13.5 -44.333 13.5 -69v-66h91c21.333 0 41.5 -3.83301 60.5 -11.5s35.5 -18.5 49.5 -32.5
s25 -30.5 33 -49.5s12 -39.833 12 -62.5s-4 -43.5 -12 -62.5s-19 -35.333 -33 -49s-30.5 -24.334 -49.5 -32c-19 -7.66699 -39.167 -11.5 -60.5 -11.5h-91v-62c0 -24.667 -4.5 -47.667 -13.5 -69s-21.5 -40 -37.5 -56s-34.667 -28.5 -56 -37.5s-44.333 -13.5 -69 -13.5
s-47.667 4.5 -69 13.5s-40 21.5 -56 37.5s-28.5 34.667 -37.5 56s-13.5 44.333 -13.5 69v62h-90c-21.333 0 -41.5 3.83301 -60.5 11.5s-35.5 18.334 -49.5 32c-14 13.667 -25.167 30 -33.5 49s-12.5 39.833 -12.5 62.5s4.16699 43.5 12.5 62.5s19.5 35.5 33.5 49.5
s30.5 24.833 49.5 32.5s39.167 11.5 60.5 11.5h90z" />
    <glyph glyph-name="thanthakhatupperleftthai" 
d="M-1126 2662c-50 50 -87.8301 101.5 -113.497 154.5s-38.5 109.5 -38.5 169.5c0 50 8.33301 95 25 135s40 74 70 102s65.833 49.5 107.5 64.5s87.5 22.5 137.5 22.5h258c22.667 0 43.834 -4.33301 63.501 -13s37 -20.5 52 -35.5s26.833 -32.333 35.5 -52
s13 -40.834 13 -63.5c0 -22.667 -4.33301 -43.834 -13 -63.5c-8.66699 -19.667 -20.5 -37 -35.5 -52s-32.333 -26.833 -52 -35.5s-40.834 -13 -63.501 -13h-233c-9.33301 0 -17.333 -1.5 -24 -4.5s-11.5 -6.83301 -14.5 -11.5s-3.5 -10.334 -1.5 -17
c2 -6.66699 7 -13.334 15 -20l37 -33c16 -16.667 28.167 -35.167 36.5 -55.5s12.666 -41 12.999 -62s-3.33398 -41.5 -11.001 -61.5s-19.167 -38.333 -34.5 -55c-15.333 -15.333 -32.833 -26.833 -52.5 -34.5s-39.834 -11.5 -60.501 -11.5s-41.167 3.83301 -61.5 11.5
s-38.5 19.167 -54.5 34.5z" />
    <glyph glyph-name="thanthakhatupperleftthai" unicode="&#xf717;" 
d="M-1126 2662c-50 50 -87.8301 101.5 -113.497 154.5s-38.5 109.5 -38.5 169.5c0 50 8.33301 95 25 135s40 74 70 102s65.833 49.5 107.5 64.5s87.5 22.5 137.5 22.5h258c22.667 0 43.834 -4.33301 63.501 -13s37 -20.5 52 -35.5s26.833 -32.333 35.5 -52
s13 -40.834 13 -63.5c0 -22.667 -4.33301 -43.834 -13 -63.5c-8.66699 -19.667 -20.5 -37 -35.5 -52s-32.333 -26.833 -52 -35.5s-40.834 -13 -63.501 -13h-233c-9.33301 0 -17.333 -1.5 -24 -4.5s-11.5 -6.83301 -14.5 -11.5s-3.5 -10.334 -1.5 -17
c2 -6.66699 7 -13.334 15 -20l37 -33c16 -16.667 28.167 -35.167 36.5 -55.5s12.666 -41 12.999 -62s-3.33398 -41.5 -11.001 -61.5s-19.167 -38.333 -34.5 -55c-15.333 -15.333 -32.833 -26.833 -52.5 -34.5s-39.834 -11.5 -60.501 -11.5s-41.167 3.83301 -61.5 11.5
s-38.5 19.167 -54.5 34.5z" />
    <glyph glyph-name="uni00A0" unicode="&#xa0;" horiz-adv-x="1024" 
 />
    <glyph glyph-name="cent" unicode="&#xa2;" horiz-adv-x="1864" 
d="M639 1114c0 -84.667 18.5 -160.833 55.5 -228.5s89.5 -121.167 157.5 -160.5v770c-66 -39.333 -118 -92 -156 -158s-57 -140.333 -57 -223zM1552 496.001c-43.333 -35.333 -93.5029 -67.5029 -150.503 -96.5029s-122.833 -52.833 -197.5 -71.5v-119
c0 -24.667 -4.5 -47.667 -13.5 -69s-21.5 -40 -37.5 -56s-34.667 -28.5 -56 -37.5s-44.333 -13.5 -69 -13.5s-47.667 4.5 -69 13.5s-40 21.5 -56 37.5s-28.5 34.667 -37.5 56s-13.5 44.333 -13.5 69v123c-86 24.667 -164.167 61.5 -234.5 110.5
s-130.666 107.5 -180.999 175.5s-89.166 144.167 -116.499 228.5s-41 173.5 -41 267.5c0 92 14.167 179.833 42.5 263.5s67.666 159.5 117.999 227.5s110.666 126.167 180.999 174.5s147.5 83.166 231.5 104.499v107c0 24.667 4.5 47.667 13.5 69s21.5 40 37.5 56
s34.667 28.5 56 37.5s44.333 13.5 69 13.5s47.667 -4.5 69 -13.5s40 -21.5 56 -37.5s28.5 -34.667 37.5 -56s13.5 -44.333 13.5 -69v-90c36 -7.33301 71.667 -17.666 107 -30.999s68.333 -27.333 99 -42s58 -29.167 82 -43.5s42.667 -26.166 56 -35.499
c20.667 -14 37.667 -31.333 51 -52s22.833 -42.667 28.5 -66s6.83398 -47.166 3.50098 -71.499s-11.666 -47.166 -24.999 -68.499c-14.667 -21.333 -32.167 -39.166 -52.5 -53.499s-42 -24 -65 -29s-46.333 -5.16699 -70 -0.5s-45.5 15 -65.5 31
c-17.333 13.333 -38.666 27.166 -63.999 41.499s-53.666 28.833 -84.999 43.5v-824c31.333 14.667 59.5 30.667 84.5 48l71.5 51c19.333 14 40.666 23.167 63.999 27.5s46.5 4 69.5 -1s44.833 -14.333 65.5 -28s37.667 -31.167 51 -52.5s21.333 -43.333 24 -66s1 -45 -5 -67
s-15.667 -43 -29 -63s-29.333 -37.667 -48 -53z" />
    <glyph glyph-name="sterling" unicode="&#xa3;" horiz-adv-x="1794" 
d="M1700 1544c4.66699 -26.667 4.00098 -53.1689 -1.99902 -79.502s-16.333 -50.333 -31 -72s-33.167 -40.167 -55.5 -55.5s-47.5 -25.666 -75.5 -30.999c-25.333 -5.33301 -50.833 -5 -76.5 1s-49.334 16.167 -71.001 30.5s-40.167 32.5 -55.5 54.5s-25.333 46.667 -30 74
c-6.66699 38 -19 76.833 -37 116.5s-41.167 75.667 -69.5 108s-62 59 -101 80s-83.167 31.5 -132.5 31.5c-44 0 -84.833 -8.33301 -122.5 -25s-70.334 -40.5 -98.001 -71.5s-49.167 -68.5 -64.5 -112.5s-23 -93 -23 -147v-221h234c25.333 0 49.5 -5 72.5 -15
s43 -23.667 60 -41s30.5 -37.333 40.5 -60s15 -47 15 -73c0 -25.333 -5 -49.5 -15 -72.5s-23.5 -43 -40.5 -60s-37 -30.5 -60 -40.5s-47.167 -15 -72.5 -15h-234v-471h820c25.333 0 49.5 -5 72.5 -15s43 -23.667 60 -41s30.5 -37.333 40.5 -60s15 -47 15 -73
c0 -25.333 -5 -49.5 -15 -72.5s-23.5 -43 -40.5 -60s-37 -30.5 -60 -40.5s-47.167 -15 -72.5 -15h-1225c-26 0 -50.333 5 -73 15s-42.667 23.5 -60 40.5s-31 37 -41 60s-15 47.167 -15 72.5c0 26 5 50.333 15 73s23.667 42.667 41 60s37.333 31 60 41s47 15 73 15v471
c-26 0 -50.333 5 -73 15s-42.667 23.5 -60 40.5s-31 37 -41 60s-15 47.167 -15 72.5c0 26 5 50.333 15 73s23.667 42.667 41 60s37.333 31 60 41s47 15 73 15v221c0 65.333 7.33301 129.333 22 192s36.167 121.667 64.5 177s63 106.333 104 153s87.833 86.834 140.5 120.501
s111 59.834 175 78.5c64 18.667 133 28 207 28c99.333 0 189.833 -16.167 271.5 -48.5s153.834 -77.5 216.501 -135.5s115 -126.833 157 -206.5s72.667 -166.5 92 -260.5z" />
    <glyph glyph-name="yen" unicode="&#xa5;" horiz-adv-x="1737" 
d="M1454 1536l28.999 0.000976562c25.333 0 49.166 -4.83301 71.499 -14.5s41.833 -22.834 58.5 -39.501s29.834 -36.167 39.501 -58.5s14.5 -46.166 14.5 -71.499c0 -26 -4.83301 -50.167 -14.5 -72.5s-22.834 -41.833 -39.501 -58.5s-36.167 -29.834 -58.5 -39.501
s-46.166 -14.5 -71.499 -14.5h-246l-90 -151h336c25.333 0 49.166 -4.83301 71.499 -14.5s41.833 -22.834 58.5 -39.501s29.834 -36.167 39.501 -58.5s14.5 -46.5 14.5 -72.5c0 -25.333 -4.83301 -49.166 -14.5 -71.499s-22.834 -41.833 -39.501 -58.5
s-36.167 -29.834 -58.5 -39.501s-46.166 -14.5 -71.499 -14.5h-406v-459c0 -28.667 -5.5 -55.5 -16.5 -80.5s-26 -47 -45 -66s-41.167 -34 -66.5 -45s-52.333 -16.5 -81 -16.5s-55.334 5.5 -80.001 16.5s-46.167 26 -64.5 45s-32.833 41 -43.5 66s-16 51.833 -16 80.5v459
h-398c-25.333 0 -49.166 4.83301 -71.499 14.5s-41.833 22.834 -58.5 39.501s-29.834 36.167 -39.501 58.5s-14.5 46.166 -14.5 71.499c0 26 4.83301 50.167 14.5 72.5s22.834 41.833 39.501 58.5s36.167 29.834 58.5 39.501s46.166 14.5 71.499 14.5h328l-86 151h-242
c-25.333 0 -49.166 4.83301 -71.499 14.5s-41.833 22.834 -58.5 39.501s-29.834 36.167 -39.501 58.5s-14.5 46.5 -14.5 72.5c0 25.333 4.83301 49.166 14.5 71.499s22.834 41.833 39.501 58.5s36.167 29.834 58.5 39.501s46.166 14.5 71.499 14.5h25l-209 348
c-14 23.333 -23.167 48.166 -27.5 74.499s-3.66602 51.833 2.00098 76.5s16 47.834 31 69.5c15 21.667 34.833 39.834 59.5 54.5c24 14 49 22.833 75 26.5s51.5 2.5 76.5 -3.5s48.333 -16.833 70 -32.5s39.5 -35.834 53.5 -60.5l446 -750l451 750
c14 24.667 31.833 44.834 53.5 60.5c21.667 15.667 44.834 26.5 69.501 32.5s50.167 7.16699 76.5 3.5s51.166 -12.5 74.499 -26.5c24.667 -14.667 44.667 -32.834 60 -54.5c15.333 -21.667 25.833 -44.834 31.5 -69.501s6.33398 -50.167 2.00098 -76.5
s-13.5 -51.166 -27.5 -74.499z" />
    <glyph glyph-name="copyright" unicode="&#xa9;" horiz-adv-x="2425" 
d="M2335 1085c0 -104.667 -13.333 -205.168 -40 -301.501s-64.5 -186.333 -113.5 -270s-107.667 -159.834 -176 -228.501s-144.166 -127.5 -227.499 -176.5s-172.666 -86.833 -267.999 -113.5s-194.666 -40 -297.999 -40c-104.667 0 -205.167 13.333 -301.5 40
s-186.333 64.5 -270 113.5s-159.834 107.833 -228.501 176.5s-127.5 144.834 -176.5 228.501s-86.833 173.834 -113.5 270.501s-40 197 -40 301c0 103.333 13.333 202.666 40 297.999s64.5 184.666 113.5 267.999s107.833 159.166 176.5 227.499s144.834 127 228.501 176
s173.667 86.833 270 113.5s196.833 40 301.5 40c103.333 0 202.666 -13.333 297.999 -40s184.666 -64.5 267.999 -113.5s159.166 -107.667 227.499 -176s127 -144.166 176 -227.499s86.833 -172.666 113.5 -267.999s40 -194.666 40 -297.999zM2081 1085
c0 80.667 -10.335 158.169 -31.002 232.502s-49.667 143.666 -87 207.999s-82.333 122.833 -135 175.5s-111.167 97.667 -175.5 135s-133.666 66.333 -207.999 87s-151.833 31 -232.5 31c-82 0 -160.5 -10.333 -235.5 -31s-145 -49.834 -210 -87.501s-124 -83 -177 -136
s-98.167 -111.667 -135.5 -176s-66.333 -133.5 -87 -207.5s-31 -151 -31 -231c0 -82 10.333 -160.5 31 -235.5s49.667 -145 87 -210s82.5 -124 135.5 -177s112 -98.167 177 -135.5s135 -66.333 210 -87s153.5 -31 235.5 -31c80 0 157 10.333 231 31s143.167 49.667 207.5 87
s123 82.5 176 135.5s98.333 112 136 177s66.834 135 87.501 210s31 153.5 31 235.5zM1667 512.001c15.333 12 28.0029 26.1689 38.0029 42.502s16.667 33.166 20 50.499s3.33301 35 0 53s-10.333 35 -21 51s-23.667 28.5 -39 37.5s-31.666 14.5 -48.999 16.5
s-35 0.5 -53 -4.5s-35.333 -13.5 -52 -25.5c-16 -12 -34.333 -23.5 -55 -34.5s-42.334 -20.667 -65.001 -29s-46.167 -14.833 -70.5 -19.5s-48.166 -7 -71.499 -7c-53.333 0 -103.833 11.667 -151.5 35s-89.334 54.666 -125.001 93.999s-64 85 -85 137
s-31.5 106.667 -31.5 164c0 58.667 10.333 113.834 31 165.501s48.834 96.834 84.501 135.501s77.667 69.167 126 91.5s100.166 33.5 155.499 33.5c48 0 92.167 -8.16699 132.5 -24.5s82.166 -40.833 125.499 -73.5c16.667 -12 34.167 -20.333 52.5 -25
s36.333 -5.83398 54 -3.50098s34.334 8.33301 50.001 18s29.167 22.834 40.5 39.501c11.333 16 18.833 33.167 22.5 51.5s3.83398 36.5 0.500977 54.5s-10 35.167 -20 51.5s-23.333 30.5 -40 42.5c-64 47.333 -130.333 83.166 -199 107.499s-140.334 36.5 -215.001 36.5
c-64.667 0 -126.334 -8.33301 -185.001 -25s-113.167 -40.167 -163.5 -70.5s-95.833 -66.666 -136.5 -108.999s-75.334 -89.5 -104.001 -141.5s-50.834 -108 -66.501 -168s-23.5 -122.333 -23.5 -187c0 -97.333 16.667 -188.666 50 -273.999s80 -159.833 140 -223.5
s131.333 -114 214 -151s173 -55.5 271 -55.5c45.333 0 87.833 4.16699 127.5 12.5s76.667 19.166 111 32.499s66 28.666 95 45.999s55.833 34.666 80.5 51.999z" />
    <glyph glyph-name="guillemotleft" unicode="&#xab;" horiz-adv-x="1417" 
d="M733 594c14.667 -17.333 25.334 -36.1699 32.001 -56.5029s9.5 -40.666 8.5 -60.999s-6 -39.833 -15 -58.5s-21.5 -35 -37.5 -49c-17.333 -14.667 -36.333 -25.167 -57 -31.5s-41.334 -8.5 -62.001 -6.5s-40.667 7.83301 -60 17.5s-36 23.167 -50 40.5l-443 529l443 528
c14 17.333 30.667 30.833 50 40.5s39.333 15.5 60 17.5s41.334 -0.166992 62.001 -6.5s39.667 -16.833 57 -31.5c16 -14 28.5 -30.333 37.5 -49s14 -38.167 15 -58.5s-1.83301 -40.666 -8.5 -60.999s-17.334 -39.166 -32.001 -56.499l-270 -323zM1323 593.996
c14 -17.333 24.333 -36.1699 31 -56.5029s9.5 -40.666 8.5 -60.999s-5.83301 -39.833 -14.5 -58.5s-21 -35 -37 -49c-17.333 -14.667 -36.333 -25.167 -57 -31.5s-41.5 -8.5 -62.5 -6.5s-41 7.83301 -60 17.5s-35.833 23.167 -50.5 40.5l-442 529l442 528
c14.667 17.333 31.5 30.833 50.5 40.5s39 15.5 60 17.5s41.833 -0.166992 62.5 -6.5s39.667 -16.833 57 -31.5c16 -14 28.333 -30.333 37 -49s13.5 -38.167 14.5 -58.5s-1.83301 -40.666 -8.5 -60.999s-17 -39.166 -31 -56.499l-270 -323z" />
    <glyph glyph-name="registered" unicode="&#xae;" horiz-adv-x="2540" 
d="M2462 1147c0 -108.667 -14.168 -213.333 -42.501 -314s-68.333 -194.834 -120 -282.501s-113.667 -167.5 -186 -239.5s-152.5 -133.833 -240.5 -185.5s-182.5 -91.667 -283.5 -120s-206.167 -42.5 -315.5 -42.5c-110 0 -216 14.167 -318 42.5s-197.167 68.333 -285.5 120
s-169 113.5 -242 185.5s-135.333 151.833 -187 239.5s-91.834 181.834 -120.501 282.501s-43 205.334 -43 314.001s14.333 213 43 313s69.167 193.667 121.5 281s114.833 166.666 187.5 237.999s153.334 132.333 242.001 183s183.834 90 285.501 118s207.167 42 316.5 42
s214.5 -14 315.5 -42s195.5 -67.5 283.5 -118.5s168.167 -112.333 240.5 -184s134.333 -151 186 -238s91.667 -180.5 120 -280.5s42.5 -204 42.5 -312zM2200 1147c0 82 -10.9961 161.498 -32.9961 238.498s-53.167 149.5 -93.5 217.5s-88.5 130.167 -144.5 186.5
s-118.333 104.833 -187 145.5s-142.5 72.334 -221.5 95.001s-161.167 34 -246.5 34c-88 0 -172.333 -10.833 -253 -32.5s-155.834 -52.167 -225.501 -91.5s-132.667 -86.833 -189 -142.5s-104.666 -117.5 -144.999 -185.5s-71.333 -141.167 -93 -219.5
s-32.5 -160.166 -32.5 -245.499c0 -86.667 11 -169.667 33 -249s53.167 -153.333 93.5 -222s89 -131 146 -187s120.167 -103.833 189.5 -143.5s144.166 -70.334 224.499 -92.001s164.166 -32.5 251.499 -32.5c86 0 168.667 10.833 248 32.5s153.166 52.334 221.499 92.001
s130.666 87.5 186.999 143.5s104.333 118.333 144 187s70.5 142.667 92.5 222s33 162.333 33 249zM1569 1380c0 24.667 -5.83008 44.3301 -17.4971 58.9971s-26.834 25.834 -45.501 33.501s-39.834 12.667 -63.501 15s-47.167 3.5 -70.5 3.5h-287v-225h209
c17.333 0 36.166 -0.333008 56.499 -1s40.666 -0.666992 60.999 0s40 2.66699 59 6s35.833 9.33301 50.5 18s26.334 20.334 35.001 35.001s13 33.334 13 56.001zM827.006 1622c0 18 3.16797 34.835 9.50098 50.502s15.166 29.167 26.499 40.5s24.833 20.166 40.5 26.499
s32.5 9.5 50.5 9.5h418c155.333 0 269.333 -30.667 342 -92s109 -149.333 109 -264c0 -50 -7.5 -94.5 -22.5 -133.5s-35.5 -72.833 -61.5 -101.5s-56.833 -52.667 -92.5 -72s-73.834 -34.666 -114.501 -45.999l205 -307c11.333 -15.333 18.833 -31.333 22.5 -48
s4 -33.334 1 -50.001s-9.33301 -32.334 -19 -47.001s-22.167 -27.667 -37.5 -39c-31.333 -20.667 -64.166 -27.667 -98.499 -21s-62.833 24.667 -85.5 54l-283 450h-152v-377c0 -18 -3.33301 -34.833 -10 -50.5s-15.834 -29.167 -27.501 -40.5s-25.5 -20.166 -41.5 -26.499
s-33.333 -9.5 -52 -9.5c-18 0 -34.833 3.16699 -50.5 9.5s-29.167 15.166 -40.5 26.499s-20.166 24.833 -26.499 40.5s-9.5 32.5 -9.5 50.5v967z" />
    <glyph glyph-name="guillemotright" unicode="&#xbb;" horiz-adv-x="1417" 
d="M967 918l-271 323.004c-14 17.333 -24.333 36.166 -31 56.499s-9.5 40.666 -8.5 60.999s5.83301 39.833 14.5 58.5s21.334 35 38.001 49c17.333 14.667 36.333 25.167 57 31.5s41.334 8.5 62.001 6.5s40.667 -7.83301 60 -17.5s36 -23.167 50 -40.5l442 -528l-442 -529
c-14 -17.333 -30.667 -30.833 -50 -40.5s-39.333 -15.5 -60 -17.5s-41.334 0.166992 -62.001 6.5s-39.667 16.833 -57 31.5c-16.667 14 -29.334 30.333 -38.001 49s-13.5 38.167 -14.5 58.5s1.83301 40.666 8.5 60.999s17 39.166 31 56.499zM377 918.004l-271 323.004
c-14 17.333 -24.333 36.166 -31 56.499s-9.5 40.666 -8.5 60.999s5.83301 39.833 14.5 58.5s21.334 35 38.001 49c17.333 14.667 36.333 25.167 57 31.5s41.334 8.5 62.001 6.5s40.667 -7.83301 60 -17.5s36 -23.167 50 -40.5l443 -528l-443 -529
c-14 -17.333 -30.667 -30.833 -50 -40.5s-39.333 -15.5 -60 -17.5s-41.334 0.166992 -62.001 6.5s-39.667 16.833 -57 31.5c-16.667 14 -29.334 30.333 -38.001 49s-13.5 38.167 -14.5 58.5s1.83301 40.666 8.5 60.999s17 39.166 31 56.499z" />
    <glyph glyph-name="onequarter" unicode="&#xbc;" horiz-adv-x="2605" 
d="M1880 442h209v292zM684 1081c0 -18 -3.50195 -35 -10.502 -51s-16.667 -30 -29 -42s-26.666 -21.333 -42.999 -28s-33.833 -10 -52.5 -10s-36 3.33301 -52 10s-29.833 16 -41.5 28s-20.834 26 -27.501 42s-10 33 -10 51v819h-90c-19.333 0 -37.333 3.33301 -54 10
s-31 16 -43 28s-21.333 26 -28 42s-10 33.333 -10 52c0 18 3.33301 35 10 51s15.834 30 27.501 42s25.5 21.333 41.5 28s33.333 10 52 10h229c18.667 0 36 -3.33301 52 -10s29.833 -16 41.5 -28s20.834 -26 27.501 -42s10 -33 10 -51v-951zM773.998 37
c-11.333 -15.333 -24.333 -27.835 -39 -37.502s-30.334 -16.167 -47.001 -19.5s-33.334 -3.33301 -50.001 0s-32.667 10 -48 20c-15.333 11.333 -27.833 24.333 -37.5 39s-16.167 30.334 -19.5 47.001s-3.33301 33.334 0 50.001s10 32.667 20 48l1364 1938
c11.333 15.333 24.333 27.833 39 37.5s30.334 16.167 47.001 19.5s33.334 3.33301 50.001 0s32.667 -10 48 -20c15.333 -11.333 27.833 -24.333 37.5 -39s16.167 -30.334 19.5 -47c3.33301 -16.667 3.33301 -33.5 0 -50.5s-10 -33.167 -20 -48.5zM1601 196.998
c-25.333 0 -46.833 8.83301 -64.5 26.5s-26.5 39.167 -26.5 64.5c0 20.667 5.66699 38.667 17 54l633 907c9.33301 13.333 21 23.833 35 31.5s29.667 11.5 47 11.5c14 0 27.167 -2.66699 39.5 -8s23 -12.5 32 -21.5s16.167 -19.667 21.5 -32s8 -25.5 8 -39.5v-749h49
c17.333 0 33.5 -3.16699 48.5 -9.5s28 -15 39 -26s19.667 -24 26 -39s9.5 -31.167 9.5 -48.5s-3.16699 -33.333 -9.5 -48s-15 -27.5 -26 -38.5s-24 -19.667 -39 -26s-31.167 -9.5 -48.5 -9.5h-49v-91c0 -17.333 -3.33301 -33.666 -10 -48.999s-15.834 -28.666 -27.5 -39.999
c-11.667 -11.333 -25.167 -20.333 -40.5 -27s-31.666 -10 -49 -10c-17.333 0 -33.833 3.33301 -49.5 10s-29.167 15.667 -40.5 27s-20.333 24.666 -27 39.999s-10 31.666 -10 48.999v91h-488z" />
    <glyph glyph-name="onehalf" unicode="&#xbd;" horiz-adv-x="2585" 
d="M664 37c-23.333 -31.333 -52.167 -50.502 -86.5 -57.502s-67.166 -0.166992 -98.499 20.5c-15.333 11.333 -27.833 24.333 -37.5 39s-16.167 30.334 -19.5 47.001s-3.33301 33.334 0 50.001s10 32.667 20 48l1364 1938c11.333 15.333 24.333 27.833 39 37.5
s30.334 16.167 47.001 19.5s33.5 3.33301 50.5 0s33.167 -10 48.5 -20c15.333 -11.333 27.666 -24.333 36.999 -39s15.666 -30.334 18.999 -47c3.33301 -16.667 3.5 -33.5 0.5 -50.5s-9.5 -33.167 -19.5 -48.5zM2365 -0.00195312c18.667 0 36.0029 3.16504 52.0029 9.49805
s29.833 15.166 41.5 26.499s20.834 24.666 27.5 39.999c6.66699 15.333 10 32.333 10 51s-3.33301 36 -10 52s-15.834 29.833 -27.5 41.5c-11.667 11.667 -25.5 20.834 -41.5 27.501s-33.333 10 -52 10h-301l86 94c12.667 12 27 26.5 43 43.5l49.5 52.5l50 54.5
c16.333 18.333 30.5 35.166 42.5 50.499c18 22.667 35.167 45.834 51.5 69.501s30.666 48.667 43 75c12.333 26.333 22.166 54.333 29.5 84c7.33301 29.667 11 61.5 11 95.5c0 57.333 -11.333 111 -34 161s-53.334 93.667 -92 131
c-38.667 37.333 -83.834 66.833 -135.501 88.5s-106.5 32.5 -164.5 32.5c-56.667 0 -109.667 -11.833 -159 -35.5s-92.666 -54 -129.999 -91s-67.666 -78 -90.999 -123s-37.333 -88.833 -42 -131.5c-2 -16.667 -1 -33.334 3 -50.001s10.667 -32.167 20 -46.5
s21 -26.666 35 -36.999s30.333 -17.5 49 -21.5c16 -3.33301 32.667 -3.16602 50 0.500977s33.166 10.334 47.499 20.001s26.666 21.667 36.999 36s17.166 30.833 20.499 49.5c4 24.667 10.333 47.167 19 67.5s19.5 38 32.5 53s28.5 26.667 46.5 35s38.667 12.5 62 12.5
c21.333 0 41.666 -3.83301 61 -11.5c19.333 -7.66699 36.333 -18.167 51 -31.5s26.334 -28.833 35 -46.5c8.66699 -17.667 13 -36.834 13 -57.501c0 -16.667 -3.5 -34 -10.5 -52s-16 -36.167 -27 -54.5s-23.333 -36.166 -37 -53.499l-40.5 -49l-198 -220l-209 -223
c-11.333 -12 -20.333 -26.167 -27 -42.5s-10 -33.5 -10 -51.5c0 -18.667 3.5 -36.167 10.5 -52.5s16.667 -30.666 29 -42.999s26.666 -22 42.999 -29s33.833 -10.5 52.5 -10.5h585zM684.002 1081c0 -18 -3.50195 -35 -10.502 -51s-16.667 -30 -29 -42
s-26.666 -21.333 -42.999 -28s-33.833 -10 -52.5 -10s-36 3.33301 -52 10s-29.833 16 -41.5 28s-20.834 26 -27.501 42s-10 33 -10 51v819h-90c-19.333 0 -37.333 3.33301 -54 10s-31 16 -43 28s-21.333 26 -28 42s-10 33.333 -10 52c0 18 3.33301 35 10 51
s15.834 30 27.501 42s25.5 21.333 41.5 28s33.333 10 52 10h229c18.667 0 36 -3.33301 52 -10s29.833 -16 41.5 -28s20.834 -26 27.501 -42s10 -33 10 -51v-951z" />
    <glyph glyph-name="threequarters" unicode="&#xbe;" horiz-adv-x="2626" 
d="M193 1200c2 -29.333 13.4971 -61.832 34.4971 -97.499s49.167 -69 84.5 -100s76.5 -57 123.5 -78s97.167 -31.5 150.5 -31.5c60 0 115.333 9.66699 166 29s94.334 46.5 131.001 81.5s65.167 76.5 85.5 124.5s30.5 100.667 30.5 158c0 52 -10.333 101.333 -31 148
s-48.334 87.334 -83.001 122.001c30.667 33.333 54.667 70.166 72 110.499s26 84.166 26 131.499c0 52 -9.66699 100.5 -29 145.5s-45.833 84 -79.5 117s-73.5 59 -119.5 78s-95.667 28.5 -149 28.5c-61.333 0 -114.166 -9 -158.499 -27s-81.5 -42.333 -111.5 -73
s-53.5 -66 -70.5 -106s-29.167 -82 -36.5 -126c-2 -16.667 -1 -32.667 3 -48s10.5 -29.333 19.5 -42s20.333 -23.334 34 -32.001s29.167 -14.334 46.5 -17.001c32.667 -4 61.334 4 86.001 24s41 47.333 49 82c4 17.333 10.5 33.5 19.5 48.5s19.5 28 31.5 39
s25.167 19.667 39.5 26s29.166 9.5 44.499 9.5c39.333 0 70.333 -10.667 93 -32s34 -51.666 34 -90.999c0 -23.333 -1.5 -44.833 -4.5 -64.5s-9.33301 -37 -19 -52s-23.5 -27 -41.5 -36s-42 -14.833 -72 -17.5c-12.667 -1.33301 -23 -6.5 -31 -15.5s-14 -20.167 -18 -33.5
s-5.83301 -27.666 -5.5 -42.999s2.66602 -29.5 6.99902 -42.5s10.5 -23.833 18.5 -32.5s18 -13 30 -13c30 -0.666992 54.667 -4.5 74 -11.5s34.833 -17.5 46.5 -31.5s19.834 -31.5 24.501 -52.5s7 -45.833 7 -74.5c0 -21.333 -3.66699 -41.5 -11 -60.5
s-17.833 -35.5 -31.5 -49.5s-30 -25.167 -49 -33.5s-40.167 -12.5 -63.5 -12.5s-43.666 3.5 -60.999 10.5s-31.833 16.5 -43.5 28.5s-21 25.667 -28 41s-12.167 31 -15.5 47c-3.33301 17.333 -9.83301 33 -19.5 47s-21.5 25.5 -35.5 34.5s-29.333 15.167 -46 18.5
s-33.334 3 -50.001 -1c-21.333 -5.33301 -38.666 -12.833 -51.999 -22.5s-23.666 -21.167 -30.999 -34.5s-12 -28 -14 -44s-2.33301 -33 -1 -51zM871.997 37.001c-22.667 -31.333 -51.167 -50.501 -85.5 -57.501s-67.166 -0.166992 -98.499 20.5
c-15.333 11.333 -27.833 24.333 -37.5 39s-16.167 30.334 -19.5 47.001s-3.33301 33.334 0 50.001s10 32.667 20 48l1364 1938c11.333 15.333 24.333 27.833 39 37.5s30.334 16.167 47 19.5c16.667 3.33301 33.5 3.33301 50.5 0s33.167 -10 48.5 -20
c15.333 -11.333 27.666 -24.333 37 -39c9.33301 -14.667 15.666 -30.334 18.999 -47.001s3.33301 -33.5 0 -50.5s-10 -33.167 -20 -48.5zM1880 442h209v292zM1601 197c-25.333 0 -46.834 8.83301 -64.501 26.5s-26.5 39.167 -26.5 64.5c0 20.667 5.66699 38.667 17 54
l633 907c9.33301 13.333 21 23.833 35 31.5s29.667 11.5 47 11.5c14 0 27.167 -2.66699 39.5 -8s23 -12.5 32 -21.5s16.167 -19.667 21.5 -32s8 -25.5 8 -39.5v-749h49c17.333 0 33.5 -3.16699 48.5 -9.5s28 -15 39 -26s19.667 -24 26 -39s9.5 -31.167 9.5 -48.5
s-3.16699 -33.333 -9.5 -48s-15 -27.5 -26 -38.5s-24 -19.667 -39 -26s-31.167 -9.5 -48.5 -9.5h-49v-91c0 -17.333 -3.33301 -33.666 -10 -48.999s-15.834 -28.666 -27.5 -39.999c-11.667 -11.333 -25.167 -20.333 -40.5 -27s-31.666 -10 -48.999 -10
s-33.833 3.33301 -49.5 10s-29.167 15.667 -40.5 27s-20.333 24.666 -27 39.999s-10 31.666 -10 48.999v91h-488z" />
    <glyph glyph-name="multiply" unicode="&#xd7;" horiz-adv-x="1589" 
d="M799 561l-422 -422c-15.333 -15.333 -32.666 -26.833 -51.999 -34.5s-39 -11.5 -59 -11.5s-39.5 3.83301 -58.5 11.5s-36.167 19.167 -51.5 34.5c-14.667 14.667 -25.5 31.334 -32.5 50.001s-10.5 37.834 -10.5 57.501s4 39 12 58s19.667 36.167 35 51.5l422 422
l-422 422c-15.333 15.333 -27 32.666 -35 51.999s-12 38.833 -12 58.5s3.5 38.834 10.5 57.501s17.833 35 32.5 49c15.333 15.333 32.5 26.833 51.5 34.5s38.5 11.5 58.5 11.5s39.667 -3.83301 59 -11.5s36.666 -19.167 51.999 -34.5l422 -422l422 422
c15.333 15.333 32.5 26.833 51.5 34.5s38.5 11.5 58.5 11.5s39.667 -3.83301 59 -11.5s36.666 -19.167 51.999 -34.5c14 -14 24.667 -30.333 32 -49s10.833 -37.834 10.5 -57.501s-4.33301 -39.167 -12 -58.5s-19.167 -36.666 -34.5 -51.999l-422 -422l422 -422
c15.333 -15.333 26.833 -32.5 34.5 -51.5s11.667 -38.333 12 -58s-3.16699 -38.834 -10.5 -57.501s-18 -35.334 -32 -50.001c-15.333 -15.333 -32.666 -26.833 -51.999 -34.5s-39 -11.5 -59 -11.5s-39.5 3.83301 -58.5 11.5s-36.167 19.167 -51.5 34.5z" />
    <glyph glyph-name="divide" unicode="&#xf7;" horiz-adv-x="1610" 
d="M1008 1294c0 -32 -5.83301 -61.5 -17.5 -88.5s-27.334 -50.333 -47.001 -70s-42.667 -35 -69 -46s-54.166 -16.5 -83.499 -16.5c-32 0 -61.5 5.66699 -88.5 17s-50.333 26.833 -70 46.5s-35.167 42.667 -46.5 69s-17 54.5 -17 84.5c0 32 5.83301 61.5 17.5 88.5
s27.334 50.333 47.001 70s42.667 35 69 46s54.166 16.5 83.499 16.5c32 0 61.5 -5.66699 88.5 -17s50.333 -26.833 70 -46.5s35.167 -42.667 46.5 -69s17 -54.5 17 -84.5zM1008 303c0 -32 -5.83301 -61.5 -17.5 -88.5s-27.334 -50.333 -47.001 -70s-42.667 -35 -69 -46
s-54.166 -16.5 -83.499 -16.5c-32 0 -61.5 5.66699 -88.5 17s-50.333 26.833 -70 46.5s-35.167 42.667 -46.5 69s-17 54.5 -17 84.5c0 32 5.83301 61.5 17.5 88.5s27.334 50.333 47.001 70s42.667 35 69 46s54.166 16.5 83.499 16.5c32 0 61.5 -5.5 88.5 -16.5
s50.333 -26.333 70 -46s35.167 -43 46.5 -70s17 -56.5 17 -88.5v4zM1401 963c22.667 0 43.834 -4.5 63.501 -13.5s37 -21.167 52 -36.5s26.833 -33.166 35.5 -53.499s13 -41.833 13 -64.5s-4.33301 -43.834 -13 -63.501s-20.5 -37 -35.5 -52s-32.333 -26.833 -52 -35.5
s-40.834 -13 -63.501 -13h-1184c-22.667 0 -43.834 4.33301 -63.501 13s-37 20.5 -52 35.5s-26.833 32.333 -35.5 52s-13 40.834 -13 63.501s4.33301 44.167 13 64.5s20.5 38.166 35.5 53.499s32.333 27.5 52 36.5s40.834 13.5 63.501 13.5h1184z" />
    <glyph glyph-name="kokaithai" unicode="&#xe01;" horiz-adv-x="1991" 
d="M1835 184c0 -26.667 -5.33691 -51.999 -16.0039 -75.999s-25 -45.167 -43 -63.5s-39.167 -33 -63.5 -44s-50.5 -16.5 -78.5 -16.5c-27.333 0 -53 5.5 -77 16.5s-44.833 25.667 -62.5 44s-31.5 39.5 -41.5 63.5s-15 49.333 -15 76v869c0 65.333 -12.167 125.5 -36.5 180.5
s-58.666 102.5 -102.999 142.5s-98 71.167 -161 93.5s-133.5 33.5 -211.5 33.5c-145.333 0 -269.666 -51.667 -372.999 -155l98 -107v-1061c0 -26.667 -5.33301 -52 -16 -76s-25 -45.167 -43 -63.5s-39.167 -33 -63.5 -44s-50.166 -16.5 -77.499 -16.5
c-28 0 -54 5.5 -78 16.5s-44.833 25.667 -62.5 44s-31.5 39.5 -41.5 63.5s-15 49.333 -15 76v934l-89 94c-24 24.667 -39.167 50.667 -45.5 78s-7.66602 53.5 -3.99902 78.5s10.5 47.833 20.5 68.5s20 37 30 49c48.667 61.333 101.667 116.166 159 164.499
s118 89.166 182 122.499s131 58.833 201 76.5s142.667 26.5 218 26.5c87.333 0 170.5 -9.16699 249.5 -27.5s152.167 -44.666 219.5 -78.999s128 -76 182 -125s100.167 -103.833 138.5 -164.5s67.833 -126.5 88.5 -197.5s31 -146.167 31 -225.5v-869z" />
    <glyph glyph-name="khokhaithai" unicode="&#xe02;" horiz-adv-x="1720" 
d="M377 1384c-15.333 -21.333 -33.334 -38.668 -54.001 -52.001s-42.5 -22.666 -65.5 -27.999s-46.5 -6.16602 -70.5 -2.49902s-46.667 12.167 -68 25.5c-21.333 14 -39 31.5 -53 52.5s-23.833 43.167 -29.5 66.5s-6.5 47.166 -2.5 71.499s13 46.833 27 67.5
c30 43.333 62.5 82.666 97.5 117.999s73.333 65.5 115 90.5s87 44.333 136 58s102.167 20.5 159.5 20.5c78.667 0 152.334 -13.167 221.001 -39.5s128.5 -63 179.5 -110s91 -103.167 120 -168.5s43.5 -137 43.5 -215c0 -52.667 -4.66699 -99.334 -14 -140.001
s-22.5 -77.167 -39.5 -109.5s-37.833 -61.666 -62.5 -87.999s-52.334 -51.166 -83.001 -74.499s-64.167 -46.333 -100.5 -69l-114.5 -72c-19.333 -13.333 -35.5 -26.333 -48.5 -39s-23.333 -26.5 -31 -41.5s-13.167 -31.5 -16.5 -49.5s-5 -38.667 -5 -62
c0 -36 7 -69.333 21 -100s33.5 -57.5 58.5 -80.5s54.5 -41 88.5 -54s71 -19.5 111 -19.5s76.833 6.5 110.5 19.5s62.5 31 86.5 54s42.833 49.833 56.5 80.5s20.5 64 20.5 100v1073c0 26.667 5.33301 52 16 76s25 45 43 63s38.833 32.167 62.5 42.5s48.834 15.5 75.501 15.5
s52 -5.16699 76 -15.5s45 -24.5 63 -42.5s32.167 -39 42.5 -63s15.5 -49.333 15.5 -76v-1073c0 -86 -17.5 -166.833 -52.5 -242.5s-82.667 -141.667 -143 -198s-131.166 -100.833 -212.499 -133.5s-168 -49 -260 -49c-91.333 0 -177.5 16.333 -258.5 49
s-151.833 77.167 -212.5 133.5s-108.667 122.333 -144 198s-53 156.5 -53 242.5c0 76.667 9.66699 143 29 199s47 106 83 150s79.333 84.333 130 121s107.334 74 170.001 112c19.333 12 35.833 23.167 49.5 33.5s24.667 21.333 33 33s14.5 24.5 18.5 38.5s6 30.667 6 50
c0 56 -15.167 100 -45.5 132s-73.5 48 -129.5 48c-32.667 0 -65.834 -10.5 -99.501 -31.5s-65.834 -52.833 -96.501 -95.5z" />
    <glyph glyph-name="khokhuatthai" unicode="&#xe03;" horiz-adv-x="1679" 
d="M92 1552c-19.333 15.333 -34.5029 33.6709 -45.5029 55.0039s-17.833 43.333 -20.5 66s-0.833984 45.334 5.49902 68.001s17.166 43 32.499 61c15.333 19.333 33.5 34.666 54.5 45.999s42.833 18.166 65.5 20.499s45.334 0.5 68.001 -5.5s43.334 -16.667 62.001 -32
l147 -115l197 160c148.667 -56 260.167 -129.333 334.5 -220s111.5 -195 111.5 -313c0 -52 -4.66699 -97.5 -14 -136.5s-22.5 -73.5 -39.5 -103.5s-37.5 -56.833 -61.5 -80.5s-50.5 -46 -79.5 -67s-60.333 -41.667 -94 -62s-68.5 -42.5 -104.5 -66.5
c-23.333 -15.333 -43.166 -30.666 -59.499 -45.999s-29.666 -32 -39.999 -50s-17.833 -38.167 -22.5 -60.5s-7 -47.833 -7 -76.5c0 -34 6.83301 -66.333 20.5 -97s32.5 -57.667 56.5 -81s52.833 -41.833 86.5 -55.5s70.5 -20.5 110.5 -20.5s76.833 6.83301 110.5 20.5
s62.5 32.167 86.5 55.5s42.833 50.333 56.5 81s20.5 63 20.5 97v1073c0 26.667 5.33301 52 16 76s25 45 43 63s38.833 32.167 62.5 42.5s48.834 15.5 75.501 15.5s52 -5.16699 76 -15.5s45 -24.5 63 -42.5s32.167 -39 42.5 -63s15.5 -49.333 15.5 -76v-1073
c0 -57.333 -8 -112.5 -24 -165.5s-38.5 -102.333 -67.5 -148s-63.833 -87.334 -104.5 -125.001s-85.667 -69.834 -135 -96.501s-102.5 -47.334 -159.5 -62.001s-116.167 -22 -177.5 -22c-91.333 0 -177.333 16.167 -258 48.5s-151.5 76.333 -212.5 132
s-109.167 121.167 -144.5 196.5s-53 156 -53 242c0 72 8.83301 135.167 26.5 189.5s43.167 103.666 76.5 147.999s74 85.166 122 122.499s102.333 75 163 113l51.5 34c17 11.333 32.333 24 46 38s24.667 29.667 33 47s12.5 38 12.5 62c0 14 -2.16699 28.333 -6.5 43
s-11.833 30.334 -22.5 47.001l-221 -181z" />
    <glyph glyph-name="khokhwaithai" unicode="&#xe04;" horiz-adv-x="1925" 
d="M811 1114c25.333 0 49.166 -4.83301 71.499 -14.5s41.833 -22.834 58.5 -39.501s29.834 -36.167 39.501 -58.5s14.5 -46.166 14.5 -71.499c0 -26 -4.83301 -50 -14.5 -72s-22.834 -41 -39.501 -57s-36.167 -28.5 -58.5 -37.5s-46.166 -13.5 -71.499 -13.5h-258v-570
c0 -26.667 -5.33301 -52 -16 -76s-25 -45.167 -43 -63.5s-39.167 -33 -63.5 -44s-50.5 -16.5 -78.5 -16.5c-27.333 0 -53 5.5 -77 16.5s-44.833 25.667 -62.5 44s-31.5 39.5 -41.5 63.5s-15 49.333 -15 76v934c0 68.667 9.66699 135 29 199s46.666 123.833 81.999 179.5
s77.5 106.334 126.5 152.001s103.5 84.667 163.5 117s124.167 57.5 192.5 75.5s139.5 27 213.5 27c73.333 0 144.333 -9 213 -27s132.834 -43.167 192.501 -75.5s114.167 -71.333 163.5 -117s91.5 -96.334 126.5 -152.001s62.167 -115.5 81.5 -179.5s29 -130.333 29 -199
v-930c0 -26.667 -5.33301 -52 -16 -76s-25 -45.167 -43 -63.5s-39.167 -33 -63.5 -44s-50.166 -16.5 -77.499 -16.5c-28 0 -54 5.5 -78 16.5s-44.833 25.667 -62.5 44s-31.5 39.5 -41.5 63.5s-15 49.333 -15 76v930c0 52 -10.833 101.167 -32.5 147.5s-51 86.833 -88 121.5
s-80.333 62 -130 82s-102.5 30 -158.5 30c-58.667 0 -113 -10 -163 -30s-93.333 -47.333 -130 -82s-65.334 -75.167 -86.001 -121.5s-31 -95.5 -31 -147.5h258z" />
    <glyph glyph-name="khokhonthai" unicode="&#xe05;" horiz-adv-x="2015" 
d="M1462 1163c0 56 -10.834 108.669 -32.501 158.002s-53.167 93.666 -94.5 132.999l-331 -278l-324 278c-39.333 -39.333 -70.333 -84.333 -93 -135s-34 -104 -34 -160v-45h287c25.333 0 49.166 -4.83301 71.499 -14.5s41.833 -22.834 58.5 -39.501
s29.834 -36.167 39.501 -58.5s14.5 -46.166 14.5 -71.499c0 -26 -4.83301 -50 -14.5 -72s-22.834 -41 -39.501 -57s-36.167 -28.5 -58.5 -37.5s-46.166 -13.5 -71.499 -13.5h-287v-570c0 -26.667 -5.33301 -52 -16 -76s-25 -45.167 -43 -63.5s-39.167 -33 -63.5 -44
s-50.5 -16.5 -78.5 -16.5c-27.333 0 -53 5.5 -77 16.5s-44.833 25.667 -62.5 44s-31.5 39.5 -41.5 63.5s-15 49.333 -15 76v983c0 78.667 12.167 154.167 36.5 226.5s60.333 140.166 108 203.499s107 121.5 178 174.5s153.167 100.167 246.5 141.5l283 -242l286 238
c91.333 -40 172.166 -86.333 242.499 -139s129.5 -110.5 177.5 -173.5s84.333 -130.667 109 -203s37 -147.833 37 -226.5v-979c0 -26.667 -5.33301 -52 -16 -76s-25.167 -45.167 -43.5 -63.5s-39.666 -33 -63.999 -44s-50.166 -16.5 -77.499 -16.5c-28 0 -54 5.5 -78 16.5
s-44.833 25.667 -62.5 44s-31.5 39.5 -41.5 63.5s-15 49.333 -15 76v979z" />
    <glyph glyph-name="khorakhangthai" unicode="&#xe06;" horiz-adv-x="1937" 
d="M106 1585c-17.333 14 -30.8359 30.501 -40.5029 49.501s-15.667 38.667 -18 59s-0.666016 40.666 5.00098 60.999s15.5 38.833 29.5 55.5s30.333 30.167 49 40.5s38.167 16.666 58.5 18.999s40.666 0.666016 60.999 -5.00098s39.166 -15.5 56.499 -29.5l111 -82l168 135
c123.333 -47.333 215.5 -108.5 276.5 -183.5s91.5 -163.833 91.5 -266.5c0 -54 -9.66699 -101.667 -29 -143s-43.666 -79 -72.999 -113s-60.833 -65.5 -94.5 -94.5s-65.167 -58.167 -94.5 -87.5s-53.666 -60.166 -72.999 -92.499s-29 -68.5 -29 -108.5
c0 -41.333 6 -81.166 18 -119.499s28.833 -74.5 50.5 -108.5s47.334 -65.167 77.001 -93.5s62.167 -52.666 97.5 -72.999s72.666 -36.166 111.999 -47.499s79.333 -17 120 -17c48 0 93.167 6.83301 135.5 20.5s79.333 34 111 61s56.5 60.333 74.5 100s27 85.5 27 137.5v1004
c0 26.667 5 52 15 76s23.833 45.333 41.5 64s38.5 33.5 62.5 44.5s50 16.5 78 16.5s54.167 -5.5 78.5 -16.5s45.5 -25.833 63.5 -44.5s32.333 -40 43 -64s16 -49.333 16 -76v-1004c0 -72 -9.5 -139 -28.5 -201s-45.5 -118.5 -79.5 -169.5s-73.833 -96.5 -119.5 -136.5
s-95.5 -73.667 -149.5 -101s-110.5 -48.166 -169.5 -62.499s-118.5 -21.5 -178.5 -21.5c-45.333 0 -90.166 4 -134.499 12s-87.666 20.833 -129.999 38.5s-83 40.5 -122 68.5s-75.5 62 -109.5 102v-12c0 -25.333 -5.16699 -49.833 -15.5 -73.5s-24.5 -44.5 -42.5 -62.5
s-38.833 -32.5 -62.5 -43.5s-48.834 -16.5 -75.501 -16.5c-28 0 -54 5.5 -78 16.5s-44.833 25.5 -62.5 43.5s-31.5 38.833 -41.5 62.5s-15 48.167 -15 73.5v586c0 63.333 7.66699 119.666 23 168.999s35.166 93.333 59.499 132s51.5 73 81.5 103s59.667 57.333 89 82
l81 68.5c24.667 21 44.334 42.167 59.001 63.5c2.66699 5.33301 5.33398 12.666 8.00098 21.999s4.5 19.5 5.5 30.5s1.16699 21.667 0.5 32s-2.66699 19.166 -6 26.499l-159 -143z" />
    <glyph glyph-name="ngonguthai" unicode="&#xe07;" horiz-adv-x="1626" 
d="M1470 410c0 -59.333 -12.167 -115.5 -36.5 -168.5s-57.333 -99.167 -99 -138.5s-90.167 -70.5 -145.5 -93.5s-114.333 -34.5 -177 -34.5c-48 0 -93.333 6.33301 -136 19s-82 30.334 -118 53.001s-68.167 49.5 -96.5 80.5s-52.166 64.833 -71.499 101.5l-475 959
c-12 23.333 -18.833 47.833 -20.5 73.5s1.66602 50.5 9.99902 74.5s21 46 38 66s37.833 36 62.5 48c23.333 12 47.833 18.667 73.5 20s50.5 -2 74.5 -10s46 -20.5 66 -37.5s36 -37.833 48 -62.5l483 -979c13.333 -22 34 -33 62 -33c18.667 0 34.167 6.16699 46.5 18.5
s18.5 26.833 18.5 43.5v1065h-86c-25.333 0 -49.166 4.83301 -71.499 14.5s-41.833 22.667 -58.5 39s-29.834 35.666 -39.501 57.999s-14.5 46.5 -14.5 72.5c0 25.333 4.83301 49.166 14.5 71.499s22.834 41.833 39.501 58.5s36.167 29.834 58.5 39.501
s46.166 14.5 71.499 14.5h295c25.333 0 49.166 -4.83301 71.499 -14.5s41.833 -22.834 58.5 -39.501s29.834 -36.167 39.501 -58.5s14.5 -46.166 14.5 -71.499v-1249z" />
    <glyph glyph-name="chochanthai" unicode="&#xe08;" horiz-adv-x="1786" 
d="M1274 111c-14.667 -37.333 -39.0039 -67.832 -73.0039 -91.499s-72.667 -35.5 -116 -35.5s-80.333 11.667 -111 35s-52.334 52.333 -65.001 87l-299 803c-9.33301 24.667 -13.166 49.667 -11.499 75s7.83398 49.166 18.501 71.499s25.167 42.166 43.5 59.499
s39.833 30.666 64.5 39.999s49.834 13.333 75.501 12s49.834 -7 72.501 -17s43 -24.333 61 -43s31.667 -41 41 -67l119 -323l114 295c16.667 44 25 86.333 25 127c0 48 -10.167 93.5 -30.5 136.5s-48 80.833 -83 113.5s-76.167 58.5 -123.5 77.5s-98 28.5 -152 28.5
c-44.667 0 -84 -5.66699 -118 -17s-64 -26.5 -90 -45.5s-48.167 -40.333 -66.5 -64s-34.166 -48 -47.499 -73s-24.333 -49.333 -33 -73s-16 -44.834 -22 -63.501c-7.33301 -25.333 -19.5 -48 -36.5 -68s-36.667 -36.167 -59 -48.5s-46.5 -20.333 -72.5 -24
s-52 -1.83398 -78 5.49902c-25.333 7.33301 -48 19.166 -68 35.499s-36.167 35.5 -48.5 57.5s-20.333 45.833 -24 71.5s-1.83398 51.5 5.49902 77.5c23.333 86 58 165.667 104 239s101.5 136.833 166.5 190.5s138.5 95.834 220.5 126.501s171 46 267 46
c72.667 0 142.667 -8.66699 210 -26s130.166 -41.666 188.499 -72.999s111.333 -69.166 159 -113.499s88.334 -93.5 122.001 -147.5s59.834 -112.167 78.501 -174.5s28 -127.166 28 -194.499c0 -89.333 -16.333 -172.666 -49 -249.999z" />
    <glyph glyph-name="chochingthai" unicode="&#xe09;" horiz-adv-x="1864" 
d="M573 651c0 -54.667 10.4971 -102.004 31.4971 -142.004s48.833 -72.667 83.5 -98s74.167 -43.5 118.5 -54.5s89.5 -14.667 135.5 -11s91.167 14.334 135.5 32.001s83.833 42.334 118.5 74.001s62.5 70.334 83.5 116.001s31.5 98.167 31.5 157.5v414
c0 48.667 -10.167 94.667 -30.5 138s-48 81.166 -83 113.499s-76.167 57.833 -123.5 76.5s-98 28 -152 28c-40 0 -79 -4.66699 -117 -14s-73.167 -22.833 -105.5 -40.5s-60.833 -39.167 -85.5 -64.5s-43.667 -54 -57 -86c-11.333 -25.333 -26.333 -46.5 -45 -63.5
s-39.5 -29.5 -62.5 -37.5s-47.167 -11.167 -72.5 -9.5s-50 8.5 -74 20.5s-44.167 27.333 -60.5 46s-28.666 39.334 -36.999 62.001s-12 46.5 -11 71.5s7.16699 49.833 18.5 74.5c32 56 70.5 109.167 115.5 159.5s97 94.333 156 132s124.833 67.5 197.5 89.5
s152.667 33 240 33c71.333 0 140.333 -8.66699 207 -26s129 -41.666 187 -72.999s110.833 -69.166 158.5 -113.499s88.5 -93.5 122.5 -147.5s60.333 -112.167 79 -174.5s28 -127.166 28 -194.499v-963c0 -26.667 -5.16699 -51.667 -15.5 -75s-24.5 -43.833 -42.5 -61.5
s-39 -31.834 -63 -42.501s-49.333 -16.334 -76 -17.001c-25.333 -1.33301 -49.833 3.16699 -73.5 13.5s-44.5 24 -62.5 41s-32.5 36.5 -43.5 58.5s-16.5 44.333 -16.5 67c-63.333 -67.333 -133 -115 -209 -143s-154 -42 -234 -42c-57.333 2 -114.166 11 -170.499 27
s-110 38 -161 66s-98.167 62 -141.5 102s-81 84.833 -113 134.5s-57 104.334 -75 164.001s-27 123.167 -27 190.5v91c-24.667 0 -47.834 4.66699 -69.501 14s-40.667 22.166 -57 38.499s-29.333 35.5 -39 57.5s-14.5 45.333 -14.5 70s4.83301 47.834 14.5 69.501
s22.667 40.667 39 57s35.333 29.333 57 39s44.834 14.5 69.501 14.5h213c24.667 0 47.834 -4.83301 69.501 -14.5s40.667 -22.667 57 -39s29.333 -35.333 39 -57s14.5 -44.834 14.5 -69.501v-279z" />
    </font>
</defs>
</svg>
