<svg width="168" height="16" viewBox="0 0 168 16" version="1.1" xmlns="http://www.w3.org/2000/svg"><title>gb-icon-flags</title><g stroke="none" stroke-width="1" fill="none" fill-rule="evenodd"><path fill="#DE2910" d="M0 0h24v16H0z"/><path d="M11.999 7.998c-2.807-1.187-1.563-4.842 1.122-4.659-.543.28-.622.8-.312 1.283.348.54-.032 1.409-.501 1.62-.772.347-.926 1.273-.309 1.756z" fill="#FFF" fill-rule="nonzero"/><path fill="#DE2910" fill-rule="nonzero" d="M11.847 5.358l-.158.248-.057-.289-.285-.073.257-.144-.018-.293.216.199.273-.107-.123.267.187.226zM12.015 7.967c-.34-.174-.613-.538-.733-.972a1.846 1.846 0 0 1 .216-1.467l-.059-.037a1.917 1.917 0 0 0-.224 1.523c.127.459.406.829.768 1.015l.032-.062z"/><path d="M12.002 7.998c.26-3.036 4.122-2.982 4.777-.372-.433-.43-.953-.344-1.316.1-.406.497-1.35.405-1.696.023-.569-.626-1.497-.487-1.765.25z" fill="#FFF" fill-rule="nonzero"/><path fill="#DE2910" fill-rule="nonzero" d="M14.466 7.038l-.285-.073.256-.143-.017-.294.216.2.273-.108-.124.266.188.227-.292-.034-.158.248zM12.036 8.004c.06-.377.322-.75.698-.997a1.846 1.846 0 0 1 1.462-.248l.017-.068a1.917 1.917 0 0 0-1.517.258c-.398.262-.664.642-.729 1.044l.07.011z"/><path d="M12.002 8.001c2.968-.69 4.11 3 1.83 4.428.276-.545.034-1.012-.501-1.22-.598-.233-.802-1.16-.547-1.606.42-.734.001-1.574-.782-1.602z" fill="#FFF" fill-rule="nonzero"/><path fill="#DE2910" fill-rule="nonzero" d="M13.676 10.048l-.017-.294.216.2.273-.108-.123.268.186.226-.291-.035-.158.248-.058-.288-.284-.073zM12.007 8.036c.377-.059.812.074 1.164.355.403.323.654.802.688 1.314l.07-.005a1.917 1.917 0 0 0-.715-1.363c-.372-.298-.815-.433-1.217-.37l.01.069z"/><path d="M12 8.002c1.573 2.61-1.582 4.836-3.646 3.11.603.093.973-.282 1.006-.855.036-.64.854-1.12 1.358-1.016.828.173 1.497-.486 1.281-1.239z" fill="#FFF" fill-rule="nonzero"/><path fill="#DE2910" fill-rule="nonzero" d="M10.57 10.227l.274-.108-.123.268.187.226-.292-.034-.158.247-.057-.287-.285-.075.256-.143-.017-.293zM11.968 8.018c.173.34.18.795.022 1.217-.182.482-.56.87-1.037 1.06l.026.065c.495-.199.887-.6 1.076-1.101.168-.446.16-.91-.024-1.272l-.063.031z"/><path d="M11.998 8c-1.996 2.303-5.089-.01-4.084-2.506.097.602.568.838 1.123.692.621-.163 1.33.466 1.386.978.092.841.925 1.274 1.575.836z" fill="#FFF" fill-rule="nonzero"/><path fill="#DE2910" fill-rule="nonzero" d="M9.44 7.329l.187.226-.292-.035-.158.249-.057-.288-.285-.075.257-.142-.018-.294.215.2.274-.108zM11.973 7.976c-.27.269-.7.417-1.15.396-.516-.024-1-.264-1.33-.659l-.053.045c.342.41.844.658 1.38.683.475.022.914-.13 1.202-.416l-.049-.05z"/><path fill="#FFF" d="M24 0h24v16H24z"/><path fill="#CE1126" d="M24 0h24v8H24z"/><path fill="#CC0001" d="M48 0h24v16H48z"/><path d="M48.001 14.857h24V16h-24v-1.143zm0-2.286h24v1.143h-24v-1.143zm0-2.285h24v1.143h-24v-1.143zm0-2.286h24v1.143h-24V8zm0-2.286h24v1.143h-24V5.714zm0-2.285h24V4.57h-24V3.43zm0-2.286h24v1.143h-24V1.143z" fill="#FFF" fill-rule="nonzero"/><path fill="#010066" fill-rule="nonzero" d="M48 0h14v9.143H48z"/><path d="M53.583 1.143c.712 0 1.374.216 1.923.586a3.05 3.05 0 0 0-1.059-.188 3.046 3.046 0 0 0-3.05 3.04 3.046 3.046 0 0 0 4.048 2.873A3.43 3.43 0 0 1 53.583 8a3.436 3.436 0 0 1-3.44-3.429 3.436 3.436 0 0 1 3.44-3.428zm5.705 5.213l-1.45-.756.429 1.548-.97-1.295-.302 1.576-.297-1.577-.973 1.292.433-1.546-1.451.751 1.078-1.21-1.642.064 1.51-.634-1.508-.638L55.787 4l-1.075-1.212 1.45.756-.429-1.548.97 1.295.302-1.576.297 1.577.973-1.292-.433 1.546 1.451-.752-1.078 1.21 1.642-.063-1.51.633 1.508.638-1.642-.067 1.075 1.212z" fill="#FC0" fill-rule="nonzero"/><path fill="#CE1126" d="M72 0h24v16H72z"/><path fill="#0038A8" fill-rule="nonzero" d="M72 0h24v8H72z"/><path fill="#FFF" fill-rule="nonzero" d="M85.857 8L72 16V0z"/><path d="M72.89 1.415l.479.414.555-.306-.246.584.462.434-.631-.053-.27.573-.144-.617-.628-.079.542-.328-.12-.622zm10.792 5.742l.013.634.599.208-.599.208-.013.633-.382-.505-.607.184.362-.52-.362-.52.607.183.382-.505zm-10.442 5.78l.269.573.631-.053-.462.433.246.584-.555-.305-.48.414.12-.622-.542-.328.628-.08.145-.616zm3.808-8.3l.207.206-.102 1.567c.034.002.069.005.103.01l.188-1.43.17.17-.255 1.277c.21.041.403.123.574.238l.724-1.083h.239l-.878 1.144c.027.02.054.043.08.066l1.035-1.18h.293v.292l-1.18 1.035a1.6 1.6 0 0 1 .066.08l1.144-.877v.239l-1.083.723c.114.171.196.365.238.574l1.277-.254.169.169-1.43.188c.005.034.008.069.01.104l1.567-.103.207.207-.207.207-1.566-.103-.01.104 1.429.188-.169.169-1.277-.254a1.583 1.583 0 0 1-.239.574l1.084.723v.24l-1.144-.879a1.603 1.603 0 0 1-.066.08l1.18 1.036v.293h-.293l-1.035-1.18a1.599 1.599 0 0 1-.08.065l.877 1.144h-.238l-.724-1.083c-.17.115-.365.197-.574.238l.254 1.278-.169.168-.188-1.429a1.61 1.61 0 0 1-.103.01l.102 1.567-.207.206-.206-.206.102-1.567a1.594 1.594 0 0 1-.104-.01l-.188 1.43-.169-.17.255-1.277a1.581 1.581 0 0 1-.574-.238l-.724 1.083H75.2l.878-1.144a1.607 1.607 0 0 1-.08-.066l-1.036 1.18h-.292v-.292l1.18-1.035a1.602 1.602 0 0 1-.066-.08l-1.144.877v-.239l1.083-.723a1.583 1.583 0 0 1-.238-.574l-1.277.254-.17-.169 1.43-.188a1.615 1.615 0 0 1-.01-.104l-1.566.103-.207-.207.207-.207 1.566.103c.002-.035.006-.07.01-.104l-1.43-.188.17-.169 1.277.254c.041-.209.124-.403.238-.574l-1.083-.723v-.24l1.144.879c.021-.028.043-.055.066-.08l-1.18-1.036V5.62h.292l1.035 1.18a1.6 1.6 0 0 1 .08-.065l-.877-1.144h.239l.723 1.083c.171-.115.366-.197.575-.238l-.255-1.278.17-.168.187 1.429c.035-.005.07-.008.104-.01l-.102-1.567.206-.206z" fill="#FCD116" fill-rule="nonzero"/><path fill="#FFF" d="M96 0h24v16H96z"/><path fill="#ED2939" d="M96 0h24v8H96z"/><path d="M101.942 1.246a2.86 2.86 0 0 0 .027 5.598 2.914 2.914 0 0 1-3.612-2 2.914 2.914 0 0 1 2-3.592 2.788 2.788 0 0 1 1.589-.006h-.004z" fill="#FFF" fill-rule="nonzero"/><path d="M101.502 3.611l.166.508-.44-.311-.435.318.16-.515-.434-.315.539-.007.17-.508.169.508h.535l-.43.322zm.593 1.762l.17.512-.441-.312-.438.315.163-.511-.434-.319.54-.003.165-.512.17.508h.542l-.437.322zm1.982-.013l.166.515-.44-.315-.434.315.16-.512-.435-.315.54-.007.169-.508.17.508h.535l-.43.319zm.59-1.749l.166.512-.44-.312-.434.315.162-.512-.437-.318.542-.003.163-.512.17.508h.542l-.434.322zm-1.57-1.162l.17.515-.44-.315-.437.318.162-.515-.434-.318.536-.004.17-.512.169.509h.542l-.437.322z" fill="#FFF" fill-rule="nonzero"/><path fill="#ED1C24" d="M120 0h24v16h-24z"/><path fill="#FFF" d="M120 2.6h24v10.8h-24z"/><path fill="#241D4F" d="M120 5.4h24v5.3h-24z"/><path fill="#DA251D" d="M144 0h24v16h-24z"/><path fill="#FF0" d="M156.005 9.425l-2.135 1.547.811-2.509-2.131-1.553 2.637-.004.818-2.506.818 2.506 2.637.004-2.131 1.553.811 2.509z"/></g></svg>