<svg width="600" height="60" viewBox="0 0 600 60" version="1.1" xmlns="http://www.w3.org/2000/svg"><title>gb-icon-spritesheet-products</title><g stroke="none" stroke-width="1" fill="none" fill-rule="evenodd"><g fill-rule="nonzero"><g transform="translate(3.333 4.667)"><path d="M27 4.286L4.444 23.95v24.688c0 .368.299.667.667.667H27V4.285z" fill="#F0F0F0"/><path d="M48.889 23.95v24.688a.666.666 0 0 1-.667.667H26.667V4.285L48.889 23.95z" fill="#E3E3E3"/><path d="M27 28.063h-5.667a.666.666 0 0 0-.666.667v20.667H27V28.063z" fill="#00B84B"/><path d="M32.667 28.73a.666.666 0 0 0-.667-.667h-5.333v21.334h6V28.73z" fill="#036B2D"/><circle fill="#F0F0F0" cx="23.667" cy="38.73" r="1"/><path d="M26.667 15.063a6 6 0 0 0-6 6v1.334h12v-1.334a6 6 0 0 0-6-6z" fill="#67D495"/><path d="M32.667 21.063a6 6 0 0 0-6-6v7.334h6v-1.334z" fill="#00B84B"/><path d="M9.333 31.397h6.334c.368 0 .666.298.666.666v8.667a.666.666 0 0 1-.666.667H9.333a.666.666 0 0 1-.666-.667v-8.667c0-.368.298-.666.666-.666zm28.667 0h6.333c.369 0 .667.298.667.666v8.667a.666.666 0 0 1-.667.667H38a.666.666 0 0 1-.667-.667v-8.667c0-.368.299-.666.667-.666z" fill="#67D495"/><path d="M26.873.398a.325.325 0 0 0-.413 0L.556 22.134a.663.663 0 0 0-.076.934l2.238 2.667a.662.662 0 0 0 .933.087l23.016-19.3.206-6.124z" fill="#00B84B"/><path d="M26.873.398l25.904 21.736a.663.663 0 0 1 .076.934l-2.238 2.667a.662.662 0 0 1-.933.087l-23.015-19.3V.323c.075 0 .148.026.206.075z" fill="#036B2D"/></g><path d="M56.533 38.767a64.704 64.704 0 0 0-7.633-.434c-2.567 0-5.1.134-7.6.434a.685.685 0 0 0-.633.666V48.7c0 2.333 1.1 4.167 2.933 5.567 4.1 2.8 4.4 3 5.3 3 .9 0 1.167-.2 5.3-3 1.867-1.434 2.933-3.267 2.933-5.567v-9.267c.034-.333-.233-.633-.6-.666z" fill="#FCC216"/><path d="M56.533 38.767a.692.692 0 0 1 .634.7v9.266c0 2.334-1.1 4.167-2.934 5.567-4.1 2.8-4.4 3-5.3 3V38.333c2.534 0 5.067.134 7.6.434z" fill="#EAAC11"/></g><g fill-rule="nonzero"><g transform="translate(64.667 8.333)"><path d="M48.667 0H2a2 2 0 0 0-2 2v35.667a2 2 0 0 0 2 2h.667v2a1 1 0 0 0 1 1H10a1 1 0 0 0 1-1v-2h28.667v2a1 1 0 0 0 1 1H47a1 1 0 0 0 1-1v-2h.667a2 2 0 0 0 2-2V2a2 2 0 0 0-2-2z" fill="#00B84B"/><path d="M48.667 0a2 2 0 0 1 2 2v35.667a2 2 0 0 1-2 2H48v2a1 1 0 0 1-1 1h-6.333a1 1 0 0 1-1-1v-2H25.333V0h23.334z" fill="#036B2D"/><path d="M45.333 5.333H5.667a.333.333 0 0 0-.334.334V34c0 .184.15.333.334.333h39.666c.184 0 .334-.149.334-.333V5.667a.333.333 0 0 0-.334-.334z" fill="#F2F2F2"/><path d="M45.333 5.333h-20v29h20c.184 0 .334-.149.334-.333V5.667a.333.333 0 0 0-.334-.334z" fill="#E3E3E3"/><path d="M30.667 14.667H20c-.368 0-.667.319-.667.712v8.908c0 .394.299.713.667.713h10.667c.368 0 .666-.319.666-.713V15.38c0-.393-.298-.712-.666-.712z" fill="#FCC216"/><path d="M25.333 14.667V25h5.334c.368 0 .666-.319.666-.713V15.38c0-.393-.298-.712-.666-.712h-5.334z" fill="#EAAC11"/><circle fill="#EAAC11" cx="38.5" cy="19.833" r="3.167"/><path d="M3.667 12H7a1.667 1.667 0 0 1 0 3.333H3.667a1.667 1.667 0 0 1 0-3.333zm0 12.333H7a1.667 1.667 0 0 1 0 3.334H3.667a1.667 1.667 0 0 1 0-3.334z" fill="#036B2D"/></g><path d="M96.833 52.667h11.334c.644 0 1.166.57 1.166 1.272v1.455c0 .703-.522 1.273-1.166 1.273H96.833c-.644 0-1.166-.57-1.166-1.273v-1.455c0-.703.522-1.272 1.166-1.272zm0-8h11.334c.644 0 1.166.522 1.166 1.166V47.5c0 .644-.522 1.167-1.166 1.167H96.833a1.167 1.167 0 0 1-1.166-1.167v-1.667c0-.644.522-1.166 1.166-1.166z" fill="#EAAC11"/><path d="M111.181 49.257l-1.487-4.578c-.2-.613.136-1.271.749-1.47l1.585-.515c.613-.2 1.271.136 1.47.749L117 54.222c.2.612-.136 1.27-.749 1.47l-1.585.515a1.167 1.167 0 0 1-1.47-.75l-1.87-5.755c.005.043.007.087.007.131V51.5c0 .644-.522 1.167-1.166 1.167H98.833a1.167 1.167 0 0 1-1.166-1.167v-1.667c0-.644.522-1.166 1.166-1.166h11.334c.435 0 .814.238 1.014.59zm-14.014-8.59H108.5c.644 0 1.167.57 1.167 1.272v1.455c0 .703-.523 1.273-1.167 1.273H97.167c-.645 0-1.167-.57-1.167-1.273v-1.455c0-.703.522-1.272 1.167-1.272z" fill="#FCC216"/></g><g fill-rule="nonzero"><path d="M143.5 11.667h-11.833v1.666h-.534c-3.2 0-5.8 2.567-5.8 5.767v28.433c0 1.9 1.567 3.467 3.5 3.467H143.5V11.667z" fill="#67D495"/><path d="M155.2 13.333h.133v-1.666h-23.666v1.666h11.5V51H157.5c1.933 0 3.5-1.533 3.5-3.467V19.1c0-3.2-2.6-5.767-5.8-5.767z" fill="#00B84B"/><path d="M132.2 6.667c-1.4 0-2.533 1.133-2.533 2.5V10.5c0 .633.533 1.167 1.166 1.167h25c.634 0 1.167-.5 1.167-1.167V9.167c0-1.367-1.133-2.5-2.533-2.5H132.2zM155.5 26.533h-5.167v-1.4c0-.633-.533-1.133-1.166-1.133h-6v24.333h11.166c1.3 0 2.334-1.033 2.334-2.3V27.7c0-.633-.534-1.167-1.167-1.167z" fill="#036B2D"/><path d="M140.267 24c-.634 0-1.167.5-1.167 1.167v1.3H132c-1.3 0-2.333 1.033-2.333 2.3v17.266c0 1.267 1.033 2.3 2.333 2.3h11.167V24h-2.9z" fill="#00B84B"/><path d="M131.4 16.667c-.967 0-1.733.833-1.733 1.833s.8 1.833 1.733 1.833h3.5c.967 0 1.733-.833 1.733-1.833s-.766-1.833-1.7-1.833H131.4z" fill="#F2F2F2"/><g><path d="M156.833 52.667h11.334c.644 0 1.166.57 1.166 1.272v1.455c0 .703-.522 1.273-1.166 1.273h-11.334c-.644 0-1.166-.57-1.166-1.273v-1.455c0-.703.522-1.272 1.166-1.272zm0-8h11.334c.644 0 1.166.522 1.166 1.166V47.5c0 .644-.522 1.167-1.166 1.167h-11.334a1.167 1.167 0 0 1-1.166-1.167v-1.667c0-.644.522-1.166 1.166-1.166z" fill="#EAAC11"/><path d="M171.181 49.257l-1.487-4.578c-.2-.613.136-1.271.749-1.47l1.585-.515c.613-.2 1.271.136 1.47.749L177 54.222c.2.612-.136 1.27-.749 1.47l-1.585.515a1.167 1.167 0 0 1-1.47-.75l-1.87-5.755c.005.043.007.087.007.131V51.5c0 .644-.522 1.167-1.166 1.167h-11.334a1.167 1.167 0 0 1-1.166-1.167v-1.667c0-.644.522-1.166 1.166-1.166h11.334c.435 0 .814.238 1.014.59zm-14.014-8.59H168.5c.644 0 1.167.57 1.167 1.272v1.455c0 .703-.523 1.273-1.167 1.273h-11.333c-.645 0-1.167-.57-1.167-1.273v-1.455c0-.703.522-1.272 1.167-1.272z" fill="#FCC216"/></g></g><g fill-rule="nonzero"><path d="M196.667 21.667h3c.733 0 1.333.6 1.333 1.333v5.333h-5.667V23c0-.733.6-1.333 1.334-1.333zm23.666 0h3c.734 0 1.334.6 1.334 1.333v5.333H219V23c0-.733.6-1.333 1.333-1.333zM220.167 48.4c-1.067-.6-2.534-1.467-5-2.967h-10.334c-2.5 1.5-3.933 2.367-5 2.967-1.333.733-1.233 2.433-1.233 2.967 0 .733.5 1.333 1.3 1.333h20.267c.766 0 1.3-.567 1.3-1.333-.067-.534.033-2.234-1.3-2.967z" fill="#036B2D"/><path d="M233.867 30c-14.967-6.5-16.234-7.033-16.234-7.033-1-.567-1.6-1.367-1.666-2.6-.3-6.3-.967-11.034-1.634-12.634-.8-1.933-2.4-3.933-4.333-3.933-1.933 0-3.567 2-4.333 3.933-.667 1.6-1.334 6.334-1.634 12.634-.066 1.233-.7 2.033-1.666 2.6 0 0-1.267.533-16.234 7.033-.733.333-1.8 1.433-1.8 3.267V35.6c0 .967.634 1.9 2.3 1.767 5.3-.367 15.234-.9 15.234-.9 1.1-.2 1.9.8 2 1.866l.966 7.6c.734 6.367 2.534 8.967 5.134 9.067 2.6-.067 4.366-2.7 5.133-9.067l1-7.6c.133-1.033.9-2.066 2-1.866 0 0 9.933.533 15.233.9 1.7.133 2.3-.8 2.3-1.767v-2.333c.034-1.834-1.033-2.934-1.766-3.267z" fill="#67D495"/><path d="M210 55V3.833c1.933 0 3.567 2 4.333 3.934.667 1.6 1.334 6.333 1.634 12.633.066 1.233.7 2.033 1.666 2.6 0 0 1.267.533 16.234 7.033.733.334 1.8 1.434 1.8 3.267v2.333c0 .967-.634 1.9-2.3 1.767-5.3-.367-15.234-.9-15.234-.9-1.1-.2-1.9.8-2 1.867l-.966 7.6C214.367 52.3 212.6 54.9 210 55z" fill="#00B84B"/><g><path d="M236.533 38.767a64.704 64.704 0 0 0-7.633-.434c-2.567 0-5.1.134-7.6.434a.685.685 0 0 0-.633.666V48.7c0 2.333 1.1 4.167 2.933 5.567 4.1 2.8 4.4 3 5.3 3 .9 0 1.167-.2 5.3-3 1.867-1.434 2.933-3.267 2.933-5.567v-9.267c.034-.333-.233-.633-.6-.666z" fill="#FCC216"/><path d="M236.533 38.767a.692.692 0 0 1 .634.7v9.266c0 2.334-1.1 4.167-2.934 5.567-4.1 2.8-4.4 3-5.3 3V38.333c2.534 0 5.067.134 7.6.434z" fill="#EAAC11"/></g></g><g fill-rule="nonzero"><path d="M251.667 6.667a2 2 0 0 0-2 2V40H295a2 2 0 0 0 2-2V8.667a2 2 0 0 0-2-2h-43.333z" fill="#00B84B"/><path fill="#036B2D" d="M249.667 16H297v6.333h-47.333z"/><path d="M266.667 20h-22a2 2 0 0 0-2 2v29.333a2 2 0 0 0 2 2h22V20z" fill="#F2F2F2"/><path d="M290 51.333V22a2 2 0 0 0-2-2h-21.667v33.333H288a2 2 0 0 0 2-2z" fill="#E3E3E3"/><path d="M250 39.333h4.667a1.333 1.333 0 0 1 0 2.667H250a1.333 1.333 0 0 1 0-2.667zM259.333 39.333H264A1.333 1.333 0 0 1 264 42h-4.667a1.333 1.333 0 0 1 0-2.667z" fill="#FCC216"/><path d="M268.667 39.333h4.666a1.333 1.333 0 0 1 0 2.667h-4.666a1.333 1.333 0 0 1 0-2.667zM278 39.333h4.667a1.333 1.333 0 0 1 0 2.667H278a1.333 1.333 0 0 1 0-2.667z" fill="#EAAC11"/><path d="M266.667 44.667H250a1.333 1.333 0 0 0 0 2.666h16.667v-2.666z" fill="#FCC216"/><path d="M269 44.667h-2.667v2.666H269a1.333 1.333 0 0 0 0-2.666z" fill="#EAAC11"/><path d="M250 26c-.736 0-1.333.597-1.333 1.333V32c0 .736.597 1.333 1.333 1.333h7.333c.737 0 1.334-.597 1.334-1.333v-4.667c0-.736-.597-1.333-1.334-1.333H250z" fill="#FCC216"/></g><g fill-rule="nonzero"><path d="M307.715 42.715v3.527a2.956 2.956 0 0 0 2.956 2.955h.795a2.956 2.956 0 0 0 2.955-2.955v-3.528h-6.706zM348.299 42.715v3.527a2.956 2.956 0 0 1-2.956 2.955h-.794a2.956 2.956 0 0 1-2.956-2.955v-3.528h6.706z" fill="#036B2D"/><path d="M318.447 9.333c-2.909 0-5.493 1.854-6.563 4.636-.092.24-1.136 3.28-3.134 9.12a1.498 1.498 0 0 0-1.368-.89h-2.215a1.5 1.5 0 0 0-1.5 1.5v.13a1.5 1.5 0 0 0 1.5 1.5h2.215c.237 0 .457-.06.656-.157l-.203.596c-2.315 1.26-3.473 4.016-3.473 8.269v6.114a3.475 3.475 0 0 0 3.353 3.47c.042.002.082.007.124.007h20.502V9.333h-9.894z" fill="#2EC76C"/><path d="M341.593 43.628h6.582c.042 0 .083-.005.125-.006a3.475 3.475 0 0 0 3.353-3.471v-6.114c0-4.253-1.158-7.01-3.473-8.27l-.204-.595c.2.097.42.157.656.157h2.216a1.5 1.5 0 0 0 1.5-1.5v-.13a1.5 1.5 0 0 0-1.5-1.5h-2.216c-.61 0-1.134.366-1.368.89-1.997-5.84-3.042-8.88-3.134-9.12-1.07-2.782-3.654-4.636-6.563-4.636h-9.56v34.295h13.586z" fill="#00B84B"/><path d="M318.501 13.059c-1.266 0-2.7 1.238-3.209 2.766l-2.584 7.508c-.543 1.527.435 2.766 2.19 2.766h13.442v-13.04h-9.839z" fill="#F2F2F2"/><path d="M343.306 23.333l-2.584-7.508c-.509-1.528-1.943-2.766-3.209-2.766h-9.506v13.04h13.109c1.755 0 2.733-1.239 2.19-2.766z" fill="#E3E3E3"/><path d="M315.837 33.88c-1.123-.781-3.191-1.725-6.205-2.832a1.333 1.333 0 0 0-1.793 1.252v2.34c0 .736.597 1.333 1.334 1.333h6.008a1.148 1.148 0 0 0 .656-2.093z" fill="#F2F2F2"/><path d="M340.177 33.88c1.123-.781 3.191-1.725 6.205-2.832a1.333 1.333 0 0 1 1.793 1.252v2.34c0 .736-.597 1.333-1.333 1.333h-6.008a1.148 1.148 0 0 1-.657-2.093z" fill="#E3E3E3"/><path d="M317.465 39.759a.696.696 0 0 0-.574.303l-2.441 3.566h13.89v-3.869h-10.875z" fill="#02963E"/><path d="M341.565 43.628l-2.442-3.566a.696.696 0 0 0-.574-.303h-10.542v3.869h13.558z" fill="#036B2D"/><path d="M318.955 33.674a.349.349 0 0 0-.281.553l1.377 1.887c.066.09.17.143.281.143h8.008v-2.583h-9.385z" fill="#02963E"/><path d="M335.682 36.257a.348.348 0 0 0 .281-.143l1.378-1.887a.349.349 0 0 0-.282-.553h-9.052v2.583h7.675z" fill="#036B2D"/><g><path d="M356.533 38.767a64.704 64.704 0 0 0-7.633-.434c-2.567 0-5.1.134-7.6.434a.685.685 0 0 0-.633.666V48.7c0 2.333 1.1 4.167 2.933 5.567 4.1 2.8 4.4 3 5.3 3 .9 0 1.167-.2 5.3-3 1.867-1.434 2.933-3.267 2.933-5.567v-9.267c.034-.333-.233-.633-.6-.666z" fill="#FCC216"/><path d="M356.533 38.767a.692.692 0 0 1 .634.7v9.266c0 2.334-1.1 4.167-2.934 5.567-4.1 2.8-4.4 3-5.3 3V38.333c2.534 0 5.067.134 7.6.434z" fill="#EAAC11"/></g></g><g fill-rule="nonzero"><g transform="translate(363.333 4.667)"><path d="M27 4.286L4.444 23.95v24.688c0 .368.299.667.667.667H27V4.285z" fill="#F0F0F0"/><path d="M48.889 23.95v24.688a.666.666 0 0 1-.667.667H26.667V4.285L48.889 23.95z" fill="#E3E3E3"/><path d="M27 28.063h-5.667a.666.666 0 0 0-.666.667v20.667H27V28.063z" fill="#00B84B"/><path d="M32.667 28.73a.666.666 0 0 0-.667-.667h-5.333v21.334h6V28.73z" fill="#036B2D"/><circle fill="#F0F0F0" cx="23.667" cy="38.73" r="1"/><path d="M26.667 15.063a6 6 0 0 0-6 6v1.334h12v-1.334a6 6 0 0 0-6-6z" fill="#67D495"/><path d="M32.667 21.063a6 6 0 0 0-6-6v7.334h6v-1.334z" fill="#00B84B"/><path d="M9.333 31.397h6.334c.368 0 .666.298.666.666v8.667a.666.666 0 0 1-.666.667H9.333a.666.666 0 0 1-.666-.667v-8.667c0-.368.298-.666.666-.666zm28.667 0h6.333c.369 0 .667.298.667.666v8.667a.666.666 0 0 1-.667.667H38a.666.666 0 0 1-.667-.667v-8.667c0-.368.299-.666.667-.666z" fill="#67D495"/><path d="M26.873.398a.325.325 0 0 0-.413 0L.556 22.134a.663.663 0 0 0-.076.934l2.238 2.667a.662.662 0 0 0 .933.087l23.016-19.3.206-6.124z" fill="#00B84B"/><path d="M26.873.398l25.904 21.736a.663.663 0 0 1 .076.934l-2.238 2.667a.662.662 0 0 1-.933.087l-23.015-19.3V.323c.075 0 .148.026.206.075z" fill="#036B2D"/></g><path d="M396.833 52.667h11.334c.644 0 1.166.57 1.166 1.272v1.455c0 .703-.522 1.273-1.166 1.273h-11.334c-.644 0-1.166-.57-1.166-1.273v-1.455c0-.703.522-1.272 1.166-1.272zm0-8h11.334c.644 0 1.166.522 1.166 1.166V47.5c0 .644-.522 1.167-1.166 1.167h-11.334a1.167 1.167 0 0 1-1.166-1.167v-1.667c0-.644.522-1.166 1.166-1.166z" fill="#EAAC11"/><path d="M411.181 49.257l-1.487-4.578c-.2-.613.136-1.271.749-1.47l1.585-.515c.613-.2 1.271.136 1.47.749L417 54.222c.2.612-.136 1.27-.749 1.47l-1.585.515a1.167 1.167 0 0 1-1.47-.75l-1.87-5.755c.005.043.007.087.007.131V51.5c0 .644-.522 1.167-1.166 1.167h-11.334a1.167 1.167 0 0 1-1.166-1.167v-1.667c0-.644.522-1.166 1.166-1.166h11.334c.435 0 .814.238 1.014.59zm-14.014-8.59H408.5c.644 0 1.167.57 1.167 1.272v1.455c0 .703-.523 1.273-1.167 1.273h-11.333c-.645 0-1.167-.57-1.167-1.273v-1.455c0-.703.522-1.272 1.167-1.272z" fill="#FCC216"/></g><g fill-rule="nonzero"><g transform="translate(422.667 9.667)"><path d="M10.333 0c-.92 0-1.666.746-1.666 1.667v21.666H51c.92 0 1.667-.746 1.667-1.666v-20C52.667.747 51.92 0 51 0H10.333z" fill="#036B2D"/><path d="M6 7.333c-.92 0-1.667.747-1.667 1.667v21.667h42.334c.92 0 1.666-.747 1.666-1.667V9c0-.92-.746-1.667-1.666-1.667H6z" fill="#00B84B"/><path d="M22.333 14.667H1.667c-.92 0-1.667.746-1.667 1.666v20C0 37.253.746 38 1.667 38h20.666V14.667z" fill="#67D495"/><path d="M44 36.333v-20c0-.92-.746-1.666-1.667-1.666H22V38h20.333c.92 0 1.667-.746 1.667-1.667z" fill="#2EC76C"/><circle fill="#00B84B" cx="22" cy="26.333" r="8"/><path d="M30 26.333a8 8 0 0 0-8-8v16a8 8 0 0 0 8-8z" fill="#036B2D"/><circle fill="#00B84B" cx="7" cy="26.333" r="2.667"/><circle fill="#036B2D" cx="37" cy="26.333" r="2.667"/></g><path d="M456.833 52.667h11.334c.644 0 1.166.57 1.166 1.272v1.455c0 .703-.522 1.273-1.166 1.273h-11.334c-.644 0-1.166-.57-1.166-1.273v-1.455c0-.703.522-1.272 1.166-1.272zm0-8h11.334c.644 0 1.166.522 1.166 1.166V47.5c0 .644-.522 1.167-1.166 1.167h-11.334a1.167 1.167 0 0 1-1.166-1.167v-1.667c0-.644.522-1.166 1.166-1.166z" fill="#EAAC11"/><path d="M471.181 49.257l-1.487-4.578c-.2-.613.136-1.271.749-1.47l1.585-.515c.613-.2 1.271.136 1.47.749L477 54.222c.2.612-.136 1.27-.749 1.47l-1.585.515a1.167 1.167 0 0 1-1.47-.75l-1.87-5.755c.005.043.007.087.007.131V51.5c0 .644-.522 1.167-1.166 1.167h-11.334a1.167 1.167 0 0 1-1.166-1.167v-1.667c0-.644.522-1.166 1.166-1.166h11.334c.435 0 .814.238 1.014.59zm-14.014-8.59H468.5c.644 0 1.167.57 1.167 1.272v1.455c0 .703-.523 1.273-1.167 1.273h-11.333c-.645 0-1.167-.57-1.167-1.273v-1.455c0-.703.522-1.272 1.167-1.272z" fill="#FCC216"/></g><g fill-rule="nonzero"><path d="M510 14.663c-.91-.867-1.609-1.497-2.098-1.892a35.18 35.18 0 0 0-2.628-1.9 14.048 14.048 0 0 0-3.303-1.608c-1.184-.398-2.344-.596-3.482-.596-4.11 0-7.33 1.146-9.66 3.439-2.33 2.292-3.496 5.473-3.496 9.54 0 1.239.216 2.515.647 3.828.278.847.584 1.605.912 2.29.18.377.365.738.56 1.066.429.72.903 1.425 1.421 2.116a27 27 0 0 0 .451.588c.697.878 1.206 1.483 1.528 1.816.32.333.573.574.757.721l17.174 16.697c.22.221.624.388 1.211.499l.344-.267V14.663H510z" fill="#2EC76C"/><path d="M510 14.663a25.58 25.58 0 0 1 2.098-1.892 35.18 35.18 0 0 1 2.628-1.9 14.048 14.048 0 0 1 3.303-1.608c1.184-.398 2.344-.596 3.482-.596 4.11 0 7.33 1.146 9.66 3.439 2.33 2.292 3.496 5.473 3.496 9.54 0 1.239-.216 2.515-.647 3.828a19.098 19.098 0 0 1-.912 2.29c-.18.377-.365.738-.56 1.066-.429.72-.903 1.425-1.421 2.116a27 27 0 0 1-.451.588c-.697.878-1.206 1.483-1.528 1.816a9.044 9.044 0 0 1-.757.721l-17.174 16.697c-.33.332-.734.499-1.211.499H510V14.662z" fill="#02963E"/><path d="M510 23.684a1.621 1.621 0 0 0-1.662.935l-2.994 6.489-3.237-11.468c-.442-1.566-2.653-1.59-3.129-.034l-2.47 8.079h-9.136c-.168 0-.327.033-.48.08.18.376.366.737.56 1.065.43.72.904 1.425 1.421 2.117h8.842c.717 0 1.35-.469 1.56-1.154l1.2-3.928 2.93 10.38c.412 1.458 2.416 1.616 3.051.24L510 28.802l.109-.236.224-.232v-4.318c-.156-.214-.267-.325-.333-.332z" fill="#02963E"/><path d="M511.284 30.25a1.63 1.63 0 0 0 1.337.697h5.995a1.63 1.63 0 1 0 0-3.262h-5.145l-2.315-3.317a1.606 1.606 0 0 0-1.156-.684v5.118l.109-.236 1.175 1.683z" fill="#036B2D"/><g><path d="M536.533 38.767a64.704 64.704 0 0 0-7.633-.434c-2.567 0-5.1.134-7.6.434a.685.685 0 0 0-.633.666V48.7c0 2.333 1.1 4.167 2.933 5.567 4.1 2.8 4.4 3 5.3 3 .9 0 1.167-.2 5.3-3 1.867-1.434 2.933-3.267 2.933-5.567v-9.267c.034-.333-.233-.633-.6-.666z" fill="#FCC216"/><path d="M536.533 38.767a.692.692 0 0 1 .634.7v9.266c0 2.334-1.1 4.167-2.934 5.567-4.1 2.8-4.4 3-5.3 3V38.333c2.534 0 5.067.134 7.6.434z" fill="#EAAC11"/></g></g><g fill-rule="nonzero"><path d="M570.333 10.667h-8.666a1 1 0 0 0-1 1V17h2.666v-3.667h7v-2.666z" fill="#00B84B"/><path d="M576.667 17h2.666v-5.333a1 1 0 0 0-1-1H570v2.666h6.667V17z" fill="#02963E"/><path d="M570.333 16.667H548c-.92 0-1.667.746-1.667 1.666v30c0 .92.747 1.667 1.667 1.667h22.333V16.667z" fill="#F2F2F2"/><path d="M593.667 48.333v-30c0-.92-.747-1.666-1.667-1.666h-22V50h22c.92 0 1.667-.746 1.667-1.667z" fill="#E3E3E3"/><path d="M570.333 24h-1.389c-.562 0-1.018.456-1.018 1.018v6.241h-6.241c-.562 0-1.018.456-1.018 1.019v2.111c0 .563.456 1.019 1.018 1.019h6.241v6.24c0 .563.456 1.019 1.018 1.019h1.39V24z" fill="#00B84B"/><path d="M572.074 41.648v-6.24h6.241c.562 0 1.018-.457 1.018-1.019v-2.112c0-.562-.456-1.018-1.018-1.018h-6.241v-6.24c0-.563-.456-1.019-1.018-1.019H570v18.667h1.056c.562 0 1.018-.456 1.018-1.019z" fill="#02963E"/><path d="M555.833 15.333h-3.666c-.645 0-1.167.523-1.167 1.167v.5c0 .368.298.667.667.667h1V50h2.666V17.667h1A.666.666 0 0 0 557 17v-.5c0-.644-.522-1.167-1.167-1.167z" fill="#00B84B"/><path d="M587.833 15.333h-3.666c-.645 0-1.167.523-1.167 1.167v.5c0 .368.298.667.667.667h1V50h2.666V17.667h1A.666.666 0 0 0 589 17v-.5c0-.644-.522-1.167-1.167-1.167z" fill="#02963E"/><g><path d="M596.533 38.767a64.704 64.704 0 0 0-7.633-.434c-2.567 0-5.1.134-7.6.434a.685.685 0 0 0-.633.666V48.7c0 2.333 1.1 4.167 2.933 5.567 4.1 2.8 4.4 3 5.3 3 .9 0 1.167-.2 5.3-3 1.867-1.434 2.933-3.267 2.933-5.567v-9.267c.034-.333-.233-.633-.6-.666z" fill="#FCC216"/><path d="M596.533 38.767a.692.692 0 0 1 .634.7v9.266c0 2.334-1.1 4.167-2.934 5.567-4.1 2.8-4.4 3-5.3 3V38.333c2.534 0 5.067.134 7.6.434z" fill="#EAAC11"/></g></g></g></svg>