<svg width="600" height="60" viewBox="0 0 600 60" version="1.1" xmlns="http://www.w3.org/2000/svg"><title>gb-icon-spritesheet-brand</title><g stroke="none" stroke-width="1" fill="none" fill-rule="evenodd"><g fill-rule="nonzero"><path d="M30.333 27.596H9.394V51c0 .92.746 1.667 1.667 1.667h19.272V27.596z" fill="#67D495"/><path d="M50.606 51V27.596H30v25.07h18.94c.92 0 1.666-.746 1.666-1.666z" fill="#00B84B"/><path fill="#FCC216" d="M30.333 30H9.394v3.091h20.94z"/><path fill="#EAAC11" d="M30 30h20.606v3.091H30z"/><path d="M30.333 18.667H9c-.92 0-1.667.746-1.667 1.666v8C7.333 29.253 8.08 30 9 30h21.333V18.667z" fill="#00B84B"/><path d="M52.667 28.333v-8c0-.92-.747-1.666-1.667-1.666H30V30h21c.92 0 1.667-.746 1.667-1.667z" fill="#02963E"/><path d="M42.709 10.39c-1.817-2.605-4.873-3.97-7.58-2.308C31.476 10.323 30 15.328 30 15.328s-1.476-5.005-5.13-7.246c-2.706-1.661-5.763-.297-7.579 2.308-3.455 4.955.343 8.279 2.92 8.279h19.578c2.577 0 6.375-3.324 2.92-8.279z" fill="#02963E"/><path d="M30 15.328s1.476-5.005 5.13-7.246c2.706-1.661 5.763-.297 7.579 2.308 3.455 4.955-.343 8.279-2.92 8.279H30v-3.34z" fill="#036B2D"/></g><g transform="translate(67.333 9.667)" fill-rule="nonzero"><path d="M17.41 24.614a2.834 2.834 0 0 0-4.007 0L.512 37.506a1.666 1.666 0 0 0 0 2.357l1.78 1.78a1.666 1.666 0 0 0 2.356 0L17.54 28.75a2.834 2.834 0 0 0 0-4.007l-.13-.13z" fill="#036B2D"/><path d="M26.172 0c-.054 0-.107.004-.161.004-8.667.087-15.667 7.136-15.667 15.824 0 8.687 7 15.737 15.667 15.824.054 0 .107.004.161.004C34.914 31.656 42 24.57 42 15.828 42 7.086 34.914 0 26.172 0z" fill="#00B84B"/><path d="M26.172 0v31.656C34.914 31.656 42 24.57 42 15.828 42 7.086 34.914 0 26.172 0z" fill="#02963E"/><circle fill="#F2F2F2" cx="26.171" cy="15.827" r="10.311"/><path d="M36.482 15.827c0-5.694-4.616-10.31-10.31-10.31v20.622c5.694 0 10.31-4.617 10.31-10.312z" fill="#E3E3E3"/><path d="M27.667 40.667a2.667 2.667 0 1 1 0-5.334 2.667 2.667 0 0 1 0 5.334zm7 0a2.667 2.667 0 1 1 0-5.334 2.667 2.667 0 0 1 0 5.334zm7 0a2.667 2.667 0 1 1 0-5.334 2.667 2.667 0 0 1 0 5.334z" fill="#FCC216"/></g><g transform="translate(124 11)" fill-rule="nonzero"><path d="M5.59 14.407a2.683 2.683 0 0 0-1.42 1.609L.266 28.14a2.012 2.012 0 0 0 1.156 2.48l11.798 4.802a2.684 2.684 0 0 0 2.145-.053l30.123-14.047a2.012 2.012 0 0 0 .973-2.674L38.388 1.333A2.012 2.012 0 0 0 35.714.36L5.59 14.407z" fill="#036B2D"/><path d="M29.675 16.222H11.972c-.837 0-1.634.355-2.195.975L.684 27.266a2.218 2.218 0 0 0 0 2.973l9.093 10.068c.561.621 1.358.975 2.195.975h17.703v-25.06zm-19.16 14.69a2.16 2.16 0 1 1 0-4.32 2.16 2.16 0 0 1 0 4.32z" fill="#F0F0F0"/><path d="M50.408 39.065V18.44a2.218 2.218 0 0 0-2.218-2.218H29.342v25.06H48.19a2.218 2.218 0 0 0 2.218-2.217z" fill="#E3E3E3"/><path d="M36.17 21.042a1.989 1.989 0 0 0-2.808.164l-4.02 4.518-6.407 7.2a1.989 1.989 0 0 0 2.971 2.644l3.436-3.86 6.991-7.858c.73-.821.657-2.078-.163-2.808z" fill="#FCC216"/><path d="M36.17 21.042a1.989 1.989 0 0 0-2.808.164l-4.02 4.518v5.983l6.991-7.857c.73-.821.657-2.078-.163-2.808z" fill="#EAAC11"/><circle fill="#FCC216" cx="25.746" cy="23.673" r="2.187"/><circle fill="#EAAC11" cx="33.7" cy="33.218" r="2.187"/></g><g fill-rule="nonzero"><path d="M190.446 18.225c.097.16.214.3.343.423l-6.22 15.914c-.015.037-.021.074-.03.11.111-.445.511-.776.992-.776h1.488l5.772-14.769.006-.014.004.011 5.774 14.772h1.481a1.026 1.026 0 0 1 1.021.93.922.922 0 0 0-.057-.279l-6.394-16.358c3.162-1.521 7.414-2.406 12.757-2.619l.341-4.117c-7.033.226-12.563 1.522-16.583 3.953a2.053 2.053 0 0 0-.695 2.819z" fill="#2EC76C"/><path d="M212.245 11.452c7.033.226 12.562 1.522 16.583 3.954a2.053 2.053 0 0 1 .352 3.242l6.22 15.914c.015.037.021.074.03.11a1.024 1.024 0 0 0-.992-.776h-1.488l-5.772-14.769-.006-.014-.004.011-5.774 14.772h-1.481a1.026 1.026 0 0 0-1.021.93.922.922 0 0 1 .057-.279l6.394-16.359c-3.162-1.52-7.415-2.405-12.758-2.618l-.34-4.118z" fill="#00B84B"/><path d="M215.1 45.971l-2.515-30.401-.34-4.118-.032-.381c-.125-1.508-.872-2.635-2.229-2.641-1.357.006-2.104 1.133-2.228 2.64l-.032.382-.34 4.118-2.516 30.401a89.813 89.813 0 0 1-.158 1.695h10.549a89.727 89.727 0 0 1-.158-1.695z" fill="#02963E"/><path d="M212.213 11.07l.032.382.34 4.118 2.516 30.401c.042.508.095 1.074.158 1.695h-5.275V8.43c1.357.006 2.104 1.133 2.229 2.64z" fill="#036B2D"/><path d="M225.302 47.667H194.667c-.92 0-1.667.746-1.667 1.666v2c0 .92.746 1.667 1.667 1.667H225.302c.92 0 1.667-.746 1.667-1.667v-2c0-.92-.746-1.666-1.667-1.666z" fill="#FCC216"/><path d="M215.259 47.667h10.043c.92 0 1.667.746 1.667 1.666v2c0 .92-.747 1.667-1.667 1.667h-15.318v-5.333h5.275z" fill="#EAAC11"/><path d="M201.077 34.827a1.026 1.026 0 0 0-1.021-.93H185.531c-.48 0-.88.33-.993.776l-.014.052c-.01.047-.012.096-.015.145 0 .023-.005.047-.004.07l.001.014c.003.093.017.185.044.273 1.354 4.36 4.08 6.54 8.179 6.54 4.093 0 6.86-2.174 8.301-6.521a1.01 1.01 0 0 0 .047-.276c.002-.036.004-.071.002-.106a.442.442 0 0 0-.002-.037z" fill="#02963E"/><path d="M218.892 34.827a1.026 1.026 0 0 1 1.02-.93H234.439c.48 0 .88.33.993.776l.014.052c.01.047.012.096.015.145 0 .023.005.047.004.07l-.001.014a1.022 1.022 0 0 1-.044.273c-1.354 4.36-4.08 6.54-8.179 6.54-4.093 0-6.86-2.174-8.301-6.521a1.01 1.01 0 0 1-.047-.276c-.002-.036-.004-.071-.002-.106l.002-.037z" fill="#036B2D"/></g><g fill-rule="nonzero"><path d="M255.206 8.667c-.92 0-1.666.746-1.666 1.666v41.94h18.563V8.667h-16.897z" fill="#00B84B"/><path d="M288.333 8.667H271.77v43.606h10.514A7.716 7.716 0 0 0 290 44.558V10.333c0-.92-.746-1.666-1.667-1.666z" fill="#02963E"/><path d="M260.423 17.115h11.664v2.816h-11.664a.68.68 0 0 1-.695-.667v-1.483a.68.68 0 0 1 .695-.666zM260.423 22.747h11.664v2.816h-11.664a.68.68 0 0 1-.695-.667v-1.483a.68.68 0 0 1 .695-.666zM260.361 28.333h11.664v2.816h-11.664a.68.68 0 0 1-.694-.666V29a.68.68 0 0 1 .694-.667z" fill="#F2F2F2"/><path d="M260.361 33.92h11.664v2.816h-11.664a.68.68 0 0 1-.694-.667v-1.482a.68.68 0 0 1 .694-.667z" fill="#FCC216"/><path d="M274.457 44.074c.474 0 .876.392.877.923.006 4.027 3.302 7.276 7.014 7.276h-29.777c-3.492 0-6.919-3.283-6.919-7.276 0-.516.385-.923.859-.923h27.946z" fill="#67D495"/><path d="M271.77 17.115h11.013c.368 0 .667.298.667.666v1.483a.666.666 0 0 1-.667.667h-11.014v-2.816zM271.77 22.747h11.013c.368 0 .667.298.667.666v1.483a.666.666 0 0 1-.667.667h-11.014v-2.816zM271.77 28.333h10.91c.369 0 .667.299.667.667v1.483a.666.666 0 0 1-.667.666h-10.91v-2.816z" fill="#E3E3E3"/><path d="M271.77 33.92l5.23.005c.368 0 .666.299.666.667v1.483a.666.666 0 0 1-.666.666l-5.23-.005V33.92z" fill="#EAAC11"/></g><g fill-rule="nonzero"><path d="M311.933 32.301l8.91-2.895 6.115 18.82a1.667 1.667 0 0 1-1.07 2.1l-5.74 1.864a1.667 1.667 0 0 1-2.1-1.07l-6.115-18.819z" fill="#036B2D"/><path d="M353 23.91c0-.567-.288-1.095-.765-1.402L348.334 20v6.667H353V23.91z" fill="#FCC216"/><path d="M352.235 30.159c.477-.307.765-.835.765-1.402v-2.424h-4.666v6.334l3.9-2.508z" fill="#EAAC11"/><path d="M348.667 11.55a2.667 2.667 0 0 0-3.624-2.49l-22.376 8.605v9.002h26V11.549z" fill="#2EC76C"/><path d="M345.043 43.606a2.667 2.667 0 0 0 3.624-2.489V26.333h-26V35l22.376 8.607z" fill="#02963E"/><path d="M323 17.667h-13.682c-1.464 0-2.651 1.217-2.651 2.719v6.28H323v-9z" fill="#2EC76C"/><path d="M309.318 35H323v-8.667h-16.333v5.948c0 1.502 1.187 2.719 2.651 2.719z" fill="#02963E"/><path fill="#00B84B" d="M319.334 17.667h3.333v8.996h-3.333z"/><path fill="#036B2D" d="M319.334 26.33h3.333v8.667h-3.333z"/></g></g></svg>